<svg width="40" height="40" viewBox="0 0 40 40" fill="none" xmlns="http://www.w3.org/2000/svg">
<g id="&#231;&#188;&#150;&#231;&#187;&#132; 14">
<circle id="&#230;&#164;&#173;&#229;&#156;&#134;&#229;&#189;&#162;" cx="20" cy="20" r="20" fill="#C6D4FF"/>
<path id="kaifangfanwei" fill-rule="evenodd" clip-rule="evenodd" d="M30.5134 22C28.5805 21.9926 27.0074 23.5537 27 25.4867C26.9927 27.4196 28.5536 28.9926 30.4866 29C32.4197 29.0074 33.9926 27.4463 34 25.5133C34.0074 23.5804 32.4464 22.0074 30.5134 22ZM19.4712 11.9999C20.8907 12.0115 22.1767 11.1646 22.7265 9.85604C23.2765 8.54738 22.9815 7.0361 21.9799 6.03043C20.9783 5.0246 19.4682 4.7233 18.1574 5.26784C16.8463 5.81238 15.9942 7.09476 16 8.51434C16 10.4337 17.5518 11.9919 19.4712 11.9999ZM31.0213 20.3062C31.7206 20.3929 32.3953 20.6299 33 21V20.8593C32.9909 15.733 30.031 11.0898 25.4404 9C25.4308 9.70056 25.281 10.3917 25 11.0312C28.5093 12.7793 30.8139 16.3293 31.0213 20.3062ZM13 25.4852C12.9918 23.5614 11.4325 22.0047 9.50862 22C7.58482 21.9953 6.0178 23.544 6.00015 25.4679C5.98247 27.3915 7.52062 28.969 9.44409 28.9998C10.3834 29.0108 11.2879 28.6455 11.956 27.9851C12.6242 27.3248 13 26.4245 13 25.4852ZM9.02926 20.2936C9.22776 16.3289 11.5104 12.7819 15 11.0154C14.7173 10.3819 14.5668 9.69568 14.5579 9C9.96827 11.0875 7.00923 15.7255 7 20.8461C7.02838 20.9038 7.06805 20.9558 7.11329 21C7.69582 20.6293 8.34886 20.3886 9.02926 20.2936ZM20 31.708C17.4333 31.7067 14.943 30.7519 12.9372 29C12.3757 29.5496 11.7161 29.966 11 30.2226C16.1164 35.2591 23.8836 35.2591 29 30.2226C28.2839 29.966 27.6243 29.5496 27.0628 29C25.0536 30.7417 22.5637 31.6861 20 31.6794V31.708Z" fill="black"/>
</g>
</svg>
