<svg width="40" height="40" viewBox="0 0 40 40" fill="none" xmlns="http://www.w3.org/2000/svg">
<g id="&#231;&#188;&#150;&#231;&#187;&#132; 14">
<circle id="&#230;&#164;&#173;&#229;&#156;&#134;&#229;&#189;&#162;" cx="20" cy="20" r="20" fill="#DAD4FF"/>
<g id="zizhuquan">
<mask id="mask0_4784_1711" style="mask-type:luminance" maskUnits="userSpaceOnUse" x="9" y="7" width="23" height="27">
<path id="Clip 2" fill-rule="evenodd" clip-rule="evenodd" d="M9 7H32V34H9V7Z" fill="white"/>
</mask>
<g mask="url(#mask0_4784_1711)">
<path id="Fill 1" fill-rule="evenodd" clip-rule="evenodd" d="M22.6152 34H11.6891C10.199 33.9923 8.99619 32.7699 9.00001 31.2672V9.73283C8.99619 8.23022 10.199 7.00775 11.6891 7H29.3109C30.801 7.00775 32.0038 8.23022 32 9.73283V23.3541C32 23.8878 31.5709 24.3205 31.0417 24.3205C30.5124 24.3205 30.0834 23.8878 30.0834 23.3541V9.73283C30.0888 9.29703 29.7432 8.93896 29.3109 8.9328H11.6891C11.257 8.93935 10.9115 9.29717 10.9166 9.73283V31.2666C10.9112 31.7025 11.2568 32.0605 11.6891 32.0667H22.6152C23.1445 32.0667 23.5738 32.4996 23.5738 33.0334C23.5738 33.5673 23.1445 34 22.6152 34Z" fill="black"/>
<path id="Fill 3" fill-rule="evenodd" clip-rule="evenodd" d="M28.1114 25.4068L24.1878 29.6419V25.427L28.1121 25.4068H28.1114ZM31.5983 23.4819L22.6348 23.5281C22.4022 23.5287 22.2138 23.7105 22.2129 23.9351V33.5628C22.2129 33.9574 22.3508 34 22.4159 34C22.427 33.9997 22.438 33.9987 22.4489 33.9968C22.6316 33.9959 22.8091 33.9385 22.9554 33.8328L31.9177 24.1593C32.0049 24.0752 31.9999 23.7901 31.9999 23.7172C31.9999 23.4819 31.9999 23.4819 31.5977 23.4819H31.5983ZM24.0332 14.9003H27.9829V12.9935H24.0332V14.9003ZM24.095 18.714H28.0447V16.8071H24.095V18.714ZM15.499 19.5684L12.0093 16.1914L13.4072 14.8443L15.4769 16.8471L20.3312 12L21.7507 13.3258L15.499 19.5684ZM15.4863 25.6992L12 22.3329L13.3961 20.9847L15.4642 22.9816L20.3136 18.1515L21.7313 19.4789L15.4863 25.6992Z" fill="black"/>
</g>
</g>
</g>
</svg>
