<svg width="40" height="40" viewBox="0 0 40 40" fill="none" xmlns="http://www.w3.org/2000/svg">
<g id="&#231;&#188;&#150;&#231;&#187;&#132; 14">
<circle id="&#230;&#164;&#173;&#229;&#156;&#134;&#229;&#189;&#162;" cx="20" cy="20" r="20" fill="#B8F3C9"/>
<g id="&#231;&#188;&#150;&#231;&#187;&#132;">
<path id="Fill 1" fill-rule="evenodd" clip-rule="evenodd" d="M34.6209 20.3003L33.5289 20.7693L34.0739 21.0033L34.6229 21.2373C34.7599 20.9403 34.7589 20.5973 34.6209 20.3003ZM6.10288 21.2373L7.19488 20.7693L6.80388 20.6013L6.10188 20.3003C5.96588 20.5983 5.96588 20.9413 6.10288 21.2373Z" fill="black"/>
<path id="Fill 3" fill-rule="evenodd" clip-rule="evenodd" d="M34.6205 21.238L34.0725 21.003L33.5265 20.769L34.6195 20.3V20.298L34.6155 20.288L34.6035 20.261C34.5355 20.123 34.4655 19.985 34.3925 19.849C33.5165 18.227 32.4325 16.725 31.1705 15.383C28.8715 12.949 25.2815 10.395 20.3615 10.395C19.7015 10.394 19.0415 10.441 18.3885 10.536C17.7335 10.63 17.2835 11.217 17.3835 11.846C17.4815 12.476 18.0905 12.91 18.7445 12.815C19.2805 12.737 19.8205 12.699 20.3615 12.7C24.3495 12.7 27.3455 14.757 29.3995 16.933C30.4865 18.09 31.4255 19.378 32.1925 20.767C31.6195 21.804 30.9515 22.787 30.1975 23.702C30.0055 23.939 29.9185 24.245 29.9565 24.549C29.9945 24.851 30.1545 25.126 30.3995 25.309C30.9145 25.702 31.6465 25.626 32.0705 25.136C32.7725 24.286 33.4095 23.384 33.9745 22.436C34.2005 22.055 34.4115 21.666 34.6085 21.268L34.6185 21.248L34.6205 21.241L34.6225 21.238H34.6205ZM24.1315 28.185C22.9215 28.62 21.6455 28.841 20.3605 28.837C16.3735 28.837 13.3805 26.778 11.3225 24.604C10.2355 23.448 9.29752 22.159 8.52952 20.769C9.29752 19.38 10.2355 18.092 11.3225 16.935C11.5355 16.713 11.6475 16.413 11.6345 16.105C11.6175 15.798 11.4765 15.509 11.2435 15.307C11.0065 15.1 10.6965 14.993 10.3825 15.009C10.0665 15.021 9.76852 15.155 9.55152 15.383C8.58452 16.412 7.72152 17.535 6.97452 18.735C6.68352 19.202 6.41352 19.682 6.16552 20.171L6.11952 20.26L6.10752 20.287L6.10352 20.296V20.299L6.80552 20.599L7.19652 20.767L6.10352 21.238L6.10852 21.25L6.12152 21.276C6.18852 21.416 6.25952 21.552 6.33152 21.688C7.20852 23.309 8.29152 24.81 9.55452 26.153C11.8525 28.587 15.4425 31.14 20.3615 31.14C21.9325 31.143 23.4925 30.873 24.9705 30.342C25.5755 30.109 25.8765 29.455 25.6485 28.869C25.4215 28.283 24.7465 27.977 24.1315 28.185Z" fill="black"/>
<path id="Fill 5" fill-rule="evenodd" clip-rule="evenodd" d="M8.80994 8.3375C9.28094 7.8875 10.0229 7.8875 10.4939 8.3375L31.9269 29.1775C32.1439 29.3935 32.2649 29.6865 32.2619 29.9915C32.2589 30.2975 32.1329 30.5895 31.9139 30.8005C31.4489 31.2465 30.7159 31.2535 30.2439 30.8155L8.80994 9.9755C8.58694 9.7615 8.46094 9.4655 8.46094 9.1565C8.46094 8.8485 8.58694 8.5525 8.80994 8.3375ZM15.5049 18.4435C16.1479 18.5785 16.5569 19.1935 16.4179 19.8185C16.3529 20.1195 16.3199 20.4265 16.3199 20.7335C16.3199 23.0605 18.1749 24.8675 20.3689 24.8675C20.6749 24.8675 20.9809 24.8325 21.2799 24.7635C21.9179 24.6115 22.5629 24.9945 22.7179 25.6155C22.8729 26.2375 22.4799 26.8625 21.8409 27.0135C21.3589 27.1255 20.8659 27.1815 20.3709 27.1805C16.7769 27.1805 13.9399 24.2515 13.9399 20.7315C13.9399 20.2605 13.9909 19.7905 14.0919 19.3305C14.1609 19.0275 14.3469 18.7655 14.6109 18.6015C14.8769 18.4355 15.1979 18.3785 15.5049 18.4425V18.4435ZM19.1779 15.4415C19.1779 14.8035 19.7109 14.2845 20.3709 14.2845C23.9639 14.2845 26.8009 17.2135 26.8009 20.7345C26.7979 21.1515 26.5699 21.5355 26.2059 21.7375C25.8339 21.9445 25.3829 21.9445 25.0129 21.7375C24.6469 21.5355 24.4189 21.1515 24.4159 20.7345C24.4159 18.4085 22.5619 16.6015 20.3679 16.6015C19.7099 16.6015 19.1759 16.0815 19.1759 15.4435L19.1779 15.4415Z" fill="black"/>
</g>
</g>
</svg>
