<svg width="40" height="40" viewBox="0 0 40 40" fill="none" xmlns="http://www.w3.org/2000/svg">
<g id="&#231;&#188;&#150;&#231;&#187;&#132; 14">
<circle id="&#230;&#164;&#173;&#229;&#156;&#134;&#229;&#189;&#162;" cx="20" cy="20" r="20" fill="#FFC4E5"/>
<g id="dianduidian">
<path id="Fill 1" fill-rule="evenodd" clip-rule="evenodd" d="M26.2939 15.1711V21.547C26.2939 23.0506 25.0753 24.2795 23.5843 24.2795C22.0932 24.2795 20.8746 23.0506 20.8746 21.547V17.9326H20.8459C20.6022 15.7205 18.7384 14 16.4732 14C14.0359 14 12.0574 15.9953 12.0574 18.4531V24.8145C12.0431 24.8145 12.0144 24.829 12 24.829V24.8867L12.172 24.9302C12.5592 24.988 12.9749 25.0169 13.3621 24.988C13.5197 24.9734 13.6632 24.9446 13.7921 24.9012C13.7921 24.8722 13.7921 24.8434 13.7777 24.8145H13.7492V18.4531C13.7492 16.9494 14.9678 15.7205 16.4588 15.7205C17.9499 15.7205 19.1685 16.9494 19.1685 18.4531V22.0675H19.1972C19.4552 24.2795 21.3191 26 23.5843 26C26.0216 26 28 24.0049 28 21.547V15.1856L26.2939 15.1711Z" fill="black"/>
<path id="Fill 2" fill-rule="evenodd" clip-rule="evenodd" d="M14.8099 34H10.3179C9.03662 34 8 32.942 8 31.6377V27.4058C8 26.1014 9.03662 25.0435 10.3179 25.0435H14.8243C16.1056 25.0435 17.1422 26.1014 17.1422 27.4058V31.6377C17.1278 32.9275 16.0912 34 14.8099 34ZM10.3179 26.7826C10.0012 26.7826 9.72765 27.058 9.72765 27.4058V31.6377C9.72765 31.9856 9.98673 32.2609 10.3179 32.2609H14.8243C15.1409 32.2609 15.4145 31.9856 15.4145 31.6377V27.4058C15.4145 27.058 15.1553 26.7826 14.8243 26.7826H10.3179ZM29.6821 15.9565H25.1757C23.8944 15.9565 22.8578 14.8985 22.8578 13.5942V9.36236C22.8578 8.05805 23.8944 7 25.1757 7H29.6821C30.9633 7 32 8.05805 32 9.36236V13.5942C32 14.8841 30.9633 15.9565 29.6821 15.9565ZM25.1757 8.73916C24.859 8.73916 24.5854 9.01448 24.5854 9.36236V13.5942C24.5854 13.942 24.8445 14.2174 25.1757 14.2174H29.6821C29.9987 14.2174 30.2723 13.942 30.2723 13.5942V9.36236C30.2723 9.01448 30.0131 8.73916 29.6821 8.73916H25.1757Z" fill="black"/>
</g>
</g>
</svg>
