<svg width="40" height="40" viewBox="0 0 40 40" fill="none" xmlns="http://www.w3.org/2000/svg">
<g id="&#231;&#188;&#150;&#231;&#187;&#132; 14">
<circle id="&#230;&#164;&#173;&#229;&#156;&#134;&#229;&#189;&#162;" cx="20" cy="20" r="20" fill="#98EDE0"/>
<g id="&#231;&#188;&#150;&#231;&#187;&#132;">
<mask id="mask0_4784_1755" style="mask-type:luminance" maskUnits="userSpaceOnUse" x="7" y="9" width="26" height="23">
<path id="Clip 2" fill-rule="evenodd" clip-rule="evenodd" d="M7 9H33V32H7V9Z" fill="white"/>
</mask>
<g mask="url(#mask0_4784_1755)">
<path id="Fill 1" fill-rule="evenodd" clip-rule="evenodd" d="M28.2684 22.7397C26.7032 22.7397 25.4262 21.7887 25.3724 20.6039H31.1638C31.1107 21.7887 29.833 22.7397 28.2684 22.7397ZM28.2067 13.216L30.4021 19.0632H26.0106L28.2067 13.216ZM13.8812 19.0645H9.49029L11.6857 13.2167L13.8812 19.0645ZM11.7475 22.7403C10.1823 22.7403 8.90524 21.7894 8.85145 20.6052H14.6429C14.5898 21.7894 13.3121 22.7403 11.7475 22.7403ZM32.9442 19.5825C32.8957 19.2836 32.6354 19.0632 32.3346 19.0632H32.0378L29.0242 11.038L29.0733 10.9073H29.5873V10.908C30.0037 10.908 30.3404 10.4811 30.3404 9.95364C30.3404 9.42689 30.0037 9 29.588 9H10.3655C9.94851 9 9.61182 9.42689 9.61182 9.95498C9.61182 10.4811 9.94851 10.9066 10.3649 10.9066H10.8178L10.8676 11.0386L7.854 19.0645H7.66541C7.36392 19.0645 7.10426 19.2843 7.05512 19.5832C7.0166 19.8144 7 20.0088 7 20.1964C7 22.5286 9.12505 24.4251 11.7375 24.4258V24.4251C14.3533 24.4251 16.4791 22.5286 16.4791 20.1971C16.4791 20.0088 16.4625 19.8144 16.4233 19.5832C16.3748 19.2843 16.1145 19.0645 15.8136 19.0645H15.5168L12.5032 11.0393L12.553 10.9073H19.1088V29.8367C19.1088 29.891 19.1194 29.9439 19.1394 29.9942H16.2705C15.8163 29.9942 15.4464 30.4445 15.4464 30.9974C15.4464 31.5496 15.8163 32 16.2705 32H23.6883C23.9061 32.002 24.1153 31.8968 24.27 31.7085C24.4248 31.5208 24.5117 31.2648 24.5124 30.9974C24.5124 30.4445 24.1432 29.9942 23.6883 29.9942H20.945C20.9656 29.9432 20.9762 29.8896 20.9762 29.834V10.9066H27.3394L27.3885 11.038L24.3756 19.0632H24.1863C23.8849 19.0632 23.6252 19.2836 23.5767 19.5825C23.5375 19.8131 23.5216 20.0081 23.5216 20.1957C23.5216 22.5279 25.646 24.4245 28.2585 24.4251V24.4245C30.8743 24.4245 33 22.5279 33 20.1964C32.9993 20.0081 32.9834 19.8137 32.9442 19.5825Z" fill="black"/>
</g>
</g>
</g>
</svg>
