<svg width="40" height="40" viewBox="0 0 40 40" fill="none" xmlns="http://www.w3.org/2000/svg">
<g id="&#231;&#188;&#150;&#231;&#187;&#132; 14">
<circle id="&#230;&#164;&#173;&#229;&#156;&#134;&#229;&#189;&#162;" cx="20" cy="20" r="20" fill="#FFDBC0"/>
<g id="&#231;&#188;&#150;&#231;&#187;&#132;">
<mask id="mask0_4784_1768" style="mask-type:luminance" maskUnits="userSpaceOnUse" x="8" y="10" width="24" height="21">
<path id="Clip 2" fill-rule="evenodd" clip-rule="evenodd" d="M8 10H32V31H8V10Z" fill="white"/>
</mask>
<g mask="url(#mask0_4784_1768)">
<path id="Fill 1" fill-rule="evenodd" clip-rule="evenodd" d="M28.1003 20.4529C28.2694 20.6222 28.364 20.8519 28.364 21.0912C28.364 21.3308 28.2694 21.5606 28.1003 21.7295L25.7099 24.1265C25.5415 24.2961 25.3127 24.3913 25.074 24.3913C24.8354 24.3913 24.6066 24.2961 24.4382 24.1265C24.269 23.9573 24.1741 23.7275 24.1741 23.4879C24.1741 23.2487 24.269 23.0189 24.4382 22.8497L26.1923 21.0909L24.4382 19.3317C24.2107 19.1037 24.1219 18.7713 24.205 18.46C24.2883 18.1483 24.531 17.905 24.8415 17.8217C25.1523 17.7381 25.4839 17.8268 25.7113 18.0548L28.1003 20.4529ZM15.5788 21.2254L13.8257 22.9832L15.5788 24.7424C15.9198 25.0962 15.9154 25.659 15.5683 26.0074C15.2215 26.3554 14.6602 26.3608 14.307 26.0189L11.9163 23.6222C11.7479 23.4533 11.653 23.2235 11.653 22.9846C11.653 22.7453 11.7479 22.5159 11.9163 22.3467L14.307 19.9513C14.6619 19.6264 15.209 19.6389 15.5493 19.9798C15.8893 20.3204 15.9022 20.8693 15.5788 21.2254ZM22.8674 16.9914L18.6386 28.2518C18.525 28.5536 18.2596 28.7718 17.942 28.8238C17.6247 28.8762 17.3034 28.7548 17.0997 28.505C16.896 28.2556 16.8404 27.9161 16.9539 27.6143L21.1814 16.3548C21.3669 15.9035 21.8763 15.6819 22.3322 15.8539C22.7878 16.0258 23.0247 16.5295 22.8674 16.9914ZM9.79987 29.194V15.2278H30.1988V29.1929H9.79987V29.194ZM9.79953 13.4242H30.1988V11.8044H9.79953V13.4242ZM30.3805 10H9.61853C8.72503 10.0007 8.00068 10.727 8 11.6232V29.3758C8 30.271 8.72571 31 9.61853 31H30.3805C31.2729 31 32 30.272 32 29.3758V11.6218C31.9976 10.7263 31.2733 10.0014 30.3805 10Z" fill="black"/>
</g>
</g>
</g>
</svg>
