<svg width="33" height="33" viewBox="0 0 33 33" fill="none" xmlns="http://www.w3.org/2000/svg">
<g id="&#231;&#188;&#150;&#231;&#187;&#132; 14">
<circle id="&#230;&#164;&#173;&#229;&#156;&#134;&#229;&#189;&#162;" cx="16.5" cy="16.5" r="16.5" fill="#C6D4FF"/>
<g id="finance_coin_unlock">
<g id="&#231;&#188;&#150;&#231;&#187;&#132;">
<mask id="mask0_4920_180" style="mask-type:luminance" maskUnits="userSpaceOnUse" x="5" y="5" width="22" height="22">
<path id="Clip 2" fill-rule="evenodd" clip-rule="evenodd" d="M5 5H27V27H5V5Z" fill="white"/>
</mask>
<g mask="url(#mask0_4920_180)">
<path id="Fill 1" fill-rule="evenodd" clip-rule="evenodd" d="M15.9989 27C9.93332 27 4.99805 22.0651 4.99805 16.0001C4.99805 9.93491 9.93332 5 15.9989 5C22.0644 5 26.9997 9.93491 26.9997 16.0001H25.6246C25.6246 10.6925 21.3067 6.37497 15.9989 6.37497C10.691 6.37497 6.37312 10.6925 6.37312 16.0001C6.37312 21.3075 10.691 25.625 15.9989 25.625V27Z" fill="black"/>
</g>
</g>
<path id="Fill 3" fill-rule="evenodd" clip-rule="evenodd" d="M17.8105 20H14.1895L13 18.9427V18H14.5V18.3907L14.8106 18.6667H17.1895L17.5 18.3907V16.9426L17.1895 16.6667H14.1895L13 15.6093V13.0573L14.1895 12H17.8105L19 13.0573V14H17.5V13.6093L17.1895 13.3333H14.8106L14.5 13.6093V15.0574L14.8106 15.3333H17.8105L19 16.3907V18.9427L17.8105 20Z" fill="black"/>
<path id="Fill 4" fill-rule="evenodd" clip-rule="evenodd" d="M15.6883 13.0579H17.0861V10.9922H15.6883V13.0579ZM15.6883 22.0091H17.0861V19.9435H15.6883V22.0091ZM21.1853 9.6884L20.4865 10.8811L19.2758 10.1927L19.9746 9L21.1853 9.6884ZM13.4977 22.8072L12.799 24L11.5882 23.3115L12.2871 22.1188L13.4977 22.8072ZM24 12.9665L22.7893 13.655L22.0906 12.4623L23.3012 11.7737L24 12.9665ZM10.6831 20.5404L9.47239 21.2289L8.77352 20.0361L9.9843 19.3477L10.6831 20.5404ZM8 17.1892H9.39797V15.8121H8V17.1892ZM10.6835 12.4615L9.98463 13.6543L8.77395 12.9658L9.47283 11.7731L10.6835 12.4615Z" fill="black"/>
<path id="Fill 5" fill-rule="evenodd" clip-rule="evenodd" d="M13 10.2681L11.7319 11L11 9.73192L12.268 9L13 10.2681Z" fill="black"/>
<path id="Fill 6" fill-rule="evenodd" clip-rule="evenodd" d="M16 24H17V22.6667H16V24ZM16 9.33343H17V8H16V9.33343Z" fill="black"/>
<path id="Fill 7" fill-rule="evenodd" clip-rule="evenodd" d="M19 27H27V21H19V27ZM20.3333 25.5H25.6667V22.5001H20.3333V25.5Z" fill="black"/>
<path id="Fill 8" fill-rule="evenodd" clip-rule="evenodd" d="M21 22H22.25V19.5001H21V22ZM26 19.5001H24.75C24.75 18.8106 24.1894 18.25 23.5001 18.25C22.8106 18.25 22.25 18.8106 22.25 19.5001H21C21 18.1212 22.1212 17 23.5001 17C24.8788 17 26 18.1212 26 19.5001Z" fill="black"/>
</g>
</g>
</svg>
