<svg width="33" height="33" viewBox="0 0 33 33" fill="none" xmlns="http://www.w3.org/2000/svg">
<g id="&#231;&#188;&#150;&#231;&#187;&#132; 14">
<circle id="&#230;&#164;&#173;&#229;&#156;&#134;&#229;&#189;&#162;" cx="16.5" cy="16.5" r="16.5" fill="#DAD4FF"/>
<g id="yingbi">
<mask id="mask0_4920_227" style="mask-type:luminance" maskUnits="userSpaceOnUse" x="6" y="6" width="21" height="21">
<path id="Clip 2" fill-rule="evenodd" clip-rule="evenodd" d="M6 6H27V27H6V6Z" fill="white"/>
</mask>
<g mask="url(#mask0_4920_227)">
<path id="Fill 1" fill-rule="evenodd" clip-rule="evenodd" d="M27 16.5854C27 15.1611 24.336 14 21 14C17.664 14 15 15.1643 15 16.5854V24.2831C15 26.0299 18 27 21 27C23.8646 27 26.7318 26.1574 27 24.543V16.5854ZM21.0035 15.2928C23.868 15.2928 25.4683 16.197 25.668 16.5854C25.4683 16.9738 23.868 17.8781 21.0035 17.8781C18.1397 17.8781 16.5395 16.9738 16.3397 16.5854C16.536 16.197 18.1354 15.2928 21.0035 15.2928ZM16.3354 18.2039C17.4034 18.7865 19.1357 19.174 21 19.174C22.8686 19.174 24.5314 18.7865 25.6646 18.2039V20.4009C25.6646 20.9176 23.8646 21.8261 21 21.8261C18.1997 21.8261 16.4682 20.9835 16.3354 20.4667V18.2039ZM21.0035 25.6415C18.204 25.6415 16.4717 24.7989 16.3397 24.2831V22.1477C17.4711 22.7962 19.2711 23.0521 21.0035 23.0521C22.7357 23.0521 24.5357 22.7303 25.668 22.082V24.1514C25.668 24.7331 23.868 25.6415 21.0035 25.6415Z" fill="black"/>
<path id="Fill 3" fill-rule="evenodd" clip-rule="evenodd" d="M14.0017 12.6171C16.8025 12.6171 19.2033 12.0214 20.6678 11.16V11.9571C20.6678 12.3548 20.9355 12.6206 21.2674 12.6206H21.3995C21.7322 12.6206 22 12.2914 22 11.9571V9.30855C22 7.4537 18.3991 6 14.0017 6C9.60417 6 6 7.45718 6 9.30855V20.6229C6.20037 22.6774 9.06861 24 13.3338 24C13.7339 24 14.0017 23.7342 14.0017 23.3366C14.0017 22.9397 13.7339 22.674 13.3338 22.674C9.4012 22.674 7.33223 21.4825 7.33223 20.358V17.3151C8.60042 18.1774 10.6653 18.6385 13.3338 18.6385C13.7339 18.6385 14.0016 18.3729 14.0016 17.9751C14.0016 17.5774 13.7339 17.3116 13.3338 17.3116C9.46866 17.3116 7.40039 16.2514 7.33223 15.1946V11.0957C8.80088 12.0214 11.2008 12.6171 14.0017 12.6171ZM14.0017 7.3226C18.4024 7.3226 20.6678 8.77969 20.6678 9.30855C20.6678 9.83652 18.4024 11.2945 14.0017 11.2945C9.60086 11.2945 7.33645 9.83744 7.33645 9.30855C7.33645 8.78061 9.60086 7.3226 14.0017 7.3226Z" fill="black"/>
</g>
</g>
</g>
</svg>
