<svg width="33" height="33" viewBox="0 0 33 33" fill="none" xmlns="http://www.w3.org/2000/svg">
<g id="&#231;&#188;&#150;&#231;&#187;&#132; 14">
<circle id="&#230;&#164;&#173;&#229;&#156;&#134;&#229;&#189;&#162;" cx="16.5" cy="16.5" r="16.5" fill="#FFDBC0"/>
<g id="shoucang1">
<mask id="mask0_4920_241" style="mask-type:luminance" maskUnits="userSpaceOnUse" x="6" y="6" width="22" height="21">
<path id="Clip 2" fill-rule="evenodd" clip-rule="evenodd" d="M6 6H28V27H6V6Z" fill="white"/>
</mask>
<g mask="url(#mask0_4920_241)">
<path id="Fill 1" fill-rule="evenodd" clip-rule="evenodd" d="M22.5955 26.9999C22.2857 26.9999 21.9376 26.9118 21.6148 26.7519L17.0065 24.4675L12.3698 26.7481C12.0761 26.9031 11.74 26.9845 11.3972 26.9845C10.9518 26.9862 10.5177 26.8453 10.1596 26.583C9.51066 26.1004 9.17809 25.2647 9.3316 24.5036L10.28 19.6277L6.6451 16.2701C6.08364 15.7063 5.86829 14.8885 6.07998 14.1247L6.08721 14.0999C6.3514 13.3149 7.00705 12.765 7.80181 12.6595L12.852 11.7494L15.1187 7.18659C15.4828 6.46426 16.2234 6 17.0065 6C17.8236 6 18.5833 6.48165 18.9017 7.19973L21.1612 11.748L26.2122 12.6232C27.0137 12.7383 27.6725 13.3088 27.8952 14.0804C28.1446 14.8389 27.941 15.672 27.3689 16.2331L27.3565 16.2455L23.7318 19.6283L24.648 24.5129C24.7954 25.2941 24.482 26.0831 23.8293 26.5749C23.4799 26.8533 23.0439 27.0035 22.5955 26.9999ZM17.0083 22.8213L21.9042 25.2479C22.048 25.3197 22.2138 25.3648 22.3272 25.3648C22.5017 25.3648 22.6637 25.3117 22.7828 25.2132L22.8049 25.1951C23.0831 24.9882 23.2188 24.6594 23.1579 24.3375L22.1726 19.0773L26.0696 15.4401C26.3088 15.1997 26.3906 14.8554 26.2845 14.5389L26.2738 14.5056C26.1881 14.199 25.926 13.9725 25.6078 13.9301L25.5855 13.9266L20.1934 12.9924L17.7666 8.10687C17.6489 7.83401 17.3291 7.63598 17.0062 7.63598C16.689 7.63598 16.3855 7.83276 16.2318 8.13677L13.8206 12.9902L8.40002 13.9661C8.07084 14.007 7.81504 14.2237 7.69692 14.5617C7.61303 14.8705 7.71246 15.2427 7.94148 15.4746L11.8429 19.0778L10.8191 24.3408C10.7574 24.6451 10.9029 24.9954 11.1719 25.1954C11.3068 25.296 11.4816 25.3513 11.6648 25.3513C11.806 25.3513 11.9415 25.3187 12.0581 25.2565L12.075 25.2467L17.0083 22.8213Z" fill="black"/>
</g>
</g>
</g>
</svg>
