<svg width="33" height="33" viewBox="0 0 33 33" fill="none" xmlns="http://www.w3.org/2000/svg">
<g id="&#231;&#188;&#150;&#231;&#187;&#132; 14">
<circle id="&#230;&#164;&#173;&#229;&#156;&#134;&#229;&#189;&#162;" cx="16.5" cy="16.5" r="16.5" fill="#98EDE0"/>
<g id="&#231;&#188;&#150;&#231;&#187;&#132;">
<g id="&#231;&#188;&#150;&#231;&#187;&#132;_2">
<mask id="mask0_4920_208" style="mask-type:luminance" maskUnits="userSpaceOnUse" x="6" y="6" width="21" height="21">
<path id="Clip 2" fill-rule="evenodd" clip-rule="evenodd" d="M6 6H26.5764V26.577H6V6Z" fill="white"/>
</mask>
<g mask="url(#mask0_4920_208)">
<path id="Fill 1" fill-rule="evenodd" clip-rule="evenodd" d="M16.288 7.286C14.981 7.286 13.72 7.404 12.535 7.64C11.412 7.863 10.41 8.178 9.56002 8.576C8.78302 8.939 8.16102 9.365 7.76402 9.806C7.44602 10.158 7.28602 10.499 7.28602 10.823C7.28602 11.146 7.44602 11.488 7.76402 11.835C8.16202 12.276 8.78302 12.702 9.56002 13.065C10.41 13.463 11.412 13.779 12.534 14.001C13.72 14.237 14.983 14.355 16.288 14.355C17.592 14.355 18.856 14.237 20.041 14.001C21.164 13.779 22.165 13.465 23.016 13.065C23.793 12.702 24.415 12.276 24.811 11.835C25.13 11.486 25.29 11.144 25.29 10.821C25.29 10.499 25.13 10.158 24.811 9.806C24.414 9.365 23.793 8.939 23.016 8.576C22.165 8.178 21.164 7.863 20.042 7.64C18.805 7.4 17.548 7.282 16.288 7.286ZM16.288 6C20.163 6 23.536 7.003 25.29 8.486C26.11 9.179 26.576 9.974 26.576 10.822V18.02C26.212 17.471 25.763 16.985 25.245 16.578C25.274 16.481 25.29 16.381 25.29 16.28V13.161C23.536 14.643 20.163 15.646 16.288 15.646C12.413 15.646 9.04002 14.642 7.28602 13.16V16.28C7.28602 16.602 7.44602 16.944 7.76402 17.295C8.16202 17.735 8.78302 18.161 9.56002 18.525C10.41 18.923 11.412 19.238 12.534 19.461C13.473 19.647 14.461 19.759 15.478 19.8C15.365 20.208 15.294 20.636 15.269 21.076C11.829 20.919 8.88502 19.966 7.28602 18.616V21.753C7.28602 22.078 7.44602 22.419 7.76402 22.769C8.16202 23.209 8.78302 23.635 9.56002 23.998C10.41 24.397 11.412 24.712 12.534 24.935C13.876 25.196 15.242 25.313 16.609 25.286C16.985 25.756 17.431 26.171 17.929 26.516C17.394 26.556 16.847 26.577 16.288 26.577C10.606 26.577 5.99902 24.416 5.99902 21.753V10.823C5.99902 9.975 6.46602 9.18 7.28602 8.487C9.04002 7.003 12.413 6 16.288 6Z" fill="black"/>
</g>
</g>
<g id="&#231;&#188;&#150;&#231;&#187;&#132;_3">
<path id="Fill 3" fill-rule="evenodd" clip-rule="evenodd" d="M8.44336 21.1137C8.44336 21.3857 8.58836 21.6377 8.82436 21.7747C9.06136 21.9117 9.35236 21.9117 9.58836 21.7747C9.82436 21.6377 9.97036 21.3857 9.96936 21.1137C9.96936 20.6917 9.62836 20.3497 9.20636 20.3497C8.78536 20.3497 8.44336 20.6917 8.44336 21.1137ZM8.44336 15.9217C8.44336 16.1937 8.58836 16.4457 8.82436 16.5827C9.06136 16.7177 9.35236 16.7177 9.58836 16.5827C9.82436 16.4457 9.97036 16.1937 9.96936 15.9217C9.96936 15.4997 9.62836 15.1577 9.20636 15.1577C8.78536 15.1577 8.44336 15.4997 8.44336 15.9217Z" fill="black"/>
<path id="Fill 5" fill-rule="evenodd" clip-rule="evenodd" d="M20.5982 16.7728C20.9342 16.7128 21.2552 16.9368 21.3142 17.2728C21.3742 17.6088 21.1502 17.9288 20.8142 17.9888C19.1472 18.2888 17.9332 19.7388 17.9332 21.4318C17.9332 21.7738 17.6572 22.0498 17.3162 22.0498C16.9752 22.0498 16.6992 21.7738 16.6992 21.4318C16.6992 19.1298 18.3552 17.1728 20.5982 16.7728ZM25.8832 23.0398C25.8112 23.2508 25.6302 23.4048 25.4102 23.4448C25.1922 23.4848 24.9682 23.4038 24.8262 23.2328C24.6832 23.0618 24.6442 22.8268 24.7232 22.6188C25.2972 21.0258 24.6472 19.2498 23.1802 18.4028C22.9852 18.2938 22.8642 18.0888 22.8622 17.8658C22.8612 17.6428 22.9802 17.4358 23.1742 17.3258C23.3692 17.2148 23.6072 17.2178 23.7982 17.3338C25.7832 18.4798 26.6612 20.8828 25.8832 23.0398ZM17.8142 24.4838C17.6642 24.3158 17.6182 24.0808 17.6922 23.8678C17.7672 23.6558 17.9512 23.5018 18.1732 23.4638C18.3942 23.4268 18.6192 23.5128 18.7592 23.6898C19.8512 24.9828 21.7142 25.3078 23.1802 24.4608C23.4762 24.2908 23.8542 24.3918 24.0242 24.6878C24.1952 24.9828 24.0932 25.3608 23.7982 25.5318C21.8132 26.6768 19.2922 26.2358 17.8142 24.4838Z" fill="black"/>
</g>
<path id="Fill 7" fill-rule="evenodd" clip-rule="evenodd" d="M20.6709 21.434C20.6709 21.707 20.8169 21.959 21.0519 22.096C21.2889 22.232 21.5799 22.232 21.8159 22.096C22.0519 21.959 22.1979 21.707 22.1979 21.434C22.1979 21.013 21.8559 20.671 21.4339 20.671C21.0129 20.671 20.6709 21.013 20.6709 21.434Z" fill="black"/>
</g>
</g>
</svg>
