<svg width="40" height="40" viewBox="0 0 40 40" fill="none" xmlns="http://www.w3.org/2000/svg">
<g id="&#231;&#188;&#150;&#231;&#187;&#132; 14">
<circle id="&#230;&#164;&#173;&#229;&#156;&#134;&#229;&#189;&#162;" cx="20" cy="20" r="20" fill="#98EDE0"/>
<g id="&#231;&#188;&#150;&#231;&#187;&#132;">
<mask id="mask0_4784_97" style="mask-type:luminance" maskUnits="userSpaceOnUse" x="10" y="8" width="21" height="24">
<path id="Clip 2" fill-rule="evenodd" clip-rule="evenodd" d="M10 8H30.9999V31.5099H10V8Z" fill="white"/>
</mask>
<g mask="url(#mask0_4784_97)">
<path id="Fill 1" fill-rule="evenodd" clip-rule="evenodd" d="M26.496 24.015C26.39 24.172 26.225 24.124 26.225 23.838C26.286 22.281 25.566 20.983 24.13 20.037L23.632 19.712C23.193 20.382 22.845 20.91 22.765 21.036C22.505 21.429 22.014 21.494 21.833 20.994L20.158 16.38C19.975 15.878 20.262 15.441 20.791 15.41L25.732 15.109C26.264 15.078 26.425 15.462 26.117 15.931C26.022 16.073 25.701 16.563 25.293 17.186L25.353 17.226C27.43 18.586 27.77 22.01 26.496 24.015ZM21.115 27.412L16.19 27.933C15.663 27.988 15.483 27.611 15.769 27.127L16.538 25.838L16.477 25.801C14.341 24.528 13.85 21.125 15.037 19.064C15.134 18.901 15.302 18.942 15.311 19.231C15.32 20.786 16.097 22.054 17.572 22.936L18.085 23.24L18.896 21.88C19.138 21.475 19.625 21.387 19.83 21.88L21.71 26.416C21.912 26.911 21.646 27.358 21.115 27.414V27.412ZM20.502 9.983C21.054 9.983 21.563 10.277 21.84 10.754C22.116 11.232 22.116 11.821 21.84 12.298C21.565 12.777 21.055 13.072 20.503 13.072C19.651 13.072 18.96 12.381 18.959 11.529C18.958 10.677 19.649 9.985 20.502 9.985V9.983ZM28.653 10.349H23.812C23.319 8.943 21.992 8.001 20.502 8C19.012 8.002 17.686 8.944 17.191 10.349H12.349C11.053 10.349 10 11.402 10 12.7V29.161C10 30.459 11.053 31.51 12.349 31.51H28.651C29.947 31.51 31 30.459 31 29.161V12.7C31.001 12.077 30.754 11.479 30.313 11.037C29.873 10.597 29.276 10.349 28.653 10.349Z" fill="black"/>
</g>
</g>
</g>
</svg>
