<svg width="40" height="40" viewBox="0 0 40 40" fill="none" xmlns="http://www.w3.org/2000/svg">
<g id="&#231;&#188;&#150;&#231;&#187;&#132; 14">
<circle id="&#230;&#164;&#173;&#229;&#156;&#134;&#229;&#189;&#162;" cx="20" cy="20" r="20" fill="#C6D4FF"/>
<g id="jiedian">
<mask id="mask0_4784_77" style="mask-type:luminance" maskUnits="userSpaceOnUse" x="8" y="8" width="24" height="24">
<path id="Clip 2" fill-rule="evenodd" clip-rule="evenodd" d="M8 8H32V32H8V8Z" fill="white"/>
</mask>
<g mask="url(#mask0_4784_77)">
<path id="Fill 1" fill-rule="evenodd" clip-rule="evenodd" d="M31.9952 11.04C31.973 10.6803 31.885 10.3278 31.7354 9.99998C31.6566 9.79259 31.549 9.59736 31.4157 9.41999C30.899 8.59933 30.0241 8.07257 29.0577 8H28.1585C27.4337 8.20807 26.7824 8.61717 26.28 9.17999V9.28001C25.3371 10.6268 25.552 12.467 26.7796 13.56L24.2417 20.8C23.7131 20.7555 23.1822 20.8521 22.7031 21.08L18.9462 17.28C18.9462 17.1401 18.9462 17.02 19.0862 16.88C19.5296 15.2685 18.659 13.5869 17.0878 13.02C16.4377 12.8132 15.7395 12.8132 15.0895 13.02C14.3865 13.2356 13.775 13.6788 13.351 14.2799C12.4734 15.5047 12.5821 17.1793 13.6108 18.28L11.0529 25.6C10.7678 25.6205 10.4862 25.6743 10.2136 25.76C9.10562 26.1103 8.26802 27.0249 8.01543 28.1601C7.99486 28.3729 7.99486 28.5871 8.01543 28.8C8.01543 30.5673 9.44693 32 11.2127 32C12.9786 32 14.41 30.5673 14.41 28.8C14.3977 27.9247 14.0382 27.0901 13.4109 26.4801H13.311L15.8089 19.2C16.251 19.2235 16.6932 19.1554 17.1078 19H17.2277L21.0245 22.8601C20.9621 23.0372 20.9087 23.2175 20.8645 23.4C20.8265 23.5977 20.8065 23.7986 20.8047 24C20.8047 25.7673 22.2361 27.2 24.0019 27.2C25.7678 27.2 27.1993 25.7673 27.1993 24C27.2037 23.5727 27.1151 23.1496 26.9395 22.76C26.8158 22.4311 26.6252 22.1314 26.38 21.88L28.9578 14.4H29.3575C30.9547 14.1012 32.083 12.6638 31.9952 11.04Z" fill="black"/>
</g>
</g>
</g>
</svg>
