<svg width="40" height="40" viewBox="0 0 40 40" fill="none" xmlns="http://www.w3.org/2000/svg">
<g id="&#231;&#188;&#150;&#231;&#187;&#132; 14">
<circle id="&#230;&#164;&#173;&#229;&#156;&#134;&#229;&#189;&#162;" cx="20" cy="20" r="20" fill="#FFEAC6"/>
<path id="bitebi" fill-rule="evenodd" clip-rule="evenodd" d="M26.6134 18.9899C28.1489 18.1896 28.9838 16.4936 28.6759 14.8001C28.3809 12.2 25.1379 11.1886 22.6365 10.9V7H20.1317V10.9H18.5122V7H16.0082V10.9H11V13.5H12.9145C13.7982 13.5 14.0937 13.7887 14.0937 14.3665V25.2001C14.1544 25.4974 14.0711 25.8057 13.8684 26.0328C13.6657 26.26 13.3673 26.3795 13.0625 26.3557H11.2935L11.1461 28.9557H16.0068V33H18.5108V28.957H20.1311V33H22.6359V28.957H23.2255C28.3809 28.957 30 26.5 30 23.1785C30 19.857 26.6121 18.9893 26.6121 18.9893L26.6134 18.9899ZM19 13H20.9451C22.2418 13 24.9937 13.1514 24.9937 15.273C25.0921 16.653 24.0178 17.8588 22.5637 18H19V13ZM21.8903 27H19V21H22.3464C23.1075 21 26 21.333 26 23.5006C26 25.6679 24.6312 27 21.8924 27H21.8903Z" fill="#0E111F"/>
</g>
</svg>
