<svg width="48" height="48" viewBox="0 0 48 48" fill="none" xmlns="http://www.w3.org/2000/svg">
<path id="Fill 1" fill-rule="evenodd" clip-rule="evenodd" d="M36.7686 3.68004C47.9874 10.7289 51.3707 25.5453 44.3182 36.7677C37.2691 47.9864 22.4523 51.3697 11.2334 44.3209C0.0106594 37.2682 -3.36883 22.4557 3.68015 11.2294C10.7292 0.0109043 25.5496 -3.3685 36.7686 3.68004ZM27.9088 17L24 20.7462C25.035 21.8108 25.9162 22.6646 26.6948 23.2206C27.419 23.7364 28.0843 23.9762 28.6693 23.9981C29.2873 24.0235 29.8211 23.7981 30.3953 23.2497C30.9364 22.7336 31.079 22.0177 30.9618 21.3566C30.6511 19.6088 28.8778 17.9994 27.9088 17ZM22.2603 23L18 27.092L19.1583 28.2673C20.1173 29.2442 21.2866 30.286 22.4593 30.7404C23.4656 31.1297 24.4104 31.1621 25.3369 30.2681C25.8943 29.7346 26.0608 29.0711 25.9813 28.3716C25.8401 27.0847 24.8445 25.6605 23.8023 24.5863L22.2603 23ZM10 23.2299L13.8252 27.2087L10.5215 30.3996L12.351 32.3018L15.6546 29.1111L17.2158 30.7366L13.9121 33.9276L15.7416 35.83L19.0452 32.6391C23.5963 37.2397 26.8621 36.4439 29.1452 34.2382C31.878 31.5971 30.8575 29.2778 29.9729 27.8074C31.7269 28.3758 33.1027 28.2622 34.7432 26.6782C37.189 24.3174 35.8922 20.9713 33.7642 18.4131L37 15.2832L35.1703 13.3807L31.9613 16.4843L30.4002 14.8587L33.6094 11.755L31.7799 9.85278L28.5707 12.9563L24.768 9L22.7384 10.9592L24.235 12.513C24.7643 13.0662 24.7492 13.953 24.1974 14.4835L15.4393 22.953C15.065 23.3131 14.4678 23.3055 14.1087 22.9302L12.661 21.4258L10 23.2299Z" fill="#FFBD4B"/>
</svg>
