<svg width="48" height="48" viewBox="0 0 48 48" fill="none" xmlns="http://www.w3.org/2000/svg">
<g id="gas-pump (1)">
<mask id="mask0_5001_62" style="mask-type:luminance" maskUnits="userSpaceOnUse" x="0" y="0" width="48" height="48">
<path id="Clip 2" fill-rule="evenodd" clip-rule="evenodd" d="M0 0H48V48H0V0Z" fill="white"/>
</mask>
<g mask="url(#mask0_5001_62)">
<path id="Fill 1" fill-rule="evenodd" clip-rule="evenodd" d="M44.4205 19.0401L45.2523 18.208C45.8725 17.584 45.8725 16.5762 45.2523 15.9519L35.6549 6.35206C35.0311 5.73169 34.0233 5.73169 33.3994 6.35206L32.5036 7.24806C32.2008 7.54831 32.0306 7.95725 32.0306 8.38406C32.0306 8.81056 32.2008 9.2195 32.5036 9.52L34.8709 11.8879C35.4912 12.5119 35.4912 13.52 34.8709 14.1441L32.9996 16C32.3794 16.624 32.3794 17.6318 32.9996 18.2561L37.5905 22.8479C38.2385 23.4768 39.2531 23.5247 39.9578 22.9599L40.7256 22.3201C42.3251 25.52 44.8845 31.4561 41.5895 34.416C38.9981 36.7519 33.5915 35.0879 28.7927 33.0081V4.80006C28.7927 2.14894 26.6441 0 23.9939 0H7.99795C5.34775 0 3.19912 2.14894 3.19912 4.80006V43.1999C1.43226 43.1999 0 44.6326 0 46.3999C0 47.2837 0.716129 48 1.59972 48H30.3921C31.2757 48 31.9918 47.2837 31.9918 46.3999C31.9337 44.6572 30.5349 43.2581 28.7927 43.1999V38.1919C31.7155 39.4114 34.8273 40.1152 37.9903 40.272C40.4699 40.3789 42.8982 39.5447 44.7886 37.9361C51.0748 32.2881 46.564 22.7361 44.4205 19.0401ZM7.99795 19.1999V9.60013C7.99795 8.71631 8.71408 8 9.59767 8H22.3941C23.2777 8 23.9939 8.71631 23.9939 9.60013V19.1999C23.9939 20.0837 23.2777 20.8001 22.3941 20.8001H9.59767C8.71408 20.8001 7.99795 20.0837 7.99795 19.1999Z" fill="#8CA8FF"/>
</g>
</g>
</svg>
