<svg width="48" height="48" viewBox="0 0 48 48" fill="none" xmlns="http://www.w3.org/2000/svg">
<g id="a-ziyuan590">
<g id="&#231;&#188;&#150;&#231;&#187;&#132;">
<mask id="mask0_5001_68" style="mask-type:luminance" maskUnits="userSpaceOnUse" x="0" y="0" width="48" height="48">
<path id="Clip 2" fill-rule="evenodd" clip-rule="evenodd" d="M0 0H48V48H0V0Z" fill="white"/>
</mask>
<g mask="url(#mask0_5001_68)">
<path id="Fill 1" fill-rule="evenodd" clip-rule="evenodd" d="M23.9985 0C10.7425 0 -0.00341797 10.7451 -0.00341797 24.0001C-0.00341797 37.2549 10.7425 48 23.9985 48C37.2542 48 48.0001 37.2549 48.0001 24.0001C48.0001 10.7451 37.2542 0 23.9985 0ZM36.5666 12.0983L32.2026 30.8945C32.0942 31.3681 31.7403 31.7468 31.2754 31.8874L13.1649 37.5163C13.0347 37.5602 12.8985 37.5822 12.7611 37.5818C12.3335 37.5774 11.9325 37.3742 11.6759 37.0322C11.4193 36.69 11.3365 36.2481 11.452 35.8363L17.2997 15.6219C17.4309 15.1573 17.8017 14.7988 18.2707 14.6837L34.9082 10.4618C35.369 10.3416 35.8589 10.4743 36.1956 10.811C36.5305 11.1488 36.6703 11.6339 36.5666 12.0983Z" fill="#75ECDA"/>
</g>
</g>
<path id="Fill 3" fill-rule="evenodd" clip-rule="evenodd" d="M14 35L30.0142 30.024L34 13L19.2873 16.7231L14 35ZM23.5002 22C24.5112 22 25.4228 22.6092 25.8097 23.5435C26.1965 24.4775 25.9828 25.5529 25.2677 26.2677C24.5529 26.9828 23.4775 27.1965 22.5435 26.8097C21.6092 26.4228 21 25.5112 21 24.5002C21 23.1194 22.1194 22 23.5002 22Z" fill="#75ECDA"/>
</g>
</svg>
