<svg width="48" height="48" viewBox="0 0 48 48" fill="none" xmlns="http://www.w3.org/2000/svg">
<g id="yingyong (3)">
<mask id="mask0_5001_77" style="mask-type:luminance" maskUnits="userSpaceOnUse" x="0" y="0" width="48" height="48">
<path id="Clip 2" fill-rule="evenodd" clip-rule="evenodd" d="M0 0H48V48H0V0Z" fill="white"/>
</mask>
<g mask="url(#mask0_5001_77)">
<path id="Fill 1" fill-rule="evenodd" clip-rule="evenodd" d="M15.6268 0H4.46481C1.99918 0 0 1.99771 0 4.46137V15.6148C0 18.0785 1.99918 20.0761 4.46481 20.0761H15.6268C18.0924 20.0761 20.0915 18.0785 20.0915 15.6148V4.46137C20.0915 1.99771 18.0924 0 15.6268 0ZM41.3689 0H30.2069C27.7412 0 25.7421 1.99771 25.7421 4.46137V15.6148C25.7421 18.0785 27.7412 20.0761 30.2069 20.0761H41.3689C43.8344 20.0761 45.8336 18.0785 45.8336 15.6148V4.46137C45.8336 1.99771 43.8344 0 41.3689 0ZM15.6268 25.7398H4.46481C1.99918 25.7398 0 27.7375 0 30.2011V41.3545C0 43.8183 1.99918 45.8159 4.46481 45.8159H15.6268C18.0924 45.8159 20.0915 43.8183 20.0915 41.3545V30.2011C20.0915 27.7375 18.0924 25.7398 15.6268 25.7398ZM46.8058 33.5231L39.4646 25.9947C37.8426 24.3305 35.1786 24.2949 33.5119 25.9162L25.9753 33.252C24.3125 34.8726 24.2777 37.5348 25.8992 39.1991L33.2415 46.7286C34.8635 48.3929 37.5287 48.4276 39.1931 46.8071L46.7287 39.4701C48.3942 37.8483 48.4268 35.1862 46.8058 33.5231Z" fill="#C0B6FF"/>
</g>
</g>
</svg>
