<svg width="40" height="40" viewBox="0 0 40 40" fill="none" xmlns="http://www.w3.org/2000/svg">
<g id="&#231;&#188;&#150;&#231;&#187;&#132; 14">
<circle id="&#230;&#164;&#173;&#229;&#156;&#134;&#229;&#189;&#162;" cx="20" cy="20" r="20" fill="#8979FF"/>
<g id="&#231;&#188;&#150;&#231;&#187;&#132; 14_2">
<circle id="&#230;&#164;&#173;&#229;&#156;&#134;&#229;&#189;&#162;_2" cx="20" cy="20" r="20" fill="#8979FF"/>
<path id="kaifazhezhongxinSDKxiazai" fill-rule="evenodd" clip-rule="evenodd" d="M29.6788 27.4173H24.7507C24.1319 27.4286 23.5353 27.1817 23.0979 26.7336C22.6605 26.2853 22.4199 25.6741 22.4315 25.0406V22.6659H24.7507C25.0597 22.6659 25.2921 22.5086 25.4475 22.1921C25.5811 21.9095 25.5516 21.5746 25.3708 21.3212L20.7285 15.7776C20.5914 15.5911 20.3768 15.4815 20.1487 15.4815C19.9209 15.4815 19.7061 15.5911 19.5689 15.7776L14.9307 21.3212C14.6983 21.5572 14.6983 21.8755 14.8538 22.1921C14.9307 22.5067 15.161 22.6659 15.472 22.6659H17.7912V25.0406C17.7912 26.3872 16.7852 27.4173 15.472 27.4173H10.3191C9.85645 27.4173 9.54551 27.1008 9.54551 26.625V12.3728C9.54551 11.901 9.85645 11.5826 10.3191 11.5826H29.6788C30.1415 11.5826 30.4507 11.8991 30.4507 12.3748V14.7475C30.4507 15.2232 30.7617 15.5398 31.2244 15.5398C31.689 15.5398 31.9981 15.2232 31.9981 14.7475V12.3748C31.9981 11.0282 30.992 10 29.6788 10H10.3191C9.00595 10 8 11.0282 8 12.3748V26.625C8 27.9716 9.00595 28.9998 10.3191 28.9998H15.474C16.5022 29.0099 17.4913 28.5959 18.2182 27.8511C18.9452 27.1064 19.349 26.0935 19.3386 25.0406V21.8755C19.3386 21.3998 19.0314 21.0834 18.5649 21.0834H17.1769L20.1143 17.5212L23.0516 21.0834H21.6597C21.197 21.0834 20.8879 21.3979 20.8879 21.8755V25.0406C20.8879 27.2581 22.5888 28.9998 24.7525 28.9998H29.6808C30.9939 28.9998 32 27.9716 32 26.625V17.9164C32 17.4407 31.6909 17.1243 31.2263 17.1243C30.7636 17.1243 30.4526 17.4407 30.4526 17.9164V26.625C30.4526 27.1008 30.1454 27.4173 29.6808 27.4173H29.6788Z" fill="white"/>
</g>
</g>
</svg>
