<svg width="40" height="40" viewBox="0 0 40 40" fill="none" xmlns="http://www.w3.org/2000/svg">
<g id="&#231;&#188;&#150;&#231;&#187;&#132; 14">
<circle id="&#230;&#164;&#173;&#229;&#156;&#134;&#229;&#189;&#162;" cx="20" cy="20" r="20" fill="#8979FF"/>
<g id="tubiao_jinbi (2)">
<mask id="mask0_4666_1291" style="mask-type:luminance" maskUnits="userSpaceOnUse" x="9" y="8" width="22" height="24">
<path id="Clip 2" fill-rule="evenodd" clip-rule="evenodd" d="M9 8H31V32H9V8Z" fill="white"/>
</mask>
<g mask="url(#mask0_4666_1291)">
<path id="Fill 1" fill-rule="evenodd" clip-rule="evenodd" d="M17.8929 16.7C20.6364 16.7 23.488 16.0818 25.1999 14.9045V17.0502H26.7861V12.3501C26.7862 9.52458 22.2041 8 17.8929 8C13.5817 8 9 9.52458 9 12.3503V25.1725C9 27.998 13.5819 29.5225 17.8931 29.5225V27.8971C13.3659 27.8971 10.5862 26.3101 10.5862 25.1725V21.3159C12.2984 22.493 15.1497 23.1115 17.8931 23.1115V21.486C13.3659 21.486 10.5862 19.899 10.5862 18.7612V14.9047C12.298 16.0818 15.1493 16.7 17.8929 16.7ZM17.8929 9.62542C22.4203 9.62542 25.1999 11.2125 25.1999 12.3501C25.1999 13.4878 22.4203 15.0748 17.8929 15.0748C13.3659 15.0748 10.5861 13.4878 10.5861 12.3501C10.5861 11.2125 13.3659 9.62542 17.8929 9.62542ZM25.0018 17.5885C21.0639 17.5885 19.0035 19.1411 19.0035 20.6744V28.9141C19.0035 30.4476 21.0639 32 25.0018 32C28.9101 32 30.968 30.4706 30.9984 28.9483H31V20.6744C30.9999 19.141 28.9397 17.5885 25.0018 17.5885ZM25.0018 19.2141C27.9127 19.2141 29.4138 20.2375 29.4138 20.6744C29.4138 21.1114 27.9127 22.1351 25.0018 22.1351C22.0907 22.1351 20.5896 21.1115 20.5896 20.6744C20.5896 20.2375 22.091 19.2141 25.0018 19.2141ZM25.0018 30.3741C22.0907 30.3741 20.5896 29.3504 20.5896 28.9137V26.9467C21.5962 27.5069 23.0732 27.8798 25.0018 27.8798C26.9303 27.8798 28.4074 27.5067 29.4138 26.9467V28.9137C29.4138 29.3504 27.9127 30.3741 25.0018 30.3741ZM25.0018 26.2544C22.0907 26.2544 20.5896 25.2309 20.5896 24.7941V22.8271C21.5962 23.3872 23.0732 23.7603 25.0018 23.7603C26.9303 23.7603 28.4074 23.3875 29.4138 22.8273V24.7943C29.4138 25.2309 27.9127 26.2545 25.0018 26.2545V26.2544Z" fill="white"/>
</g>
</g>
</g>
</svg>
