<svg width="40" height="40" viewBox="0 0 40 40" fill="none" xmlns="http://www.w3.org/2000/svg">
<g id="&#231;&#188;&#150;&#231;&#187;&#132; 14">
<circle id="&#230;&#164;&#173;&#229;&#156;&#134;&#229;&#189;&#162;" cx="20" cy="20" r="20" fill="#8979FF"/>
<g id="guanli (1)">
<mask id="mask0_4666_1268" style="mask-type:luminance" maskUnits="userSpaceOnUse" x="9" y="9" width="23" height="23">
<path id="Clip 2" fill-rule="evenodd" clip-rule="evenodd" d="M9 9H32V32H9V9Z" fill="white"/>
</mask>
<g mask="url(#mask0_4666_1268)">
<path id="Fill 1" fill-rule="evenodd" clip-rule="evenodd" d="M17.625 9H10.9167C9.86247 9 9 9.86247 9 10.9167V17.625C9 18.6792 9.86247 19.5416 10.9167 19.5416H17.625C18.6792 19.5416 19.5416 18.6792 19.5416 17.625V10.9167C19.5416 9.86247 18.6792 9 17.625 9ZM10.9167 17.625H17.625V10.9167H10.9167V17.625ZM17.6609 18.5833V17.625V18.5833ZM30.0834 9H23.375C22.3208 9 21.4584 9.86247 21.4584 10.9167V17.625C21.4584 18.6792 22.3208 19.5416 23.375 19.5416H30.0834C31.1375 19.5416 32 18.6792 32 17.625V10.9167C32 9.86247 31.1375 9 30.0834 9ZM23.375 17.625H30.0834V10.9167H23.375V17.625ZM17.625 21.4584H10.9167C9.86247 21.4584 9 22.3208 9 23.375V30.0834C9 31.1375 9.86247 32 10.9167 32H17.625C18.6792 32 19.5416 31.1375 19.5416 30.0834V23.375C19.5416 22.3208 18.6792 21.4584 17.625 21.4584ZM10.9167 30.0834H17.625V23.375H10.9167V30.0834ZM17.6609 31.0417V30.0834V31.0417ZM30.0834 21.4584H23.375C22.3208 21.4584 21.4584 22.3208 21.4584 23.375V30.0834C21.4584 31.1375 22.3208 32 23.375 32H30.0834C31.1375 32 32 31.1375 32 30.0834V23.375C32 22.3208 31.1375 21.4584 30.0834 21.4584ZM23.375 30.0834H30.0834V23.375H23.375V30.0834Z" fill="white"/>
</g>
</g>
</g>
</svg>
