<svg width="40" height="40" viewBox="0 0 40 40" fill="none" xmlns="http://www.w3.org/2000/svg">
<g id="&#231;&#188;&#150;&#231;&#187;&#132; 14">
<circle id="&#230;&#164;&#173;&#229;&#156;&#134;&#229;&#189;&#162;" cx="20" cy="20" r="20" fill="#8979FF"/>
<g id="yonghu-yuan">
<g id="&#231;&#188;&#150;&#231;&#187;&#132;">
<mask id="mask0_4666_1168" style="mask-type:luminance" maskUnits="userSpaceOnUse" x="6" y="6" width="28" height="28">
<path id="Clip 2" fill-rule="evenodd" clip-rule="evenodd" d="M6 6H34V34H6V6Z" fill="white"/>
</mask>
<g mask="url(#mask0_4666_1168)">
<path id="Fill 1" fill-rule="evenodd" clip-rule="evenodd" d="M19.9991 6C12.2666 6 5.99805 12.268 5.99805 19.9999C5.99805 27.732 12.2666 34 19.9991 34C27.7319 34 34.0004 27.732 34.0004 19.9999C34.0004 12.268 27.7319 6 19.9991 6ZM19.9991 32C18.3782 32 16.8067 31.6829 15.3285 31.0578C14.2031 30.5819 13.1681 29.9431 12.2403 29.1547C12.6209 28.1553 13.56 27.1587 14.8725 26.3766C16.4007 25.4659 18.2769 24.9436 20.0201 24.9436C21.7586 24.9436 23.6271 25.4642 25.1463 26.3718C26.4514 27.1515 27.3867 28.1472 27.7673 29.147C26.837 29.9389 25.799 30.5802 24.6699 31.0578C23.1917 31.6829 21.6202 32 19.9991 32ZM29.2583 27.6357C28.6179 26.5127 27.5597 25.4839 26.1723 24.6551C24.3251 23.5514 22.1401 22.9436 20.0201 22.9436C17.896 22.9436 15.7042 23.5526 13.8486 24.6584C12.4533 25.4899 11.3903 26.5208 10.7485 27.6455C10.0035 26.7469 9.39723 25.7502 8.94048 24.6703C8.31527 23.1922 7.99817 21.6209 7.99817 19.9999C7.99817 18.3791 8.31527 16.8078 8.94048 15.3297C9.54478 13.9008 10.4105 12.6174 11.5132 11.5147C12.616 10.4119 13.8997 9.54644 15.3285 8.94218C16.8067 8.31691 18.3782 7.99996 19.9993 7.99996C21.6202 7.99996 23.1917 8.31691 24.6699 8.94218C26.0987 9.54644 27.3824 10.4119 28.4853 11.5147C29.5881 12.6174 30.4537 13.9008 31.0579 15.3297C31.6831 16.8078 32.0003 18.3791 32.0003 19.9999C32.0003 21.6209 31.6831 23.1922 31.0579 24.6703C30.6029 25.7462 29.9995 26.7397 29.2583 27.6357Z" fill="white"/>
</g>
</g>
<path id="Fill 3" fill-rule="evenodd" clip-rule="evenodd" d="M20 11C17.243 11 15 13.243 15 16C15 18.757 17.243 21 20 21C22.757 21 25 18.7571 25 16C25 13.243 22.757 11 20 11ZM20 19C18.3458 19 17 17.6542 17 16C17 14.3458 18.3458 13 20 13C21.6542 13 23 14.3458 23 16C23 17.6542 21.6542 19 20 19Z" fill="white"/>
</g>
</g>
</svg>
