<svg width="40" height="40" viewBox="0 0 40 40" fill="none" xmlns="http://www.w3.org/2000/svg">
<g id="&#231;&#188;&#150;&#231;&#187;&#132; 14">
<circle id="&#230;&#164;&#173;&#229;&#156;&#134;&#229;&#189;&#162;" cx="20" cy="20" r="20" fill="#8979FF"/>
<g id="zhihuihuanbao_chengbenbaobiao">
<g id="&#231;&#188;&#150;&#231;&#187;&#132;">
<mask id="mask0_4666_1199" style="mask-type:luminance" maskUnits="userSpaceOnUse" x="10" y="8" width="20" height="24">
<path id="Clip 2" fill-rule="evenodd" clip-rule="evenodd" d="M10 8H30V32H10V8Z" fill="white"/>
</mask>
<g mask="url(#mask0_4666_1199)">
<path id="Fill 1" fill-rule="evenodd" clip-rule="evenodd" d="M24.9493 8H15.0491C14.5898 8 14.2177 8.37869 14.2177 8.84608V10.0789H10.8294C10.3702 10.0789 9.99805 10.4576 9.99805 10.9249V31.1539C9.99805 31.6212 10.3702 32 10.8294 32H29.1687C29.628 32 30.0001 31.6212 30.0001 31.1539V10.9249C30.0001 10.4576 29.628 10.0789 29.1687 10.0789H25.7807V8.84608C25.7807 8.37869 25.4084 8 24.9493 8ZM15.8804 11.5022H24.1179V9.69216H15.8804V11.5022ZM28.3373 11.771V30.3078H11.6608V11.771H14.2177V12.348C14.2177 12.8154 14.5898 13.1941 15.0491 13.1941H24.9493C25.4084 13.1941 25.7807 12.8154 25.7807 12.348V11.771H28.3373Z" fill="white"/>
</g>
</g>
<path id="Fill 3" fill-rule="evenodd" clip-rule="evenodd" d="M14.8925 22.8903C14.3996 22.8903 14 23.2506 14 23.6952V27.1952C14 27.6398 14.3996 28 14.8925 28C15.3856 28 15.7851 27.6398 15.7851 27.1952V23.6952C15.7851 23.2506 15.3856 22.8903 14.8925 22.8903ZM18.631 20.4468C18.1379 20.4468 17.7384 20.8071 17.7384 21.2517V27.1952C17.7384 27.6398 18.1379 28 18.631 28C19.1239 28 19.5235 27.6398 19.5235 27.1952V21.2517C19.5235 20.8071 19.1239 20.4468 18.631 20.4468ZM22.3692 23.7279C21.8762 23.7279 21.4766 24.0882 21.4766 24.5328V27.1952C21.4766 27.6398 21.8762 28 22.3692 28C22.8621 28 23.2617 27.6398 23.2617 27.1952V24.5328C23.2617 24.0882 22.8621 23.7279 22.3692 23.7279ZM26.1075 19C25.6144 19 25.2149 19.3602 25.2149 19.8048V27.1952C25.2149 27.6398 25.6144 28 26.1075 28C26.6004 28 27 27.6398 27 27.1952V19.8048C27 19.3602 26.6004 19 26.1075 19Z" fill="white"/>
</g>
</g>
</svg>
