<svg width="40" height="40" viewBox="0 0 40 40" fill="none" xmlns="http://www.w3.org/2000/svg">
<g id="&#231;&#188;&#150;&#231;&#187;&#132; 14">
<circle id="&#230;&#164;&#173;&#229;&#156;&#134;&#229;&#189;&#162;" cx="20" cy="20" r="20" fill="#8979FF"/>
<g id="shequ">
<g id="&#231;&#188;&#150;&#231;&#187;&#132;">
<mask id="mask0_4666_1244" style="mask-type:luminance" maskUnits="userSpaceOnUse" x="8" y="9" width="24" height="23">
<path id="Clip 2" fill-rule="evenodd" clip-rule="evenodd" d="M8 9H32V32H8V9Z" fill="white"/>
</mask>
<g mask="url(#mask0_4666_1244)">
<path id="Fill 1" fill-rule="evenodd" clip-rule="evenodd" d="M28.0389 28.04C30.3852 27.2895 32.0001 25.1206 32.0001 22.6697C32.0001 20.6575 30.9154 18.802 29.1587 17.7891C29.0807 15.45 28.1159 13.2633 26.4313 11.6158C24.7065 9.92893 22.4222 9 19.999 9C17.5756 9 15.2911 9.92919 13.5661 11.6163C11.8815 13.2641 10.9169 15.4513 10.8393 17.7905C9.08268 18.8038 7.99805 20.6587 7.99805 22.6695C7.99805 25.1204 9.61373 27.2892 11.9615 28.0397L10.7182 32H12.5167L12.984 30.6099L14.1896 26.6249L13.8103 26.6323C13.7792 26.633 13.753 26.6367 13.7355 26.6394C13.7328 26.6398 13.73 26.6402 13.7271 26.6406C11.5413 26.6377 9.764 24.8733 9.764 22.705C9.764 21.6159 10.2134 20.6011 11.0115 19.8582C11.6015 22.8293 13.6569 25.3232 16.4917 26.4881L14.7723 32H16.5595L17.0266 30.6114L18.8694 25.3573L18.5573 25.2961C16.8991 24.9716 15.3875 24.079 14.3009 22.7828C13.2002 21.4699 12.594 19.8049 12.594 18.0944C12.594 16.1329 13.3643 14.2888 14.7629 12.9018C16.1616 11.5149 18.0211 10.7511 19.999 10.7511C21.977 10.7511 23.8367 11.5149 25.2352 12.9018C26.6338 14.2888 27.4041 16.1329 27.4041 18.0944C27.4041 19.8049 26.798 21.4699 25.6972 22.7828C24.6107 24.079 23.0992 24.9716 21.441 25.2961L21.129 25.3573L22.9717 30.6116L23.4382 32H25.2266L24.8476 30.7974H24.8502L23.5058 26.4879C26.3416 25.3226 28.3974 22.8282 28.9869 19.8564C29.7853 20.5994 30.235 21.6151 30.235 22.7051C30.235 24.8735 28.4594 26.6379 26.2755 26.6407C26.2726 26.6403 26.2698 26.6398 26.2669 26.6394C26.2496 26.6369 26.2235 26.633 26.1926 26.6323L25.8119 26.6233L26.9077 30.2489H26.8927L27.4811 32H29.2813L28.0389 28.04Z" fill="white"/>
</g>
</g>
<path id="Fill 3" fill-rule="evenodd" clip-rule="evenodd" d="M16 19V19.2407C16 21.3136 17.7945 23 20.0001 23C22.2056 23 24 21.3136 24 19.2407V19H22.3647V19.2407C22.3647 20.4661 21.304 21.4632 20.0001 21.4632C18.6963 21.4632 17.6354 20.4661 17.6354 19.2407V19H16Z" fill="white"/>
</g>
</g>
</svg>
