<svg width="40" height="40" viewBox="0 0 40 40" fill="none" xmlns="http://www.w3.org/2000/svg">
<g id="&#231;&#188;&#150;&#231;&#187;&#132; 14">
<circle id="&#230;&#164;&#173;&#229;&#156;&#134;&#229;&#189;&#162;" cx="20" cy="20" r="20" fill="#8979FF"/>
<g id="jianguanshuju">
<mask id="mask0_4666_1256" style="mask-type:luminance" maskUnits="userSpaceOnUse" x="7" y="9" width="26" height="22">
<path id="Clip 2" fill-rule="evenodd" clip-rule="evenodd" d="M7 9H33V31H7V9Z" fill="white"/>
</mask>
<g mask="url(#mask0_4666_1256)">
<path id="Fill 1" fill-rule="evenodd" clip-rule="evenodd" d="M33 9.92185C33 9.41624 32.5842 9.00644 32.0712 9.00644H8.04243C7.76667 8.9741 7.49077 9.06466 7.28961 9.25328C7.08846 9.44201 6.98311 9.70915 7.00221 9.98223L7.00038 24.6287C7.01893 24.9985 7.26164 25.321 7.61537 25.4456C7.96909 25.5702 8.36426 25.4726 8.61644 25.1981L15.335 18.576L18.6303 21.8349C18.9929 22.1923 19.5809 22.1923 19.9435 21.8349L19.9733 21.8056L23.8332 18.0012C25.105 18.6202 26.6446 18.2408 27.4712 17.1046C28.2977 15.9684 28.1683 14.4094 27.1653 13.4207C26.1622 12.4321 24.5805 12.3046 23.4277 13.1192C22.2749 13.934 21.89 15.4514 22.518 16.7049L19.286 19.8906L16.0614 16.7105C16.0409 16.6848 16.0167 16.6628 15.9945 16.6391C15.8203 16.4669 15.5836 16.3701 15.3369 16.3701C15.0901 16.3701 14.8536 16.4669 14.6793 16.6391L8.8542 22.3786V10.8372H31.1388V23.673H20.1739C20.0737 23.6554 19.9712 23.6554 19.8711 23.673H13.4999C12.9869 23.673 12.5711 24.0829 12.5711 24.5884C12.5711 25.094 12.9869 25.5038 13.4999 25.5038H19.0946V29.1692H13.4924C12.9794 29.1692 12.5636 29.579 12.5636 30.0846C12.5636 30.5901 12.9794 31 13.4924 31H26.495C27.0079 31 27.4238 30.5901 27.4238 30.0846C27.4238 29.579 27.0079 29.1692 26.495 29.1692H20.9521V25.5038H31.9431C32.2085 25.5392 32.4765 25.4599 32.6783 25.2862C32.8801 25.1127 32.996 24.8616 32.9963 24.5976V9.99687C33 9.97122 33 9.94919 33 9.92366V9.92185ZM25.1167 14.4164C25.6927 14.417 26.1592 14.8776 26.1588 15.4454C26.1582 16.0131 25.6908 16.4729 25.1149 16.4725C24.5388 16.4725 24.0719 16.0122 24.0719 15.4444C24.0719 14.8767 24.5388 14.4164 25.1149 14.4164H25.1167Z" fill="white"/>
</g>
</g>
</g>
</svg>
