<svg width="40" height="40" viewBox="0 0 40 40" fill="none" xmlns="http://www.w3.org/2000/svg">
<g id="&#231;&#188;&#150;&#231;&#187;&#132; 14">
<circle id="&#230;&#164;&#173;&#229;&#156;&#134;&#229;&#189;&#162;" cx="20" cy="20" r="20" fill="#8979FF"/>
<g id="qianbao (1)">
<mask id="mask0_4666_1185" style="mask-type:luminance" maskUnits="userSpaceOnUse" x="8" y="9" width="24" height="22">
<path id="Clip 2" fill-rule="evenodd" clip-rule="evenodd" d="M8 9H32V31H8V9Z" fill="white"/>
</mask>
<g mask="url(#mask0_4666_1185)">
<path id="Fill 1" fill-rule="evenodd" clip-rule="evenodd" d="M29.3432 31H10.6648C9.19765 31 8.00799 29.8254 8.00799 28.3766V14.3944L8 14.3997C8 14.3997 8.00248 13.8187 8.00487 13.1476C8.00433 13.0725 8.00433 13.0039 8.0055 12.9417C8.00735 12.3907 8.00892 11.8132 8.00892 11.4657C8.00892 10.1974 8.9755 9 10.4133 9H25.1531C26.4374 9 27.771 9.83945 27.771 11.4657C27.771 11.8034 27.7733 12.0895 27.7669 12.3323H29.3432C30.8105 12.3323 32 13.5069 32 14.9556V28.3766C32 29.8254 30.8105 31 29.3432 31ZM26.0957 11.4633C26.0957 10.9884 25.703 10.6033 25.1531 10.6033H10.6012C10.0512 10.6033 9.65862 10.9886 9.65862 11.4633C9.65862 11.9382 10.0512 12.3233 10.6012 12.3233H26.0957V11.4633ZM23.4388 23.349H30.3225V19.9566H23.4388V23.349ZM30.3225 25.0317H23.0629C22.3293 25.0317 21.7346 24.5716 21.7346 23.349V19.5854C21.7346 18.8612 22.3293 18.2739 23.0629 18.2739H30.3225V15.3268C30.3225 14.6024 29.7277 14.015 28.994 14.015H9.68547V28.0054C9.68547 28.7298 10.2802 29.3171 11.0139 29.3171H28.994C29.7277 29.3171 30.3225 28.7298 30.3225 28.0054V25.0317Z" fill="white"/>
</g>
</g>
</g>
</svg>
