<svg width="40" height="40" viewBox="0 0 40 40" fill="none" xmlns="http://www.w3.org/2000/svg">
<g id="&#231;&#188;&#150;&#231;&#187;&#132; 14">
<circle id="&#230;&#164;&#173;&#229;&#156;&#134;&#229;&#189;&#162;" cx="20" cy="20" r="20" fill="#8979FF"/>
<g id="anquanguanli">
<g id="&#231;&#188;&#150;&#231;&#187;&#132;">
<mask id="mask0_4666_1150" style="mask-type:luminance" maskUnits="userSpaceOnUse" x="9" y="7" width="23" height="26">
<path id="Clip 2" fill-rule="evenodd" clip-rule="evenodd" d="M9 7H32V33H9V7Z" fill="white"/>
</mask>
<g mask="url(#mask0_4666_1150)">
<path id="Fill 1" fill-rule="evenodd" clip-rule="evenodd" d="M31.9429 14.0154C31.9266 13.7033 31.8882 13.3925 31.8591 13.074C31.7626 13.074 31.6884 13.0791 31.6152 13.073C31.3718 13.0526 31.124 13.0495 30.8859 13.0013C30.2869 12.8797 29.7725 12.6003 29.3574 12.1469C29.0608 11.823 28.8448 11.4541 28.7376 11.0334C28.6383 10.643 28.573 10.2439 28.4914 9.84232C28.4541 9.82945 28.3984 9.81174 28.3436 9.79175C27.264 9.40021 26.1842 9.00897 25.1048 8.61656C24.2394 8.30196 23.3756 7.98327 22.5091 7.67179C21.9391 7.4669 21.3666 7.26806 20.7928 7.0738C20.5534 6.99276 20.33 6.95492 20.0671 7.08555C19.6969 7.26937 19.2876 7.37621 18.8956 7.51747C18.2619 7.74605 17.6284 7.97547 16.9955 8.2059C16.012 8.56414 15.0287 8.9231 14.0457 9.2826C13.5237 9.47346 13.0019 9.66605 12.485 9.85622C12.4516 10.0966 12.4391 10.3355 12.382 10.5633C12.3005 10.8879 12.2145 11.2168 12.0784 11.521C11.9263 11.8607 11.6859 12.1502 11.3945 12.3934C11.0453 12.685 10.6485 12.891 10.2043 12.9795C9.86556 13.0468 9.51577 13.0594 9.14696 13.0991C9.13726 13.2039 9.12496 13.3188 9.11615 13.434C9.0762 13.9511 9.02602 14.4678 9.00199 14.9856C8.98825 15.2816 9.01373 15.5798 9.02791 15.8768C9.05509 16.4449 9.08216 17.013 9.11845 17.5807C9.1387 17.8991 9.16329 18.2185 9.21117 18.5338C9.28752 19.0376 9.36392 19.5431 9.47804 20.0392C9.65204 20.7966 9.82823 21.5559 10.06 22.2972C10.2672 22.9609 10.5439 23.604 10.8026 24.2512C11.0972 24.988 11.4818 25.6823 11.899 26.3558C12.288 26.9841 12.7167 27.5874 13.1978 28.1529C13.6157 28.6441 14.0325 29.1348 14.5277 29.5536C14.9408 29.9027 15.3435 30.2649 15.7683 30.5994C16.4743 31.1556 17.2389 31.6283 18.0417 32.0334C18.6222 32.3262 19.2264 32.5727 19.817 32.8461C20.1757 33.0124 20.5583 33.0468 20.9199 32.9353C21.3674 32.797 21.7989 32.5991 22.2246 32.4003C23.1375 31.9738 24.0091 31.476 24.8335 30.8952C25.4929 30.4306 26.1061 29.9141 26.6922 29.3645C26.8924 29.1768 27.0797 28.9748 27.2633 28.7709C27.5174 28.4889 27.7754 28.2085 28.0086 27.91C28.5207 27.2546 29.0056 26.5793 29.3942 25.8433C29.7072 25.2498 30.0406 24.6625 30.2963 24.0447C30.6066 23.2955 30.8652 22.5233 31.1083 21.7495C31.389 20.8544 31.5836 19.9367 31.7065 19.0063C31.7919 18.3604 31.8798 17.7143 31.94 17.0661C31.9839 16.5916 32.001 16.113 32.0003 15.6363C31.9993 15.0959 31.9706 14.5552 31.9429 14.0154ZM29.8721 16.1081C29.8497 16.598 29.8346 17.0891 29.7852 17.5769C29.7309 18.1138 29.6629 18.6513 29.5618 19.1814C29.4494 19.7705 29.3177 20.3583 29.1492 20.9341C28.963 21.5696 28.7346 22.1938 28.5069 22.8168C28.4 23.1097 28.2545 23.3891 28.1216 23.6723C27.782 24.3951 27.3732 25.08 26.9015 25.7268C26.658 26.0605 26.3938 26.3807 26.1281 26.6983C25.9247 26.9415 25.716 27.1824 25.4887 27.4036C25.2253 27.6602 24.9451 27.9014 24.6608 28.1361C24.3538 28.3891 24.044 28.6414 23.7164 28.8677C23.3416 29.1266 22.9542 29.3709 22.5567 29.5948C22.1705 29.8126 21.7675 30.0026 21.3663 30.1937C21.1092 30.316 20.8464 30.4305 20.5768 30.5216C20.4931 30.5499 20.3704 30.508 20.279 30.4681C19.813 30.2661 19.3437 30.069 18.8905 29.8418C18.201 29.4965 17.5425 29.0976 16.93 28.6318C16.598 28.3792 16.272 28.1179 15.9598 27.8424C15.6866 27.6017 15.422 27.348 15.1797 27.0775C14.8368 26.6942 14.5099 26.2964 14.1907 25.8937C13.7483 25.3356 13.3853 24.726 13.0583 24.0988C12.6467 23.3089 12.2926 22.4924 12.0409 21.6391C11.8508 20.9951 11.6727 20.3465 11.5248 19.6924C11.4178 19.2191 11.3599 18.7344 11.2964 18.2527C11.2456 17.8665 11.2031 17.4778 11.1862 17.089C11.1551 16.3801 11.1447 15.6706 11.1287 14.9614C11.1272 14.8898 11.1377 14.8184 11.16 14.7502C11.1703 14.7193 11.2186 14.6892 11.2553 14.6799C12.0662 14.4753 12.7552 14.0689 13.3057 13.454C13.7417 12.9673 14.0249 12.3955 14.1856 11.7666C14.2097 11.6719 14.2313 11.5766 14.2562 11.4723C14.898 11.2404 15.5364 11.0093 16.1755 10.7793C16.6865 10.5954 17.1986 10.4148 17.7093 10.2298C18.539 9.92892 19.3696 9.63021 20.1959 9.32059C20.3979 9.24491 20.5733 9.24292 20.7793 9.31972C21.7588 9.68532 22.7446 10.0341 23.7281 10.3889C24.7202 10.747 25.7122 11.1052 26.7042 11.463C26.7169 11.4676 26.7312 11.4682 26.7476 11.4711C26.8858 12.2039 27.1799 12.8729 27.6795 13.4353C28.1932 14.0138 28.8247 14.4322 29.5945 14.6267C29.6514 14.6413 29.7114 14.6537 29.7616 14.6817C29.7972 14.7014 29.8398 14.7442 29.8423 14.7793C29.8588 14.9948 29.8682 15.2112 29.8727 15.4273C29.8774 15.6542 29.8824 15.8815 29.8721 16.1081Z" fill="white"/>
</g>
</g>
<path id="Fill 3" fill-rule="evenodd" clip-rule="evenodd" d="M15.3951 18L21 23.6049L19.6049 25L14 19.3953L15.3951 18Z" fill="white"/>
<path id="Fill 4" fill-rule="evenodd" clip-rule="evenodd" d="M19.2991 25L18 23.7009L25.7009 16L27 17.299L19.2991 25Z" fill="white"/>
</g>
</g>
</svg>
