<svg width="40" height="40" viewBox="0 0 40 40" fill="none" xmlns="http://www.w3.org/2000/svg">
<g id="&#231;&#188;&#150;&#231;&#187;&#132; 14">
<circle id="&#230;&#164;&#173;&#229;&#156;&#134;&#229;&#189;&#162;" cx="20" cy="20" r="20" fill="#8979FF"/>
<g id="yingjian (1)">
<path id="Fill 1" fill-rule="evenodd" clip-rule="evenodd" d="M12.7273 27H27.2727C27.6743 27 28 26.5523 28 25.9999C28 25.4477 27.6743 25 27.2727 25H12.7273C12.3257 25 12 25.4477 12 25.9999C12 26.5523 12.3257 27 12.7273 27Z" fill="white"/>
<path id="Fill 2" fill-rule="evenodd" clip-rule="evenodd" d="M30.9604 22.337L28.3247 11.1392C28.1679 10.4714 27.5773 10 26.8977 10H13.0868C12.4071 10 11.816 10.4719 11.659 11.1408L9.03962 22.3378C9.01321 22.4497 9 22.5643 9 22.6793V28.5185C9 29.3367 9.65662 30 10.4666 30H29.5334C30.3434 30 31 29.3367 31 28.5185V22.6793C31 22.5638 30.9868 22.4489 30.9604 22.337ZM26.8977 11.4815L29.5128 22.5926H20.6907C20.7113 22.5244 20.7334 22.4556 20.7334 22.3808V20.3703C20.7334 20.2815 20.7113 20.1985 20.6835 20.1193C23.1577 19.8926 25.1333 18.4578 25.1333 16.5586C25.1333 14.6719 23.1842 13.2445 20.7334 13.0029V11.4815H26.8977ZM20 14.4445C22.0754 14.4445 23.6667 15.477 23.6667 16.5586C23.6667 17.64 22.0754 18.6727 20 18.6727C17.9246 18.6727 16.3333 17.64 16.3333 16.5586C16.3333 15.477 17.9246 14.4445 20 14.4445ZM13.0868 11.4815H19.2666V13.0029C16.8158 13.2437 14.8667 14.6719 14.8667 16.5586C14.8667 18.4578 16.8423 19.8934 19.3165 20.1193C19.2857 20.1994 19.2689 20.2844 19.2666 20.3703V22.3808C19.2666 22.4556 19.2887 22.5244 19.3093 22.5926H10.4872L13.0868 11.4815ZM10.4666 28.5185H29.5334V24.074H10.4666V28.5185Z" fill="white"/>
</g>
</g>
</svg>
