<svg width="40" height="40" viewBox="0 0 40 40" fill="none" xmlns="http://www.w3.org/2000/svg">
<g id="&#231;&#188;&#150;&#231;&#187;&#132; 14">
<circle id="&#230;&#164;&#173;&#229;&#156;&#134;&#229;&#189;&#162;" cx="20" cy="20" r="20" fill="#8979FF"/>
<g id="&#231;&#188;&#150;&#231;&#187;&#132;">
<mask id="mask0_4666_938" style="mask-type:luminance" maskUnits="userSpaceOnUse" x="9" y="8" width="23" height="25">
<path id="Clip 2" fill-rule="evenodd" clip-rule="evenodd" d="M9 8H32V33H9V8Z" fill="white"/>
</mask>
<g mask="url(#mask0_4666_938)">
<path id="Fill 1" fill-rule="evenodd" clip-rule="evenodd" d="M25.3654 26.7505C22.678 26.7505 20.5 25.9506 20.5 24.9648V22.9283C21.7116 23.6316 23.4427 24.0717 25.3654 24.0717C27.2874 24.0717 29.0192 23.6316 30.2308 22.9283V24.9648C30.2308 25.9506 28.0521 26.7505 25.3654 26.7505ZM25.3654 31.215C22.678 31.215 20.5 30.4151 20.5 29.4287V27.3928C21.7116 28.0954 23.4427 28.5355 25.3654 28.5355C27.2874 28.5355 29.0192 28.0954 30.2308 27.3928V29.4287C30.2308 30.4151 28.0521 31.215 25.3654 31.215ZM15.6346 26.7505C12.9479 26.7505 10.7692 25.9506 10.7692 24.9648V22.9283C11.9808 23.6316 13.7119 24.0717 15.6346 24.0717C16.7525 24.0717 17.8065 23.9229 18.7308 23.6597V26.342C17.8894 26.597 16.8109 26.7505 15.6346 26.7505ZM10.7692 18.4638C11.9808 19.1671 13.7119 19.6072 15.6346 19.6072C17.0092 19.6072 18.2867 19.3823 19.3461 18.9964C18.9515 19.4536 18.7308 19.9636 18.7308 20.5003V21.8781C17.8894 22.1331 16.8109 22.286 15.6346 22.286C12.9479 22.286 10.7692 21.4861 10.7692 20.5003V18.4638ZM10.7692 13.9993C11.9808 14.7033 13.7119 15.1427 15.6346 15.1427C17.5573 15.1427 19.2884 14.7033 20.5 13.9993V16.0358C20.5 17.0222 18.322 17.8222 15.6346 17.8222C12.9479 17.8222 10.7692 17.0222 10.7692 16.0358V13.9993ZM15.6346 9.78635C18.322 9.78635 20.5 10.5856 20.5 11.5713C20.5 12.5577 18.322 13.3577 15.6346 13.3577C12.9479 13.3577 10.7692 12.5577 10.7692 11.5713C10.7692 10.5856 12.9479 9.78635 15.6346 9.78635ZM30.2308 20.5003C30.2308 21.4861 28.0521 22.286 25.3654 22.286C22.678 22.286 20.5 21.4861 20.5 20.5003C20.5 19.5139 22.678 18.714 25.3654 18.714C28.0521 18.714 30.2308 19.5139 30.2308 20.5003ZM25.3654 16.929C24.2475 16.929 23.1935 17.0784 22.2692 17.341V11.5713C22.2692 9.59922 19.2986 8 15.6346 8C11.9699 8 9 9.59922 9 11.5713V24.9648C9 26.937 11.9699 28.5355 15.6346 28.5355C16.7525 28.5355 17.8065 28.3874 18.7308 28.1242V29.4287C18.7308 31.4008 21.7007 33 25.3654 33C29.0301 33 32 31.4008 32 29.4287V20.5003C32 18.5275 29.0301 16.929 25.3654 16.929Z" fill="white"/>
</g>
</g>
</g>
</svg>
