<svg width="40" height="40" viewBox="0 0 40 40" fill="none" xmlns="http://www.w3.org/2000/svg">
<g id="&#231;&#188;&#150;&#231;&#187;&#132; 14">
<circle id="&#230;&#164;&#173;&#229;&#156;&#134;&#229;&#189;&#162;" cx="20" cy="20" r="20" fill="#B8F3C9"/>
<g id="suoding">
<path id="Fill 1" fill-rule="evenodd" clip-rule="evenodd" d="M20.4999 21C20.1021 21 19.7206 21.1398 19.4392 21.3888C19.158 21.6378 19 21.9753 19 22.3274V25.6726C19 26.4057 19.6715 27 20.4999 27C21.3285 27 22 26.4057 22 25.6726V22.3274C22 21.9753 21.8418 21.6378 21.5606 21.3888C21.2794 21.1398 20.8977 21 20.4999 21Z" fill="#221E1F"/>
<path id="Fill 2" fill-rule="evenodd" clip-rule="evenodd" d="M29.3864 16.9434H28.7173V15.3822C28.7115 11.3075 25.284 8.00548 21.0541 8H19.9459C15.7161 8.00548 12.2885 11.3075 12.2827 15.3822V16.9434H11.6136C10.1725 16.9488 9.00572 18.0729 9 19.4612V29.4822C9 30.8728 10.1701 32 11.6136 32H29.3864C30.8299 32 32 30.8728 32 29.4822V19.4612C31.9943 18.0729 30.8275 16.9488 29.3864 16.9434ZM14.3736 15.3822C14.3736 12.4177 16.8684 10.0143 19.9459 10.0143H21.0541C24.1316 10.0143 26.6264 12.4177 26.6264 15.3822V16.9434H14.3736V15.3822ZM29.9091 29.4822C29.9091 29.7603 29.6751 29.9857 29.3864 29.9857H11.6136C11.3249 29.9857 11.0909 29.7603 11.0909 29.4822V19.4612C11.0909 19.3276 11.146 19.1995 11.244 19.1051C11.3421 19.0107 11.475 18.9576 11.6136 18.9576H29.3864C29.6751 18.9576 29.9091 19.1831 29.9091 19.4612V29.4822Z" fill="#221E1F"/>
</g>
</g>
</svg>
