<svg width="40" height="40" viewBox="0 0 40 40" fill="none" xmlns="http://www.w3.org/2000/svg">
<g id="&#231;&#188;&#150;&#231;&#187;&#132; 14">
<circle id="&#230;&#164;&#173;&#229;&#156;&#134;&#229;&#189;&#162;" cx="20" cy="20" r="20" fill="#FFDBC0"/>
<g id="&#231;&#188;&#150;&#231;&#187;&#132;">
<path id="Fill 1" fill-rule="evenodd" clip-rule="evenodd" d="M26.561 32.7237H12.822C10.164 32.7237 8 30.5607 8 27.9017V17.3547C8 14.6957 10.164 12.5327 12.822 12.5327H16.047C16.558 12.5327 16.973 12.9477 16.973 13.4577C16.973 13.9687 16.558 14.3837 16.047 14.3837H12.822C11.184 14.3837 9.852 15.7167 9.852 17.3547V27.9017C9.852 29.5397 11.185 30.8717 12.822 30.8717H26.562C28.201 30.8717 29.533 29.5387 29.533 27.9017V17.3547C29.533 15.7157 28.2 14.3837 26.562 14.3837H26.294C25.783 14.3837 25.368 13.9687 25.368 13.4577C25.368 12.9477 25.783 12.5327 26.294 12.5327H26.562C29.221 12.5327 31.385 14.6957 31.385 17.3547V27.9017C31.383 30.5607 29.221 32.7237 26.561 32.7237Z" fill="black"/>
<g id="&#231;&#188;&#150;&#231;&#187;&#132;_2">
<path id="Fill 3" fill-rule="evenodd" clip-rule="evenodd" d="M24.1767 23.0156H14.9377C14.4267 23.0156 14.0117 22.6006 14.0117 22.0896C14.0117 21.5786 14.4267 21.1636 14.9377 21.1636H24.1757C24.6857 21.1636 25.1007 21.5786 25.1007 22.0896C25.1007 22.6006 24.6877 23.0156 24.1767 23.0156Z" fill="black"/>
<g id="&#231;&#188;&#150;&#231;&#187;&#132;_3">
<mask id="mask0_4785_246" style="mask-type:luminance" maskUnits="userSpaceOnUse" x="13" y="7" width="15" height="14">
<path id="Clip 6" fill-rule="evenodd" clip-rule="evenodd" d="M13.875 7H27.4573V20.8767H13.875V7Z" fill="white"/>
</mask>
<g mask="url(#mask0_4785_246)">
<path id="Fill 5" fill-rule="evenodd" clip-rule="evenodd" d="M21.5468 8.84381H21.5268C21.4778 8.84681 21.3848 8.86481 21.3098 8.94981L15.8048 15.2138C15.7298 15.2988 15.7228 15.3948 15.7278 15.4428C15.7328 15.4898 15.7498 15.5838 15.8348 15.6598L19.5748 18.9478C19.6598 19.0248 19.7538 19.0308 19.8038 19.0278C19.8528 19.0248 19.9448 19.0058 20.0208 18.9208L25.5268 12.6578C25.6428 12.5278 25.6288 12.3268 25.4978 12.2128L21.7568 8.92381C21.6998 8.87181 21.6248 8.84381 21.5468 8.84381ZM19.7818 20.8768C19.2728 20.8768 18.7628 20.6998 18.3508 20.3388L14.6108 17.0498C14.1758 16.6678 13.9168 16.1398 13.8798 15.5618C13.8418 14.9848 14.0318 14.4258 14.4148 13.9898L19.9208 7.72881C20.7098 6.82981 22.0828 6.74181 22.9808 7.53181L26.7208 10.8208C27.6198 11.6098 27.7078 12.9828 26.9188 13.8808L21.4128 20.1428C20.9998 20.6108 20.4058 20.8778 19.7818 20.8768Z" fill="black"/>
</g>
</g>
</g>
</g>
</g>
</svg>
