<svg width="40" height="40" viewBox="0 0 40 40" fill="none" xmlns="http://www.w3.org/2000/svg">
<g id="&#231;&#188;&#150;&#231;&#187;&#132; 14">
<circle id="&#230;&#164;&#173;&#229;&#156;&#134;&#229;&#189;&#162;" cx="20" cy="20" r="20" fill="#C6D4FF"/>
<g id="zhanghu">
<mask id="mask0_4785_180" style="mask-type:luminance" maskUnits="userSpaceOnUse" x="6" y="6" width="28" height="28">
<path id="Clip 2" fill-rule="evenodd" clip-rule="evenodd" d="M6 6H34V34H6V6Z" fill="white"/>
</mask>
<g mask="url(#mask0_4785_180)">
<path id="Fill 1" fill-rule="evenodd" clip-rule="evenodd" d="M33.9998 20.0535C34.0268 13.5928 29.6254 7.95339 23.3496 6.40778C17.0738 4.862 10.5551 7.81189 7.57625 13.5456C4.59727 19.2793 5.9324 26.3062 10.807 30.5488L10.9355 30.6655C16.1646 35.1115 23.8474 35.1115 29.0766 30.6655L29.1816 30.5605C32.2347 27.9214 33.9925 24.0882 33.9998 20.0535ZM8.33379 20.0535C8.32855 14.8709 11.7456 10.3067 16.7213 8.85013C21.6972 7.39371 27.0375 9.3943 29.83 13.761C32.6223 18.1278 32.1966 23.8126 28.7849 27.715C27.5097 25.3167 25.3169 23.5371 22.7067 22.7823C24.7277 21.5669 25.6897 19.1534 25.0587 16.8819C24.4277 14.6103 22.3587 13.0382 20.0001 13.0382C17.6417 13.0382 15.5727 14.6103 14.9417 16.8819C14.3107 19.1534 15.2727 21.5669 17.2936 22.7823C14.6835 23.5371 12.4906 25.3167 11.2154 27.715C9.36025 25.5931 8.33674 22.8715 8.33379 20.0535ZM20.0001 21.2197C18.3894 21.2197 17.0835 19.9144 17.0835 18.3043C17.0835 16.6942 18.3894 15.3889 20.0001 15.3889C21.6109 15.3889 22.9168 16.6942 22.9168 18.3043C22.9168 19.9144 21.6109 21.2197 20.0001 21.2197ZM13.0003 29.3826C14.1522 26.5293 16.922 24.6608 20.0001 24.6608C23.0784 24.6608 25.8482 26.5293 26.9999 29.3826C22.8597 32.5159 17.1405 32.5159 13.0003 29.3826Z" fill="black"/>
</g>
</g>
</g>
</svg>
