<svg width="40" height="40" viewBox="0 0 40 40" fill="none" xmlns="http://www.w3.org/2000/svg">
<g id="&#231;&#188;&#150;&#231;&#187;&#132; 14">
<circle id="&#230;&#164;&#173;&#229;&#156;&#134;&#229;&#189;&#162;" cx="20" cy="20" r="20" fill="#FFD4EC"/>
<g id="&#231;&#188;&#150;&#231;&#187;&#132;">
<g id="&#231;&#188;&#150;&#231;&#187;&#132;_2">
<g id="&#231;&#188;&#150;&#231;&#187;&#132;_3">
<mask id="mask0_4785_225" style="mask-type:luminance" maskUnits="userSpaceOnUse" x="13" y="8" width="15" height="15">
<path id="Clip 2" fill-rule="evenodd" clip-rule="evenodd" d="M13.1934 8H27.8065V22.5633H13.1934V8Z" fill="white"/>
</mask>
<g mask="url(#mask0_4785_225)">
<path id="Fill 1" fill-rule="evenodd" clip-rule="evenodd" d="M20.4999 10.2941C17.7424 10.2941 15.4999 12.5297 15.4999 15.2785C15.4999 18.0273 17.7424 20.2641 20.4999 20.2641C23.2574 20.2641 25.5 18.0273 25.5 15.2797C25.5 12.5309 23.2574 10.2941 20.4999 10.2941ZM20.4999 22.5633C16.4718 22.5633 13.1934 19.2951 13.1934 15.2785C13.1934 11.2631 16.4718 7.99609 20.4999 7.99609C24.528 7.99609 27.8065 11.2631 27.8065 15.2797C27.8065 19.2963 24.528 22.5633 20.4999 22.5633Z" fill="#231916"/>
</g>
</g>
<path id="Fill 3" fill-rule="evenodd" clip-rule="evenodd" d="M30.8462 31.9999C30.2674 31.9999 29.7685 31.5663 29.7021 30.9795C29.1737 26.3149 25.2169 22.798 20.5007 22.798C15.7833 22.798 11.8265 26.3149 11.2981 30.9795C11.2268 31.6104 10.653 32.0636 10.0238 31.9926C9.39097 31.9215 8.93508 31.3531 9.00758 30.7211C9.66868 24.8939 14.6085 20.5 20.5007 20.5C26.3917 20.5 31.3328 24.8939 31.9926 30.7223C32.0639 31.3531 31.6093 31.9215 30.9764 31.9926C30.9334 31.9975 30.8892 31.9999 30.8462 31.9999Z" fill="#231916"/>
</g>
<g id="&#231;&#188;&#150;&#231;&#187;&#132;_4">
<path id="Fill 5" fill-rule="evenodd" clip-rule="evenodd" d="M23.8071 28.6926H17.1929C16.5341 28.6926 16 28.1585 16 27.4998C16 26.841 16.5341 26.3069 17.1929 26.3069H23.8071C24.4659 26.3069 25 26.841 25 27.4998C25 28.1585 24.4659 28.6926 23.8071 28.6926Z" fill="#231916"/>
<path id="Fill 7" fill-rule="evenodd" clip-rule="evenodd" d="M20.4995 32C19.8395 32 19.3066 31.4659 19.3066 30.8071V24.1916C19.3066 23.5341 19.8408 23 20.4995 23C21.1583 23 21.6924 23.5341 21.6924 24.1916V30.8071C21.6924 31.4659 21.1583 32 20.4995 32Z" fill="#231916"/>
</g>
</g>
</g>
</svg>
