<svg width="40" height="40" viewBox="0 0 40 40" fill="none" xmlns="http://www.w3.org/2000/svg">
<g id="&#231;&#188;&#150;&#231;&#187;&#132; 14">
<circle id="&#230;&#164;&#173;&#229;&#156;&#134;&#229;&#189;&#162;" cx="20" cy="20" r="20" fill="#DAD4FF"/>
<g id="yishouquan">
<mask id="mask0_4785_197" style="mask-type:luminance" maskUnits="userSpaceOnUse" x="6" y="7" width="28" height="26">
<path id="Clip 2" fill-rule="evenodd" clip-rule="evenodd" d="M6 7H34V33H6V7Z" fill="white"/>
</mask>
<g mask="url(#mask0_4785_197)">
<path id="Fill 1" fill-rule="evenodd" clip-rule="evenodd" d="M31 22H23.1831C23.0677 21.5294 23.0062 21.0473 22.9999 20.5629C22.9999 18.154 24.3501 15.983 26.4609 14.8869C26.6097 14.8053 26.7345 14.686 26.823 14.541C28.11 13.877 29 12.549 29 10.9999C29 8.79093 27.2091 7 24.9999 7H14.9999C12.7909 7 11 8.79093 11 10.9999C11 12.549 11.89 13.877 13.1769 14.541C13.2653 14.686 13.3901 14.8053 13.5391 14.8869C15.6632 15.983 16.9984 18.1726 17.0001 20.5629C17.0001 21.0539 16.925 21.5309 16.816 22H9.00003C7.34308 22 6 23.343 6 25V26.9999C6 28.6567 7.34308 30 9.00003 30C9.00003 31.696 10.534 33 12.353 33H27.647C29.466 33 31 31.696 31 30C32.6568 30 34 28.6567 34 26.9999V25C34 23.343 32.6568 22 31 22ZM16.863 15H18.0199C18.5723 15 19.02 14.5523 19.02 13.9999C19.02 13.4478 18.5723 13.0001 18.0199 13.0001H14.9999C13.8953 13.0001 13 12.1045 13 10.9999C13 9.89534 13.8953 8.99995 14.9999 8.99995H24.9999C26.1045 8.99995 27 9.89534 27 10.9999C27 12.1045 26.1045 13.0001 24.9999 13.0001H21.809C21.2566 13.0001 20.8089 13.4478 20.8089 13.9999C20.8089 14.5523 21.2566 15 21.809 15H23.137C21.4294 16.9018 20.6875 19.4815 21.124 22H18.876C19.3124 19.4815 18.5706 16.9018 16.863 15ZM32 26.9999C32 27.5522 31.5522 28 31 28H29.259C28.7067 28 28.259 28.4477 28.259 28.9999C28.259 29.46 28.5759 29.8309 29 29.9479V30C29 30.513 28.427 30.9999 27.647 30.9999H12.353C11.573 30.9999 11 30.513 11 30H25.254C25.8062 30 26.254 29.5523 26.254 28.9999C26.254 28.4477 25.8062 28 25.254 28H9.00003C8.44765 28 7.99996 27.5522 7.99996 26.9999V25C7.99996 24.4476 8.44765 23.9999 9.00003 23.9999H31C31.5522 23.9999 32 24.4476 32 25V26.9999Z" fill="black"/>
</g>
</g>
</g>
</svg>
