<svg width="40" height="40" viewBox="0 0 40 40" fill="none" xmlns="http://www.w3.org/2000/svg">
<g id="&#231;&#188;&#150;&#231;&#187;&#132; 14">
<circle id="&#230;&#164;&#173;&#229;&#156;&#134;&#229;&#189;&#162;" cx="20" cy="20" r="20" fill="#8979FF"/>
<g id="ruanjian- (1)">
<path id="Fill 1" fill-rule="evenodd" clip-rule="evenodd" d="M30.6967 9H10.3006C9.03063 9.00126 8.0013 9.99534 8 11.2218V28.7786C8.0016 30.0049 9.03077 30.9987 10.3006 31H30.6994C31.9695 30.9987 32.9987 30.0047 33 28.7782V11.2218C32.9964 9.9952 31.9668 9.00197 30.6967 9ZM9.71803 15.6899H31.2791V28.7754C31.2791 29.0852 31.0174 29.3384 30.6967 29.3384H10.3006C9.97975 29.3384 9.72093 29.0856 9.71803 28.7759V15.6895V15.6899ZM10.3006 10.6592H30.6994C31.0198 10.6592 31.282 10.912 31.282 11.2218V14.0311H9.71803V11.2218C9.71803 10.912 9.97975 10.6592 10.3006 10.6592Z" fill="white"/>
<path id="Fill 2" fill-rule="evenodd" clip-rule="evenodd" d="M23.8507 25.855C23.8507 26.0687 23.9351 26.269 24.0924 26.4204L24.0951 26.4232C24.2524 26.5747 24.4604 26.6558 24.6823 26.6558C24.9028 26.6561 25.114 26.5713 25.2691 26.4204L28.7578 23.0664C29.0807 22.7538 29.0807 22.2486 28.7578 21.936L25.2691 18.5769C25.1147 18.4313 24.9067 18.3504 24.6905 18.3521C24.3566 18.3518 24.0548 18.5442 23.9248 18.8405C23.795 19.1369 23.862 19.4793 24.0951 19.7096L26.9908 22.4986L24.0951 25.2899C23.9386 25.4393 23.8506 25.6427 23.8507 25.855ZM18.8714 27.9645L18.8767 27.9677C18.9524 27.989 19.0286 28 19.1067 28C19.4748 28 19.8007 27.7619 19.9049 27.4212L22.6907 18.0225C22.752 17.8195 22.7268 17.6012 22.6209 17.4162C22.515 17.2309 22.337 17.0938 22.126 17.0351H22.1237C22.0462 17.0127 21.9658 17.0009 21.885 17C21.5254 17 21.2024 17.2327 21.0984 17.5628C21.0955 17.5679 21.0955 17.5762 21.0926 17.5813L18.3038 26.9775C18.2419 27.183 18.2674 27.3968 18.3737 27.5837C18.4836 27.7701 18.6604 27.9081 18.8714 27.9649V27.9645ZM15.7283 26.4228C15.8856 26.5747 16.0936 26.6558 16.3155 26.6558C16.6514 26.6555 16.9541 26.4607 17.0829 26.1621C17.2118 25.8634 17.1417 25.5196 16.905 25.2899L14.0066 22.5014L16.905 19.7074C17.2228 19.3893 17.214 18.884 16.8854 18.5763C16.731 18.431 16.5229 18.3503 16.3069 18.3521C16.0878 18.3521 15.8856 18.4334 15.7283 18.5796L12.2426 21.9331C11.9191 22.2459 11.9191 22.7515 12.2426 23.0642L15.7283 26.4232V26.4228Z" fill="white"/>
</g>
</g>
</svg>
