<svg width="40" height="40" viewBox="0 0 40 40" fill="none" xmlns="http://www.w3.org/2000/svg">
<g id="&#231;&#188;&#150;&#231;&#187;&#132; 13">
<circle id="&#230;&#164;&#173;&#229;&#156;&#134;&#229;&#189;&#162;" cx="20" cy="20" r="20" fill="#8979FF"/>
<g id="&#231;&#188;&#150;&#231;&#187;&#132; 14">
<g id="chixugenzong">
<mask id="mask0_4557_642" style="mask-type:luminance" maskUnits="userSpaceOnUse" x="7" y="7" width="26" height="26">
<path id="Clip 2" fill-rule="evenodd" clip-rule="evenodd" d="M7 7H33V33H7V7Z" fill="white"/>
</mask>
<g mask="url(#mask0_4557_642)">
<path id="Fill 1" fill-rule="evenodd" clip-rule="evenodd" d="M33 20.0001C33 12.85 27.1738 7 20 7C19.5217 7 19.1304 7.39003 19.1304 7.86674C19.1304 8.34329 19.5217 8.73332 20 8.73332C26.2174 8.73332 31.2609 13.8033 31.2609 20.0001C31.2609 24.1168 28.9999 27.9733 25.3913 29.88V28.4934C25.3913 28.0167 24.9999 27.6267 24.5217 27.6267C24.0434 27.6267 23.6522 28.0167 23.6522 28.4934V32.1334C23.6522 32.61 24.0434 33 24.5217 33H28.1304C28.6087 33 28.9999 32.61 28.9999 32.1334C28.9999 31.6567 28.6087 31.2667 28.1304 31.2667H26.4782C30.4782 28.9267 33 24.6367 33 20.0001ZM20 31.2667C13.7825 31.2667 8.73912 26.1967 8.73912 20.0001C8.73912 15.84 11 12.0699 14.6086 10.12V11.5067C14.6086 11.9833 14.9999 12.3733 15.4782 12.3733C15.9565 12.3733 16.3477 11.9833 16.3477 11.5067V7.86674C16.3477 7.39003 15.9565 7 15.4782 7H11.8695C11.3913 7 11 7.39003 11 7.86674C11 8.34329 11.3913 8.73332 11.8695 8.73332H13.5652C9.5217 10.9866 7 15.2766 7 20.0001C7 27.15 12.826 33 20 33C20.4782 33 20.8695 32.61 20.8695 32.1334C20.8695 31.6567 20.4782 31.2667 20 31.2667Z" fill="white"/>
<path id="Fill 3" fill-rule="evenodd" clip-rule="evenodd" d="M19.7111 25C17.304 25 15.3615 22.9904 15.3615 20.5001C15.3615 18.0098 17.304 16 19.7111 16C22.1182 16 24.0608 18.0098 24.0608 20.5001C24.0608 22.9904 22.1182 25 19.7111 25ZM19.7111 17.7477C18.2332 17.7477 17.0507 18.9709 17.0507 20.5001C17.0507 22.0291 18.2332 23.2525 19.7111 23.2525C21.1893 23.2525 22.3716 22.0291 22.3716 20.5001C22.3716 18.9709 21.1893 17.7477 19.7111 17.7477ZM10.8006 21.3738H7.84467C7.3801 21.3738 7 20.9805 7 20.5001C7 20.0195 7.3801 19.6262 7.84467 19.6262H10.8006C11.2652 19.6262 11.6453 20.0195 11.6453 20.5001C11.6453 20.9805 11.2652 21.3738 10.8006 21.3738ZM31.1554 21.2864H28.1571C27.6925 21.2864 27.3126 20.8932 27.3126 20.4127C27.3126 19.9321 27.6925 19.5388 28.1571 19.5388H31.1554C31.6199 19.5388 32 19.9321 32 20.4127C32 20.8932 31.6199 21.2864 31.1554 21.2864Z" fill="white"/>
</g>
</g>
</g>
</g>
</svg>
