<svg width="40" height="40" viewBox="0 0 40 40" fill="none" xmlns="http://www.w3.org/2000/svg">
<g id="&#231;&#188;&#150;&#231;&#187;&#132; 17">
<circle id="&#230;&#164;&#173;&#229;&#156;&#134;&#229;&#189;&#162;" cx="20" cy="20" r="20" fill="#8979FF"/>
<g id="anquanguanli">
<g id="&#231;&#188;&#150;&#231;&#187;&#132;">
<mask id="mask0_4557_628" style="mask-type:luminance" maskUnits="userSpaceOnUse" x="8" y="6" width="24" height="28">
<path id="Clip 2" fill-rule="evenodd" clip-rule="evenodd" d="M8 6H32V34H8V6Z" fill="white"/>
</mask>
<g mask="url(#mask0_4557_628)">
<path id="Fill 1" fill-rule="evenodd" clip-rule="evenodd" d="M31.94 13.555C31.9231 13.2189 31.8829 12.8843 31.8526 12.5412C31.7519 12.5412 31.6745 12.5467 31.5981 12.5401C31.3441 12.5182 31.0855 12.5148 30.8371 12.4629C30.2121 12.332 29.6752 12.031 29.2421 11.5429C28.9326 11.194 28.7072 10.7967 28.5954 10.3436C28.4917 9.92323 28.4236 9.49348 28.3385 9.06096C28.2996 9.0471 28.2414 9.02803 28.1843 9.0065C27.0576 8.58485 25.9309 8.1635 24.8046 7.74091C23.9016 7.40211 23.0002 7.0589 22.0961 6.72347C21.5013 6.50281 20.9039 6.28868 20.3051 6.07948C20.0553 5.9922 19.8222 5.95145 19.5478 6.09213C19.1616 6.29009 18.7344 6.40514 18.3254 6.55727C17.6642 6.80344 17.0032 7.0505 16.3427 7.29866C15.3165 7.68445 14.2904 8.07103 13.2647 8.45819C12.72 8.66372 12.1755 8.87113 11.6361 9.07593C11.6012 9.33475 11.5882 9.59205 11.5286 9.83743C11.4436 10.1869 11.3538 10.5411 11.2118 10.8688C11.0532 11.2346 10.8023 11.5464 10.4982 11.8082C10.1338 12.1223 9.71978 12.3442 9.25626 12.4394C8.90279 12.5119 8.5378 12.5255 8.15295 12.5682C8.14282 12.6811 8.12999 12.8049 8.1208 12.929C8.0791 13.4858 8.02675 14.0422 8.00167 14.5999C7.98734 14.9187 8.01392 15.2398 8.02872 15.5596C8.05708 16.1714 8.08533 16.7832 8.12319 17.3946C8.14433 17.7375 8.16999 18.0815 8.21995 18.421C8.29962 18.9636 8.37933 19.5079 8.49842 20.0422C8.67999 20.8579 8.86384 21.6756 9.10564 22.4739C9.32191 23.1887 9.61066 23.8812 9.88052 24.5782C10.188 25.3717 10.5893 26.1194 11.0246 26.8447C11.4305 27.5214 11.8779 28.171 12.3799 28.7801C12.8159 29.309 13.2509 29.8375 13.7676 30.2885C14.1987 30.6645 14.6189 31.0545 15.0622 31.4147C15.7989 32.0137 16.5967 32.5228 17.4344 32.9591C18.0401 33.2744 18.6706 33.5398 19.2869 33.8343C19.6612 34.0133 20.0604 34.0504 20.4377 33.9303C20.9047 33.7813 21.355 33.5683 21.7992 33.3542C22.7518 32.8949 23.6613 32.3587 24.5215 31.7333C25.2096 31.233 25.8494 30.6767 26.461 30.0849C26.6699 29.8827 26.8654 29.6652 27.0569 29.4456C27.3221 29.1419 27.5914 28.8399 27.8347 28.5185C28.369 27.8127 28.875 27.0854 29.2805 26.2927C29.6071 25.6536 29.955 25.0212 30.2219 24.3558C30.5456 23.549 30.8155 22.7174 31.0691 21.884C31.362 20.9201 31.5651 19.9319 31.6933 18.9298C31.7824 18.2342 31.8742 17.5385 31.937 16.8405C31.9828 16.3294 32.0006 15.814 31.9999 15.3007C31.9988 14.7186 31.969 14.1364 31.94 13.555ZM29.7792 15.8087C29.7558 16.3363 29.7401 16.8652 29.6885 17.3905C29.6318 17.9687 29.5609 18.5476 29.4554 19.1185C29.3381 19.7528 29.2006 20.3859 29.0248 21.0059C28.8305 21.6904 28.5922 22.3626 28.3547 23.0335C28.2431 23.3489 28.0912 23.6498 27.9526 23.9548C27.5982 24.7332 27.1716 25.4708 26.6794 26.1673C26.4254 26.5267 26.1496 26.8716 25.8724 27.2136C25.6601 27.4754 25.4423 27.7349 25.2052 27.9731C24.9304 28.2495 24.638 28.5092 24.3413 28.7619C24.021 29.0345 23.6977 29.3061 23.3558 29.5498C22.9647 29.8286 22.5605 30.0917 22.1457 30.3329C21.7428 30.5674 21.3222 30.7721 20.9035 30.9778C20.6353 31.1095 20.3611 31.2328 20.0798 31.3309C19.9923 31.3614 19.8643 31.3163 19.769 31.2734C19.2828 31.0558 18.793 30.8435 18.3201 30.5988C17.6006 30.227 16.9135 29.7974 16.2743 29.2957C15.9279 29.0238 15.5877 28.7424 15.262 28.4457C14.9769 28.1864 14.7008 27.9133 14.448 27.6219C14.0902 27.2091 13.749 26.7808 13.4159 26.347C12.9543 25.7461 12.5755 25.0896 12.2344 24.4141C11.8048 23.5635 11.4353 22.6841 11.1727 21.7651C10.9744 21.0717 10.7886 20.3732 10.6341 19.6688C10.5225 19.1591 10.4621 18.637 10.3958 18.1183C10.3428 17.7024 10.2985 17.2838 10.2808 16.865C10.2484 16.1017 10.2375 15.3376 10.2209 14.5738C10.2192 14.4967 10.2302 14.4198 10.2535 14.3464C10.2642 14.3131 10.3146 14.2806 10.353 14.2707C11.1991 14.0503 11.918 13.6127 12.4925 12.9505C12.9474 12.4263 13.2429 11.8105 13.4106 11.1332C13.4358 11.0313 13.4583 10.9286 13.4843 10.8163C14.154 10.5666 14.8202 10.3177 15.487 10.07C16.0203 9.87193 16.5546 9.67753 17.0876 9.47821C17.9533 9.15422 18.82 8.83254 19.6823 8.49909C19.893 8.4176 20.0761 8.41545 20.291 8.49816C21.3132 8.89188 22.3418 9.26748 23.368 9.6496C24.4033 10.0352 25.4384 10.421 26.4735 10.8064C26.4868 10.8112 26.5018 10.8119 26.5188 10.8151C26.6631 11.6042 26.97 12.3246 27.4913 12.9303C28.0273 13.5533 28.6863 14.004 29.4895 14.2133C29.5488 14.2291 29.6115 14.2425 29.6639 14.2726C29.701 14.2938 29.7455 14.3399 29.7481 14.3777C29.7653 14.6098 29.7751 14.8429 29.7798 15.0756C29.7847 15.3199 29.7899 15.5647 29.7792 15.8087Z" fill="white"/>
</g>
</g>
<path id="Fill 3" fill-rule="evenodd" clip-rule="evenodd" d="M15.3951 18L21 23.6049L19.6049 25L14 19.3953L15.3951 18Z" fill="white"/>
<path id="Fill 4" fill-rule="evenodd" clip-rule="evenodd" d="M19.4434 25L18 23.5566L26.5566 15L28 16.4434L19.4434 25Z" fill="white"/>
</g>
</g>
</svg>
