<svg width="40" height="40" viewBox="0 0 40 40" fill="none" xmlns="http://www.w3.org/2000/svg">
<g id="&#231;&#188;&#150;&#231;&#187;&#132; 14">
<circle id="&#230;&#164;&#173;&#229;&#156;&#134;&#229;&#189;&#162;" cx="20" cy="20" r="20" fill="#8979FF"/>
<g id="jiangli-">
<mask id="mask0_4557_613" style="mask-type:luminance" maskUnits="userSpaceOnUse" x="7" y="8" width="26" height="24">
<path id="Clip 2" fill-rule="evenodd" clip-rule="evenodd" d="M7 8H33V32H7V8Z" fill="white"/>
</mask>
<g mask="url(#mask0_4557_613)">
<path id="Fill 1" fill-rule="evenodd" clip-rule="evenodd" d="M20.0221 21.0407C21.3647 21.0407 22.4532 19.9692 22.4532 18.6473C22.4532 17.3255 21.3647 16.254 20.0221 16.254C18.6794 16.254 17.5909 17.3255 17.5909 18.6473C17.5909 19.2821 17.8471 19.8909 18.303 20.3397C18.7589 20.7886 19.3773 21.0407 20.0221 21.0407ZM20.0221 22.7813C17.703 22.7813 15.8228 20.9305 15.8228 18.6473C15.8228 16.3643 17.703 14.5135 20.0221 14.5135C22.3413 14.5135 24.2213 16.3643 24.2213 18.6473C24.2031 20.9176 22.3284 22.7488 20.0221 22.7486V22.7813ZM13.668 27.2307C12.9177 26.7046 12.2382 26.0868 11.6457 25.3922L9.67866 27.2743L10.7838 27.4809C11.1355 27.5493 11.4106 27.8199 11.48 28.1663L11.6899 29.2541L13.668 27.2307ZM27.7575 23.3361C30.3997 19.216 29.2001 13.7716 25.0613 11.0995C20.9225 8.42756 15.3721 9.51406 12.5866 13.5415C9.8011 17.569 10.8085 23.0512 14.8508 25.8627C18.8931 28.6742 24.4784 27.7776 27.4039 23.8474L27.7575 23.3361ZM26.3651 27.2851L28.4316 29.3195L28.6416 28.2315C28.7138 27.9028 28.972 27.6445 29.3047 27.568L30.4097 27.3613L28.3764 25.3922C27.7807 26.1073 27.0936 26.7435 26.332 27.2851H26.3651ZM24.796 28.1989C21.7874 29.6477 18.2679 29.6477 15.2593 28.1989L11.7341 31.604C11.5034 31.8308 11.1645 31.9143 10.8525 31.821C10.5404 31.7276 10.3059 31.4728 10.2423 31.1579L9.82234 29.0801L7.71162 28.6558C7.39182 28.5932 7.13292 28.3623 7.03823 28.0551C6.94337 27.748 7.02809 27.4143 7.25863 27.1872L10.5738 23.9235C7.98328 19.4302 9.03838 13.7549 13.0777 10.456C17.1168 7.15717 22.9774 7.18432 26.9849 10.5205C30.9925 13.8567 31.9933 19.5415 29.3598 24.0105L32.7414 27.3395C32.9719 27.5667 33.0566 27.9002 32.9618 28.2075C32.867 28.5146 32.6082 28.7456 32.2883 28.8082L30.1777 29.2215L29.7577 31.2994C29.6941 31.6143 29.4596 31.8691 29.1475 31.9624C28.8355 32.0557 28.4966 31.9723 28.2659 31.7455L24.796 28.1989Z" fill="white"/>
</g>
</g>
</g>
</svg>
