<svg width="40" height="40" viewBox="0 0 40 40" fill="none" xmlns="http://www.w3.org/2000/svg">
<g id="&#231;&#188;&#150;&#231;&#187;&#132; 14">
<circle id="&#230;&#164;&#173;&#229;&#156;&#134;&#229;&#189;&#162;" cx="20" cy="20" r="20" fill="#8979FF"/>
<g id="4">
<g id="&#231;&#188;&#150;&#231;&#187;&#132;">
<mask id="mask0_4707_187" style="mask-type:luminance" maskUnits="userSpaceOnUse" x="4" y="4" width="32" height="32">
<path id="Clip 2" fill-rule="evenodd" clip-rule="evenodd" d="M4 4H36V36H4V4Z" fill="white"/>
</mask>
<g mask="url(#mask0_4707_187)">
<path id="Fill 1" fill-rule="evenodd" clip-rule="evenodd" d="M19.9988 36C11.1981 36 3.99756 28.8 3.99756 20.0001C3.99756 11.2 11.1981 4 19.9988 4C28.7994 4 35.9999 11.2 35.9999 20.0001C35.9999 28.8 28.7994 36 19.9988 36ZM19.9988 5.99996C12.1982 5.99996 5.99767 12.2001 5.99767 20.0001C5.99767 27.8001 12.1982 34 19.9988 34C27.7994 34 33.9998 27.8001 33.9998 20.0001C33.9998 12.2001 27.7994 5.99996 19.9988 5.99996Z" fill="white"/>
</g>
</g>
<path id="Fill 3" fill-rule="evenodd" clip-rule="evenodd" d="M20 30C19.7989 30 19.3969 29.7977 19.196 29.5954L10.1507 18.8763C9.94978 18.4719 9.94978 18.0673 10.1507 17.6629L12.7638 12.6067C12.7638 12.2023 13.1658 12 13.5679 12H26.4321C26.8341 12 27.2362 12.2023 27.2362 12.6067L29.8492 17.6629C30.0503 18.0673 30.0503 18.4719 29.8492 18.8763L20.8039 29.7977C20.603 30 20.2009 30 20 30ZM12.1608 18.0673L20 27.3709L27.8392 18.0673L25.829 14.0224H14.1708L12.1608 18.0673Z" fill="white"/>
<path id="Fill 4" fill-rule="evenodd" clip-rule="evenodd" d="M28.9999 19H10.9999C10.3999 19 10 18.6001 10 17.9999C10 17.3999 10.3999 17 10.9999 17H28.9999C29.5999 17 30 17.6 30 17.9999C30 18.4 29.5999 19 28.9999 19Z" fill="white"/>
</g>
</g>
</svg>
