<svg width="40" height="40" viewBox="0 0 40 40" fill="none" xmlns="http://www.w3.org/2000/svg">
<g id="&#231;&#188;&#150;&#231;&#187;&#132; 14">
<circle id="&#230;&#164;&#173;&#229;&#156;&#134;&#229;&#189;&#162;" cx="20" cy="20" r="20" fill="#8979FF"/>
<path id="019suodingweizhi" fill-rule="evenodd" clip-rule="evenodd" d="M19.9999 6C12.2682 6 6 12.2681 6 20.0001C6 27.7319 12.2682 34 19.9999 34C27.7319 34 34 27.7321 34 20.0001C34 12.2681 27.7319 6 19.9999 6ZM20.9266 32V27.4137C20.9266 26.9024 20.5122 26.4868 20 26.4868C19.4879 26.4868 19.0736 26.9024 19.0736 27.4137V32C13.1626 31.5494 8.45154 26.838 8 20.9267H12.5883C13.1003 20.9267 13.5147 20.5123 13.5147 20.0001C13.5147 19.4879 13.1003 19.0734 12.5883 19.0734H8.00015C8.45154 13.1621 13.1626 8.45074 19.0736 8V12.5865C19.0736 13.0987 19.4879 13.5132 20 13.5132C20.5122 13.5132 20.9266 13.0987 20.9266 12.5865V8C26.8375 8.45074 31.5486 13.162 32 19.0734H27.4119C26.9007 19.0734 26.4855 19.4879 26.4855 20.0001C26.4855 20.5123 26.9007 20.9267 27.4119 20.9267H32C31.5486 26.838 26.8375 31.5494 20.9266 32ZM20 17C18.3429 17 17 18.3429 17 20.0001C17 21.6573 18.3429 23 20 23C21.6573 23 23 21.6573 23 20.0001C23 18.3429 21.6573 17 20 17Z" fill="white"/>
</g>
</svg>
