<svg width="40" height="40" viewBox="0 0 40 40" fill="none" xmlns="http://www.w3.org/2000/svg">
<g id="&#231;&#188;&#150;&#231;&#187;&#132; 14">
<circle id="&#230;&#164;&#173;&#229;&#156;&#134;&#229;&#189;&#162;" cx="20" cy="20" r="20" fill="#8979FF"/>
<g id="weituorenwu">
<g id="&#231;&#188;&#150;&#231;&#187;&#132;">
<mask id="mask0_4707_167" style="mask-type:luminance" maskUnits="userSpaceOnUse" x="7" y="9" width="27" height="23">
<path id="Clip 2" fill-rule="evenodd" clip-rule="evenodd" d="M7 9H34V32H7V9Z" fill="white"/>
</mask>
<g mask="url(#mask0_4707_167)">
<path id="Fill 1" fill-rule="evenodd" clip-rule="evenodd" d="M33.9982 26.0161C33.9814 25.6508 33.9458 25.416 33.4101 24.8416C32.87 24.2624 31.8054 23.329 29.7354 21.6203C28.6995 20.7719 27.4796 20.1614 26.167 19.8342V11.6835C26.1653 10.2021 24.9288 9.00154 23.4026 9H12.1973C10.6729 9.00541 9.43878 10.2038 9.43337 11.6835V20.6963C8.25087 20.8167 7.65502 21.3415 7.36178 21.7685L7.35938 21.7721C6.94145 22.4242 6.8811 23.251 7.20167 23.9308C7.40086 24.4167 7.46678 24.5569 13.0757 28.8117C13.5407 29.1643 14.4738 29.8723 14.5813 29.9549C15.134 30.4915 15.2453 30.5736 24.3933 30.3784L24.8956 30.3699C25.028 30.4526 25.3556 30.67 26.0285 31.1797L26.0452 31.1921C26.8306 31.7801 27.1244 32 27.6789 32C28.3718 32 28.4739 31.9039 31.0924 29.4417C32.2252 28.3784 33.4395 27.2236 33.571 27.0913C33.8635 26.8075 34.0185 26.4171 33.9982 26.0161ZM27.0679 29.8724C25.818 28.9238 25.5302 28.8137 25.4352 28.7786C25.3295 28.7355 25.2163 28.7133 25.1018 28.7133L24.3496 28.7272C20.2675 28.8137 16.4082 28.8745 15.7294 28.7388C15.6125 28.6415 15.2023 28.3281 14.1205 27.5095C11.4697 25.5033 8.98925 23.6038 8.76526 23.276C8.67742 23.0809 8.68803 22.8488 8.79275 22.6812C8.94887 22.4583 9.3546 22.3356 9.93536 22.3356C10.8785 22.3356 12.3898 23.4891 13.4932 24.3313L13.5478 24.3729C14.4036 25.0268 14.7572 25.2785 15.039 25.3889C15.1386 25.4273 15.2447 25.4476 15.352 25.4489H20.4727C20.601 25.4489 20.7274 25.4206 20.8427 25.3662C21.041 25.2743 21.2313 25.1667 21.4117 25.0445C21.6997 24.8487 21.8352 24.502 21.7536 24.1698C21.6718 23.8378 21.3893 23.588 21.0413 23.5397L20.0281 23.3995C19.5085 23.328 19.0597 23.2661 18.7996 23.2163C18.2837 23.1217 17.7773 22.6139 17.7773 22.1909C17.7773 21.8279 17.9328 21.2189 18.9743 21.2189H23.9183C25.6435 21.2198 27.3124 21.8142 28.6291 22.8961C30.6634 24.5768 31.8718 25.6375 32.2271 26.0542C32.0772 26.1942 31.8229 26.4348 31.5169 26.7242C31.0527 27.1631 30.4751 27.7094 29.8969 28.2508C28.808 29.2736 27.9941 30.0334 27.6536 30.2996C27.512 30.2052 27.2808 30.0323 27.0679 29.8724ZM24.4568 19.5664C24.2776 19.555 24.0981 19.5493 23.9185 19.5493H18.9741C16.9767 19.5493 16.067 20.9138 16.067 22.1818C16.067 22.7331 16.29 23.3014 16.6871 23.7793H15.5759C15.3203 23.6091 14.8311 23.2385 14.5701 23.0349C13.5774 22.2702 12.3483 21.3233 11.1438 20.8955V11.6787C11.1457 11.1154 11.6172 10.6597 12.1974 10.6604H23.4026C23.9845 10.6609 24.4562 11.1186 24.4568 11.6835V19.5664Z" fill="white"/>
</g>
</g>
<path id="Fill 3" fill-rule="evenodd" clip-rule="evenodd" d="M22.1765 14H14.8235C14.3687 14 14 14.4477 14 15C14 15.5523 14.3687 16 14.8235 16H22.1765C22.6313 16 23 15.5523 23 15C23 14.4477 22.6313 14 22.1765 14Z" fill="white"/>
</g>
</g>
</svg>
