<svg width="30" height="30" viewBox="0 0 30 30" fill="none" xmlns="http://www.w3.org/2000/svg">
<g id="&#231;&#188;&#150;&#231;&#187;&#132; 35">
<circle id="&#230;&#164;&#173;&#229;&#156;&#134;&#229;&#189;&#162;&#229;&#164;&#135;&#228;&#187;&#189; 11" cx="15" cy="15" r="15" fill="#3F6DFF"/>
<g id="discord (5)">
<mask id="mask0_5001_678" style="mask-type:luminance" maskUnits="userSpaceOnUse" x="5" y="7" width="20" height="17">
<path id="Clip 2" fill-rule="evenodd" clip-rule="evenodd" d="M5.14307 7.71436H24.8574V23.1429H5.14307V7.71436Z" fill="white"/>
</mask>
<g mask="url(#mask0_5001_678)">
<path id="Fill 1" fill-rule="evenodd" clip-rule="evenodd" d="M21.8577 9.01739C21.8522 9.00646 21.8431 8.99796 21.8321 8.99326C20.5539 8.39091 19.205 7.96134 17.8193 7.71543C17.7934 7.71046 17.7675 7.72307 17.7548 7.7467C17.5711 8.08916 17.4044 8.44086 17.2553 8.80056C15.7615 8.56764 14.242 8.56764 12.7482 8.80056C12.5981 8.43994 12.4287 8.08814 12.2408 7.7467C12.2276 7.72365 12.202 7.71121 12.1763 7.71543C10.7904 7.96085 9.44146 8.39041 8.16346 8.99335C8.15248 8.99804 8.14324 9.0062 8.13701 9.01655C5.58125 12.9371 4.88106 16.7611 5.22454 20.5378C5.22648 20.5565 5.23575 20.5736 5.25023 20.5852C6.73844 21.717 8.40295 22.581 10.1729 23.1401C10.1985 23.148 10.226 23.1388 10.2421 23.1169C10.6222 22.5856 10.959 22.023 11.2491 21.4348C11.2572 21.4185 11.2581 21.3994 11.2516 21.3824C11.245 21.3654 11.2317 21.352 11.215 21.3457C10.6838 21.1369 10.1696 20.8853 9.67711 20.5931C9.65895 20.5821 9.64732 20.5626 9.6461 20.541C9.64486 20.5194 9.65419 20.4985 9.67097 20.4854C9.7746 20.4059 9.87644 20.324 9.97637 20.2396C9.99422 20.2245 10.019 20.2211 10.0401 20.2308C13.2664 21.7433 16.7594 21.7433 19.9475 20.2308C19.9688 20.2205 19.9939 20.2236 20.012 20.2389C20.1121 20.3236 20.2142 20.4059 20.3182 20.4854C20.335 20.4984 20.3446 20.5191 20.3435 20.5407C20.3423 20.5623 20.3309 20.582 20.3128 20.5931C19.8214 20.8877 19.3067 21.1392 18.7742 21.3449C18.7575 21.3514 18.7442 21.365 18.7378 21.3822C18.7314 21.3994 18.7325 21.4185 18.7407 21.4348C19.0356 22.0197 19.3719 22.5816 19.7469 23.116C19.7626 23.1385 19.7904 23.1481 19.8161 23.1401C21.5892 22.5828 23.2567 21.7188 24.7468 20.5852C24.7614 20.5742 24.7709 20.5572 24.7724 20.5386C25.1836 16.1724 24.084 12.3796 21.8577 9.01739ZM11.731 18.2382C10.7596 18.2382 9.95927 17.3226 9.95927 16.1981C9.95927 15.0735 10.7441 14.1578 11.731 14.1578C12.7256 14.1578 13.5182 15.0815 13.5027 16.198C13.5027 17.3226 12.7178 18.2382 11.731 18.2382ZM18.2816 18.2382C17.3104 18.2382 16.51 17.3226 16.51 16.1981C16.51 15.0735 17.2948 14.1578 18.2816 14.1578C19.2763 14.1578 20.0689 15.0815 20.0534 16.198C20.0534 17.3226 19.2763 18.2382 18.2816 18.2382Z" fill="white"/>
</g>
</g>
</g>
</svg>
