<svg width="30" height="30" viewBox="0 0 30 30" fill="none" xmlns="http://www.w3.org/2000/svg">
<g id="github (1) 2">
<g id="github (1)">
<circle id="&#232;&#146;&#153;&#231;&#137;&#136;" cx="15" cy="15" r="15" fill="#3F6DFF"/>
<mask id="mask0_5001_688" style="mask-type:luminance" maskUnits="userSpaceOnUse" x="0" y="0" width="30" height="30">
<circle id="&#232;&#146;&#153;&#231;&#137;&#136;_2" cx="15" cy="15" r="15" fill="white"/>
</mask>
<g mask="url(#mask0_5001_688)">
<g id="github (1)_2">
<mask id="mask1_5001_688" style="mask-type:luminance" maskUnits="userSpaceOnUse" x="4" y="8" width="21" height="23">
<path id="Clip 2" fill-rule="evenodd" clip-rule="evenodd" d="M4 8H25V31H4V8Z" fill="white"/>
</mask>
<g mask="url(#mask1_5001_688)">
<path id="Fill 1" fill-rule="evenodd" clip-rule="evenodd" d="M23.4893 11.9205C24.4213 10.2216 23.3562 8 23.3562 8C20.9595 8 19.2286 9.5682 19.2286 9.5682C18.2965 9.0454 15.2342 9.0454 15.2342 9.0454C15.2342 9.0454 12.1718 9.0454 11.2398 9.5682C11.2398 9.5682 9.50892 8 7.11212 8C7.11212 8 6.047 10.2216 6.979 11.9205C6.979 11.9205 4.84873 13.8807 5.64762 18.0625C6.3982 21.9922 9.9083 23.0284 12.1718 23.0284C12.1718 23.0284 11.2397 23.8125 11.3729 25.1194C11.3729 25.1194 10.0414 25.9035 8.7099 25.3807C7.37852 24.8579 6.71274 23.5512 6.71274 23.5512C6.71274 23.5512 5.38122 21.8523 4.04974 22.5057C4.04974 22.5057 3.65036 22.8978 5.11499 23.5512C5.11499 23.5512 6.18011 25.1194 6.57962 26.0341C6.979 26.9489 9.10941 27.733 11.2398 27.2102V30.2159C11.2398 30.2159 11.2398 30.4772 10.7072 30.6079C10.1745 30.7387 10.1745 31 10.4409 31H20.0275C20.2938 31 20.2938 30.7387 19.7612 30.6079C19.2286 30.4772 19.2286 30.2159 19.2286 30.2159V27.2102C19.2286 27.2102 19.2403 25.6429 19.2286 25.1194C19.1993 23.8064 18.2965 23.0284 18.2965 23.0284C20.56 23.0284 24.0701 21.9922 24.8207 18.0625C25.6197 13.8807 23.4893 11.9205 23.4893 11.9205Z" fill="white"/>
</g>
</g>
</g>
</g>
</g>
</svg>
