<?xml version="1.0" encoding="UTF-8"?>
<svg width="30px" height="30px" viewBox="0 0 30 30" version="1.1" xmlns="http://www.w3.org/2000/svg" xmlns:xlink="http://www.w3.org/1999/xlink">
    <title>编组 37备份 2</title>
    <defs>
        <polygon id="path-1" points="0 0 18.34 0 18.34 17.0208 0 17.0208"></polygon>
    </defs>
    <g id="页面-1" stroke="none" stroke-width="1" fill="none" fill-rule="evenodd">
        <g id="官网首页-新" transform="translate(-1265.000000, -10580.000000)">
            <g id="编组-35" transform="translate(1265.000000, 10580.000000)">
                <circle id="椭圆形备份-11" fill="#3F6DFF" cx="15" cy="15" r="15"></circle>
                <g id="编组" transform="translate(6.000000, 6.000000)">
                    <g>
                        <mask id="mask-2" fill="white">
                            <use xlink:href="#path-1"></use>
                        </mask>
                        <g id="Clip-2"></g>
                        <path d="M15.9878,9.5878 C15.9608,9.6438 15.9198,9.6918 15.8698,9.7278 L15.8008,9.7788 C15.6878,9.8618 15.5268,9.8748 15.4008,9.8138 C15.3448,9.7858 15.2968,9.7448 15.2598,9.6948 L14.0478,8.0388 L13.5368,8.5698 L13.5368,9.4658 C13.5368,9.5678 13.4958,9.6668 13.4238,9.7388 C13.3508,9.8118 13.2538,9.8528 13.1508,9.8528 L13.0638,9.8528 C12.9618,9.8528 12.8628,9.8118 12.7908,9.7388 C12.7658,9.7128 12.7438,9.6848 12.7258,9.6528 L12.6768,9.5658 L12.6768,5.9498 C12.6768,5.8498 12.7188,5.7488 12.7908,5.6778 C12.8628,5.6058 12.9618,5.5648 13.0638,5.5648 L13.1528,5.5648 C13.2528,5.5648 13.3518,5.6058 13.4248,5.6778 C13.4968,5.7498 13.5368,5.8488 13.5368,5.9498 L13.5368,7.3278 L15.1168,5.6808 C15.1538,5.6428 15.1978,5.6118 15.2468,5.5928 C15.3838,5.5358 15.5528,5.5648 15.6628,5.6688 L15.7258,5.7308 C15.7648,5.7668 15.7948,5.8108 15.8158,5.8588 C15.8348,5.9058 15.8438,5.9568 15.8438,6.0098 C15.8448,6.1088 15.8058,6.2038 15.7378,6.2758 L14.6508,7.4088 L15.9538,9.1888 C16.0018,9.2528 16.0288,9.3338 16.0278268,9.4148 C16.0278268,9.4758 16.0138,9.5338 15.9878,9.5878 L15.9878,9.5878 Z M12.3838,9.6548 C12.3648,9.6908 12.3398,9.7228 12.3098,9.7488 C12.2368,9.8158 12.1398,9.8528 12.0368,9.8528 L9.7858,9.8528 C9.7718,9.8528 9.7588,9.8518 9.7448,9.8508 C9.6818,9.8438 9.6208,9.8238 9.5698,9.7918 C9.5148,9.7588 9.4688,9.7118 9.4398,9.6568 L9.4008,9.5948 L9.4008,5.9498 C9.4008,5.8498 9.4418,5.7488 9.5138,5.6778 C9.5868,5.6058 9.6848,5.5648 9.7868,5.5648 L9.8748,5.5648 C9.9758,5.5648 10.0748,5.6058 10.1468,5.6778 C10.2188,5.7488 10.2598,5.8498 10.2598,5.9498 L10.2598,9.1538 L12.0368,9.1538 C12.1138,9.1538 12.1888,9.1748 12.2518,9.2138 C12.2828,9.2338 12.3118,9.2568 12.3368,9.2838 L12.4908,9.4558 L12.3838,9.6548 Z M9.0938,9.6638 C9.0528,9.7288 8.9968,9.7778 8.9278,9.8098 L8.8478,9.8458 C8.7328,9.8988 8.5918,9.8898 8.4828,9.8198 C8.4188,9.7798 8.3678,9.7228 8.3368,9.6538 L8.0198,8.9598 L6.2368,8.9598 L5.9228,9.6498 C5.8918,9.7188 5.8408,9.7758 5.7778,9.8168 C5.6678,9.8858 5.5258,9.8948 5.4108,9.8418 L5.3318,9.8058 C5.2628,9.7748 5.2048,9.7238 5.1658,9.6598 C5.1268,9.5978 5.1058,9.5258 5.1058,9.4528 C5.1058,9.3978 5.1168,9.3438 5.1398,9.2938 L6.6908,5.8948 L6.7028,5.8618 C6.7128,5.8228 6.7288,5.7858 6.7498,5.7518 C6.7568,5.7408 6.7638,5.7318 6.7798,5.7088 C6.8108,5.6618 6.8508,5.6218 6.8988,5.5918 C6.9608,5.5528 7.0318,5.5318 7.1058,5.5318 C7.1218,5.5318 7.1368,5.5328 7.1698,5.5358 C7.2378,5.5388 7.3028,5.5598 7.3608,5.5958 C7.3938,5.6168 7.4238,5.6428 7.4588,5.6838 C7.4788,5.7028 7.4958,5.7258 7.5098,5.7478 C7.5338,5.7858 7.5508,5.8268 7.5608,5.8698 L9.2058,9.4858 L9.0938,9.6638 Z M4.5218,9.4658 C4.5218,9.5668 4.4808,9.6668 4.4078,9.7388 C4.3358,9.8118 4.2378,9.8528 4.1358,9.8528 L4.0488,9.8528 C3.9458,9.8528 3.8478,9.8118 3.7758,9.7378 C3.7038,9.6658 3.6628,9.5678 3.6628,9.4658 L3.6628,6.2728 L2.7228,6.2728 C2.6468,6.2728 2.5718,6.2518 2.5068,6.2118 C2.4448,6.1728 2.3958,6.1188 2.3668,6.0548 C2.3468,6.0128 2.3358,5.9658 2.3358,5.9178 C2.3358,5.8708 2.3468,5.8238 2.3668,5.7808 C2.3868,5.7378 2.4148,5.6998 2.4498,5.6688 C2.5228,5.6018 2.6198,5.5648 2.7228,5.5648 L5.4518,5.5648 C5.5288,5.5648 5.6038,5.5858 5.6678,5.6248 C5.7298,5.6628 5.7788,5.7178 5.8078,5.7808 C5.8278,5.8238 5.8378,5.8708 5.8388,5.9178 C5.8388,5.9648 5.8278,6.0128 5.8078,6.0548 C5.7878,6.0978 5.7598,6.1358 5.7258,6.1678 C5.6518,6.2348 5.5548,6.2728 5.4518,6.2728 L4.5218,6.2728 L4.5218,9.4658 Z M9.1718,-0.0002 C4.1058,-0.0002 -0.0002,3.2708 -0.0002,7.3048 C-0.0002,9.8698 1.6598,12.1248 4.1708,13.4278 L3.4778,17.0208 L7.4448,14.4798 C8.0158,14.5668 8.5938,14.6098 9.1718,14.6098 C14.2378,14.6098 18.3438,11.3398 18.3438,7.3048 C18.3438,3.2708 14.2378,-0.0002 9.1718,-0.0002 L9.1718,-0.0002 Z" id="Fill-1" fill="#FFFFFF" mask="url(#mask-2)"></path>
                    </g>
                    <polygon id="Fill-3" fill="#FFFFFF" points="6.5562 8.2616 7.7022 8.2616 7.1292 7.0056"></polygon>
                </g>
            </g>
        </g>
    </g>
</svg>