<svg width="15" height="15" viewBox="0 0 15 15" fill="none" xmlns="http://www.w3.org/2000/svg">
<path id="tiaozhuan (3)" fill-rule="evenodd" clip-rule="evenodd" d="M2.45688 0C2.84312 0.00120495 3.16078 0.30483 3.17952 0.690699C3.19826 1.07657 2.91143 1.40937 2.52702 1.44795L2.45688 1.45164H1.45284V13.5484H13.5496L13.5484 12.5129C13.5485 12.1393 13.8322 11.8268 14.2041 11.7908L14.2742 11.7872C14.6478 11.7872 14.9603 12.0709 14.9964 12.4428L15 12.5129V14.2742C14.9999 14.6478 14.7162 14.9603 14.3444 14.9964L14.2742 15H0.725784C0.352177 14.9999 0.0397871 14.7162 0.00359124 14.3444L0 14.2742V0.725784C9.45062e-05 0.352177 0.283802 0.0397871 0.655637 0.00359124L0.725784 0H2.45688ZM14.2814 0C14.6513 9.8518e-05 14.9607 0.29585 14.9964 0.683469L15 0.756594V7.81841C14.9988 8.22106 14.6982 8.5522 14.3162 8.57173C13.9342 8.59117 13.6046 8.29226 13.5664 7.89154L13.5628 7.81841V2.62794L6.23993 10.7642C5.97549 11.0577 5.53852 11.0801 5.24802 10.8152C4.95762 10.5503 4.91659 10.0916 5.15483 9.77427L5.20269 9.71498L12.5866 1.51326H7.57423C7.20434 1.51309 6.89492 1.21744 6.8592 0.829793L6.85555 0.756594C6.85574 0.367127 7.13653 0.0414761 7.50471 0.00374368L7.57423 0H14.2814Z" fill="#3F6DFF"/>
</svg>
