<svg width="11" height="11" viewBox="0 0 11 11" fill="none" xmlns="http://www.w3.org/2000/svg">
<g id="gengduo (2)">
<g id="&#231;&#188;&#150;&#231;&#187;&#132;">
<mask id="mask0_4493_146" style="mask-type:luminance" maskUnits="userSpaceOnUse" x="0" y="0" width="11" height="11">
<path id="Clip 2" fill-rule="evenodd" clip-rule="evenodd" d="M0 0H11V11H0V0Z" fill="white"/>
</mask>
<g mask="url(#mask0_4493_146)">
<path id="Fill 1" fill-rule="evenodd" clip-rule="evenodd" d="M5.49946 11C2.46671 11 -0.000976562 8.53254 -0.000976562 5.50003C-0.000976562 2.46751 2.46671 0 5.49946 0C8.53219 0 10.9998 2.46751 10.9998 5.50003C10.9998 8.53254 8.53219 11 5.49946 11ZM5.49946 0.916283C2.97159 0.916283 0.915373 2.97235 0.915373 5.50003C0.915373 8.02765 2.97159 10.0837 5.49946 10.0837C8.02726 10.0837 10.0835 8.02765 10.0835 5.50003C10.0835 2.97235 8.02726 0.916283 5.49946 0.916283Z" fill="#1976d2"/>
</g>
</g>
<path id="Fill 3" fill-rule="evenodd" clip-rule="evenodd" d="M4.546 8C4.40667 8 4.26739 7.94533 4.16005 7.83725C3.94665 7.61983 3.94665 7.26826 4.16005 7.05217L5.68341 5.5002L4.1613 3.94814C3.94789 3.73072 3.94789 3.37921 4.1613 3.16306C4.37472 2.94565 4.71979 2.94565 4.93197 3.16306L6.83995 5.10698C7.05335 5.32441 7.05335 5.6759 6.83995 5.89207L4.93197 7.83725C4.82588 7.94533 4.68529 8 4.546 8Z" fill="#1976d2"/>
</g>
</svg>
