<?xml version="1.0" encoding="UTF-8"?>
<svg width="30px" height="30px" viewBox="0 0 30 30" version="1.1" xmlns="http://www.w3.org/2000/svg" xmlns:xlink="http://www.w3.org/1999/xlink">
    <title>编组 37备份 3</title>
    <g id="页面-1" stroke="none" stroke-width="1" fill="none" fill-rule="evenodd">
        <g id="官网首页-新" transform="translate(-1310.000000, -10580.000000)">
            <g id="编组-35" transform="translate(1310.000000, 10580.000000)">
                <circle id="椭圆形备份-11" fill="#3F6DFF" cx="15" cy="15" r="15"></circle>
                <g id="naver-(1)" transform="translate(4.000000, 4.000000)">
                    <path d="M0,10.9999862 C0,17.0750573 4.92483222,22 11.0000138,22 C17.0750573,22 22,17.0750573 22,10.9999862 C22,4.92483222 17.0750573,0 11.0000138,0 C4.92483222,0 0,4.92483222 0,10.9999862 Z" id="Fill-1" fill="#FFFFFF"></path>
                    <path d="M5.03808146,6.01847817 C4.98310923,6.0578649 4.98982299,15.9436865 5.04425811,15.9774975 C5.09619572,16.0105395 8.68206613,16.0055956 8.71512466,15.9731029 C8.73526593,15.953025 8.74133516,15.3730184 8.74133516,13.492975 C8.74133516,12.143032 8.74565882,11.0385831 8.75121781,11.0385831 C8.7682976,11.0385831 8.88560034,11.1567158 8.92346592,11.2117583 L9.05857353,11.4067144 C9.22032132,11.6368549 9.38083378,11.8679566 9.54008406,12.0999098 C9.60061527,12.1867035 9.68673933,12.3123345 9.73193633,12.3792974 C9.77716018,12.446123 9.82917836,12.5180299 9.84690267,12.5386296 C9.86033018,12.5526649 9.87126018,12.5688701 9.87923612,12.5868056 C9.87923612,12.6005388 10.0173783,12.8011529 10.0362574,12.8155453 C10.0546263,12.8286192 10.163416,12.9861387 10.163416,12.9986908 C10.163416,13.0036073 10.2233026,13.0936419 10.2959992,13.1986732 L10.4653201,13.442437 C10.4854614,13.473007 10.5141962,13.5048679 10.5295036,13.5143164 C10.5447304,13.5236549 10.5575134,13.5417827 10.5575134,13.5542249 C10.5575134,13.5667771 10.5795614,13.6074547 10.6065238,13.6448913 C10.6339965,13.6824378 10.6657928,13.7286911 10.6779582,13.748 C10.7250619,13.8229831 10.7757104,13.8955217 10.8301724,13.9649291 C10.8546105,13.99679 10.8790486,14.0293102 10.9022244,14.0623522 C11.1185416,14.3861528 11.1496935,14.431747 11.2359249,14.5529834 C11.3997943,14.7851838 11.5618643,15.0184279 11.7223499,15.2530729 C11.755301,15.2999579 11.8201291,15.3961999 11.867743,15.4661567 C11.9808295,15.6362008 12.002233,15.6655898 12.0725126,15.7549652 C12.0969775,15.782871 12.1172262,15.8145123 12.1324261,15.8487353 C12.1324261,15.8580739 12.1629603,15.8955105 12.2001813,15.9324253 L12.2674263,15.9992783 L14.1154009,15.9937027 C15.7293071,15.9886488 15.9652553,15.9837049 15.9834898,15.9556068 C15.9964071,15.935529 16.0018587,14.0693286 15.9994417,10.9735703 L15.9938827,6.0241637 L14.1178178,6.01847817 L12.241726,6.0129025 L12.241726,8.43477428 C12.241726,11.0067221 12.2423706,10.9898853 12.1458536,10.9104801 C12.1262226,10.8948243 12.1110227,10.8717526 12.1110227,10.8592004 C12.1110227,10.8467582 12.0944531,10.8186601 12.0743118,10.7967695 C12.0519685,10.7715554 12.0319346,10.7443087 12.0143983,10.7154416 C11.9851532,10.6647937 11.77606,10.3604117 11.76086,10.3454975 C11.730863,10.3173995 11.5201048,9.99230789 11.5201048,9.97544356 C11.5201048,9.96418236 11.510249,9.955503 11.4987013,9.955503 C11.4864286,9.955503 11.4613728,9.9248231 11.4418492,9.88672729 C11.4256019,9.8549762 11.4072331,9.82448857 11.386877,9.79542918 C11.3158723,9.70904755 11.250722,9.61774944 11.1918558,9.52235885 C11.1546348,9.46207024 11.1148625,9.40348454 11.0727001,9.34673909 C11.0476175,9.31496054 11.0236091,9.28246786 11.0006212,9.24920613 C10.7750928,8.9116723 10.6370311,8.7116899 10.6229859,8.69922018 C10.5028634,8.53227978 10.3861246,8.36286741 10.2728233,8.19101054 C10.2303387,8.12770063 10.1869141,8.06494005 10.1426302,8.00292106 L9.93482601,7.70603742 L9.73142608,7.41357585 C9.62209929,7.25929743 9.51457179,7.10392036 9.40873615,6.94727984 C9.34318304,6.84664318 9.27456846,6.74825876 9.20281185,6.65223644 C9.16545651,6.60246744 9.13159233,6.54997927 9.10127301,6.49537619 C9.08113175,6.45664865 9.05669368,6.4247877 9.04630078,6.4247877 C9.03717008,6.4247877 9.02186271,6.40289703 9.01334967,6.37598002 C8.99836457,6.33766448 8.9776862,6.30182091 8.95220079,6.26974022 C8.92325108,6.23381425 8.89430136,6.19775095 8.86545907,6.16160525 C8.84120899,6.13037603 8.82002038,6.09689456 8.80186638,6.06160032 L8.7786905,6.01353423 L6.95695328,6.01353423 C5.9547239,6.01353423 5.12178856,6.00850789 5.10532643,6.00227303 C5.08948197,5.99606564 5.05884039,6.00293222 5.03808146,6.01847817" id="Fill-2" fill="#3F6DFF"></path>
                </g>
            </g>
        </g>
    </g>
</svg>