<svg width="17" height="17" viewBox="0 0 17 17" fill="none" xmlns="http://www.w3.org/2000/svg">
<g id="tishi (2)">
<mask id="mask0_4493_366" style="mask-type:luminance" maskUnits="userSpaceOnUse" x="0" y="0" width="17" height="17">
<path id="Clip 2" fill-rule="evenodd" clip-rule="evenodd" d="M0 0H17V17H0V0Z" fill="white"/>
</mask>
<g mask="url(#mask0_4493_366)">
<path id="Fill 1" fill-rule="evenodd" clip-rule="evenodd" d="M9.4817 9.07372C9.48179 9.42455 9.29471 9.74864 8.99088 9.92407C8.68713 10.0995 8.31287 10.0995 8.00912 9.92407C7.70531 9.74864 7.51821 9.42455 7.5183 9.07372V4.49662C7.51821 4.14585 7.70531 3.82169 8.00912 3.64627C8.31287 3.47085 8.68713 3.47085 8.99088 3.64627C9.29471 3.82169 9.48179 4.14585 9.4817 4.49662V9.07372ZM8.50005 13.3237C8.03378 13.3222 7.63349 12.9916 7.54382 12.534C7.45426 12.0765 7.70027 11.6193 8.13154 11.4421C8.5627 11.2648 9.05913 11.4168 9.31722 11.8051C9.57525 12.1935 9.52312 12.71 9.19271 13.0389C9.01074 13.2249 8.76026 13.3279 8.50005 13.3237ZM8.50005 0.000171882C7.36274 -0.00713281 6.23605 0.218462 5.18928 0.663176C3.14611 1.52098 1.52098 3.14611 0.663176 5.18928C0.218462 6.23605 -0.00713281 7.36274 0.000171882 8.50003C-0.00713281 9.63726 0.218462 10.7639 0.663176 11.8107C1.52098 13.8539 3.14611 15.479 5.18928 16.3368C6.23605 16.7815 7.36274 17.0071 8.50005 16.9998C9.63726 17.0071 10.7639 16.7815 11.8107 16.3368C13.8539 15.479 15.479 13.8539 16.3368 11.8107C16.7815 10.7639 17.0071 9.63726 16.9998 8.50003C17.0071 7.36274 16.7815 6.23605 16.3368 5.18928C15.479 3.14611 13.8539 1.52098 11.8107 0.663176C10.7639 0.218462 9.63726 -0.00713281 8.50005 0.000171882Z" fill="white"/>
</g>
</g>
</svg>
