<svg width="15" height="15" viewBox="0 0 15 15" fill="none" xmlns="http://www.w3.org/2000/svg">
<g id="tishishuoming">
<mask id="mask0_4992_154" style="mask-type:luminance" maskUnits="userSpaceOnUse" x="0" y="0" width="15" height="15">
<path id="Clip 2" fill-rule="evenodd" clip-rule="evenodd" d="M0 0H15V15H0V0Z" fill="white"/>
</mask>
<g mask="url(#mask0_4992_154)">
<path id="Fill 1" fill-rule="evenodd" clip-rule="evenodd" d="M7.50005 15C3.35812 15 0 11.6419 0 7.50005C0 3.35812 3.35812 0 7.50005 0C11.6419 0 15 3.35812 15 7.50005C15 11.6419 11.6419 15 7.50005 15ZM7.50005 13.75C10.9519 13.75 13.75 10.9519 13.75 7.50005C13.75 4.04814 10.9519 1.24999 7.50005 1.24999C4.04814 1.24999 1.24999 4.04814 1.24999 7.50005C1.24999 10.9519 4.04814 13.75 7.50005 13.75ZM6.87498 6.87498C6.87498 6.52986 7.15486 6.24998 7.50005 6.24998C7.84522 6.24998 8.12502 6.52986 8.12502 6.87498V11.25C8.12502 11.5952 7.84522 11.875 7.50005 11.875C7.15486 11.875 6.87498 11.5952 6.87498 11.25V6.87498ZM7.43753 4.87497C7.12488 4.87497 6.83607 4.70825 6.67971 4.43753C6.52343 4.16679 6.52343 3.83321 6.67971 3.56249C6.83607 3.29175 7.12488 3.12503 7.43753 3.12503C7.92075 3.12503 8.3125 3.51676 8.3125 4C8.3125 4.48323 7.92075 4.87497 7.43753 4.87497Z" fill="#818084"/>
</g>
</g>
</svg>
