<svg width="15" height="15" viewBox="0 0 15 15" fill="none" xmlns="http://www.w3.org/2000/svg">
<g id="tishi (8)">
<mask id="mask0_4440_41" style="mask-type:luminance" maskUnits="userSpaceOnUse" x="0" y="0" width="15" height="15">
<path id="Clip 2" fill-rule="evenodd" clip-rule="evenodd" d="M0 0H15V15H0V0Z" fill="white"/>
</mask>
<g mask="url(#mask0_4440_41)">
<path id="Fill 1" fill-rule="evenodd" clip-rule="evenodd" d="M7.50003 0C3.35789 0 0 3.35787 0 7.50004C0 11.6421 3.35789 15 7.50003 15C11.6421 15 15 11.6421 15 7.50004C15 3.35787 11.6421 0 7.50003 0ZM7.50003 13.8462C3.9951 13.8462 1.15384 11.0049 1.15384 7.50004C1.15384 3.99508 3.9951 1.15384 7.50003 1.15384C11.0049 1.15384 13.8461 3.99508 13.8461 7.50004C13.8461 11.0049 11.0049 13.8462 7.50003 13.8462ZM6.63463 12.1154H8.36535V6.3462H6.63463V12.1154ZM8.65389 4.0385C8.65389 4.67571 8.13724 5.19234 7.50003 5.19234C6.86274 5.19234 6.34619 4.67571 6.34619 4.0385C6.34619 3.4012 6.86274 2.88466 7.50003 2.88466C8.13724 2.88466 8.65389 3.4012 8.65389 4.0385Z" fill="#231815"/>
</g>
</g>
</svg>
