<?xml version="1.0" encoding="UTF-8"?>
<svg width="1296px" height="291px" viewBox="0 0 1296 291" version="1.1" xmlns="http://www.w3.org/2000/svg" xmlns:xlink="http://www.w3.org/1999/xlink">
    <title>编组 46</title>
    <defs>
        <polygon id="path-1" points="39.0037777 67.6879322 75.3554073 67.6879322 35.9619692 0 0 0"></polygon>
        <linearGradient x1="50.0004101%" y1="-58.821432%" x2="50.0004101%" y2="368.326011%" id="linearGradient-3">
            <stop stop-color="#7B9AFF" offset="0%"></stop>
            <stop stop-color="#3F6DFF" offset="100%"></stop>
        </linearGradient>
        <polygon id="path-4" points="19.2144704 0 0 30.8334939 34.7069819 30.8334939 36.2278861 29.9165944 53.7002937 0"></polygon>
        <linearGradient x1="49.9999353%" y1="-368.614181%" x2="49.9999353%" y2="569.091004%" id="linearGradient-6">
            <stop stop-color="#7B9AFF" offset="0%"></stop>
            <stop stop-color="#3F6DFF" offset="100%"></stop>
        </linearGradient>
        <polygon id="path-7" points="20.1105138 64.851082 55.9627813 64.851082 18.5939976 0 0 30.36933"></polygon>
        <linearGradient x1="50.0004149%" y1="-238.242833%" x2="50.0004149%" y2="207.589777%" id="linearGradient-9">
            <stop stop-color="#7B9AFF" offset="0%"></stop>
            <stop stop-color="#3F6DFF" offset="100%"></stop>
        </linearGradient>
        <path d="M0,0 L16.7518869,30.4774591 L94.7629527,30.4774591 L77.3581213,0.270762278 L14.9361045,0.270762278 C14.4902768,0.270762278 14.0699,0.171424169 13.6863828,0 L13.6863828,0 L0,0 Z" id="path-10"></path>
        <linearGradient x1="50.0009109%" y1="-739.025464%" x2="50.0009109%" y2="209.633905%" id="linearGradient-12">
            <stop stop-color="#7B9AFF" offset="0%"></stop>
            <stop stop-color="#3F6DFF" offset="100%"></stop>
        </linearGradient>
        <polygon id="path-13" points="0 68.1644035 18.7063322 98.7622991 57.8557937 31.0365657 39.3557007 0"></polygon>
        <linearGradient x1="49.9994656%" y1="-155.947072%" x2="49.9994656%" y2="136.803577%" id="linearGradient-15">
            <stop stop-color="#7B9AFF" offset="0%"></stop>
            <stop stop-color="#3F6DFF" offset="100%"></stop>
        </linearGradient>
        <polygon id="path-16" points="16.9730455 0 0 31.9376414 77.672307 31.9376414 95.0964458 0"></polygon>
        <linearGradient x1="50.0002676%" y1="-819.93597%" x2="50.0002676%" y2="85.3508907%" id="linearGradient-18">
            <stop stop-color="#7B9AFF" offset="0%"></stop>
            <stop stop-color="#3F6DFF" offset="100%"></stop>
        </linearGradient>
        <polygon id="path-19" points="18.4623556 0 0 31.9376414 38.2902779 31.9376414 56.0268471 0"></polygon>
        <linearGradient x1="49.9997071%" y1="-819.93597%" x2="49.9997071%" y2="85.3508907%" id="linearGradient-21">
            <stop stop-color="#7B9AFF" offset="0%"></stop>
            <stop stop-color="#3F6DFF" offset="100%"></stop>
        </linearGradient>
        <polygon id="path-22" points="0 67.8892457 18.4053107 99.1429486 57.4950945 31.5209488 39.1986079 0"></polygon>
        <linearGradient x1="50.0007368%" y1="-42.1728866%" x2="50.0007368%" y2="249.453775%" id="linearGradient-24">
            <stop stop-color="#7B9AFF" offset="0%"></stop>
            <stop stop-color="#3F6DFF" offset="100%"></stop>
        </linearGradient>
        <polygon id="path-25" points="0 30.2040596 18.2824448 61.7733588 35.0466183 30.2286743 18.4333944 0"></polygon>
        <linearGradient x1="50.0003431%" y1="-370.041893%" x2="50.0003431%" y2="98.0033565%" id="linearGradient-27">
            <stop stop-color="#7B9AFF" offset="0%"></stop>
            <stop stop-color="#3F6DFF" offset="100%"></stop>
        </linearGradient>
        <polygon id="path-28" points="0 30.5970165 18.2991195 62.1214817 35.9093124 31.6598464 17.6654825 0"></polygon>
        <linearGradient x1="49.9998167%" y1="-8.17199179%" x2="49.9998167%" y2="457.250377%" id="linearGradient-30">
            <stop stop-color="#7B9AFF" offset="0%"></stop>
            <stop stop-color="#3F6DFF" offset="100%"></stop>
        </linearGradient>
        <polygon id="path-31" points="0 65.2510717 36.0523634 66.3842294 56.5964183 32.5178463 37.7198291 0"></polygon>
        <linearGradient x1="50.0003304%" y1="-119.697987%" x2="50.0003304%" y2="315.838094%" id="linearGradient-33">
            <stop stop-color="#7B9AFF" offset="0%"></stop>
            <stop stop-color="#3F6DFF" offset="100%"></stop>
        </linearGradient>
        <polygon id="path-34" points="0 30.1855985 17.9208681 62.0995043 36.1322262 30.5952583 17.4285269 0"></polygon>
        <linearGradient x1="50.0002473%" y1="-367.540682%" x2="50.0002473%" y2="98.0464023%" id="linearGradient-36">
            <stop stop-color="#7B9AFF" offset="0%"></stop>
            <stop stop-color="#3F6DFF" offset="100%"></stop>
        </linearGradient>
        <polygon id="path-37" points="0 0 17.7786947 30.8554714 53.7046817 30.8554714 35.7469539 0"></polygon>
        <linearGradient x1="49.9987373%" y1="-9.09352973%" x2="49.9987373%" y2="927.943755%" id="linearGradient-39">
            <stop stop-color="#7B9AFF" offset="0%"></stop>
            <stop stop-color="#3F6DFF" offset="100%"></stop>
        </linearGradient>
        <polygon id="path-40" points="17.4241388 0 0 31.9376414 36.119062 31.9376414 53.4378872 0"></polygon>
        <linearGradient x1="49.9997899%" y1="-819.93597%" x2="49.9997899%" y2="85.3508907%" id="linearGradient-42">
            <stop stop-color="#7B9AFF" offset="0%"></stop>
            <stop stop-color="#3F6DFF" offset="100%"></stop>
        </linearGradient>
        <polygon id="path-43" points="0 0 17.4057089 30.2066969 54.6112565 30.2066969 37.0317801 0"></polygon>
        <linearGradient x1="50.0007608%" y1="-746.546195%" x2="50.0007608%" y2="210.616625%" id="linearGradient-45">
            <stop stop-color="#7B9AFF" offset="0%"></stop>
            <stop stop-color="#3F6DFF" offset="100%"></stop>
        </linearGradient>
        <polygon id="path-46" points="17.7365692 0 0 31.9376414 74.9806663 31.9376414 92.9857853 0"></polygon>
        <linearGradient x1="50.0001717%" y1="-819.93597%" x2="50.0001717%" y2="85.3508907%" id="linearGradient-48">
            <stop stop-color="#7B9AFF" offset="0%"></stop>
            <stop stop-color="#3F6DFF" offset="100%"></stop>
        </linearGradient>
        <polygon id="path-49" points="0 66.9204794 37.4240733 66.9204794 74.4268922 0.286586047 38.685204 0"></polygon>
        <linearGradient x1="50.0003889%" y1="-282.115677%" x2="50.0003889%" y2="149.930349%" id="linearGradient-51">
            <stop stop-color="#7B9AFF" offset="0%"></stop>
            <stop stop-color="#3F6DFF" offset="100%"></stop>
        </linearGradient>
        <polygon id="path-52" points="0 0 18.3394897 30.7675616 54.7253463 31.0594222 36.1111635 0"></polygon>
        <linearGradient x1="49.9995673%" y1="-488.991928%" x2="49.9995673%" y2="441.892329%" id="linearGradient-54">
            <stop stop-color="#7B9AFF" offset="0%"></stop>
            <stop stop-color="#3F6DFF" offset="100%"></stop>
        </linearGradient>
        <polygon id="path-55" points="0 30.440537 35.4345235 91.4842442 39.1099689 97.5878237 57.1493148 68.6417538 17.5952735 0"></polygon>
        <linearGradient x1="49.9993877%" y1="-43.9457503%" x2="49.9993877%" y2="252.32817%" id="linearGradient-57">
            <stop stop-color="#7B9AFF" offset="0%"></stop>
            <stop stop-color="#3F6DFF" offset="100%"></stop>
        </linearGradient>
        <polygon id="path-58" points="16.9414514 0 0 30.5073485 72.1389537 30.5073485 53.4159469 0"></polygon>
        <linearGradient x1="49.9999032%" y1="-738.203435%" x2="49.9999032%" y2="209.526492%" id="linearGradient-60">
            <stop stop-color="#7B9AFF" offset="0%"></stop>
            <stop stop-color="#3F6DFF" offset="100%"></stop>
        </linearGradient>
        <polygon id="path-61" points="0 0 39.0889062 67.8347416 76.0847041 67.8347416 36.6052599 0"></polygon>
        <linearGradient x1="49.999762%" y1="-223.364183%" x2="49.999762%" y2="202.858818%" id="linearGradient-63">
            <stop stop-color="#7B9AFF" offset="0%"></stop>
            <stop stop-color="#3F6DFF" offset="100%"></stop>
        </linearGradient>
    </defs>
    <g id="页面-1" stroke="none" stroke-width="1" fill="none" fill-rule="evenodd">
        <g id="编组-46">
            <g id="编组">
                <g transform="translate(173.386593, 37.009160)">
                    <mask id="mask-2" fill="white">
                        <use xlink:href="#path-1"></use>
                    </mask>
                    <g id="Clip-2"></g>
                    <polygon id="Fill-1" fill="url(#linearGradient-3)" mask="url(#mask-2)" points="39.0037777 67.6879322 75.3554073 67.6879322 35.9619692 0 0 0"></polygon>
                </g>
                <g transform="translate(194.316798, 110.850780)">
                    <mask id="mask-5" fill="white">
                        <use xlink:href="#path-4"></use>
                    </mask>
                    <g id="Clip-4"></g>
                    <polygon id="Fill-3" fill="url(#linearGradient-6)" mask="url(#mask-5)" points="19.2144704 0 0 30.8334939 34.7069819 30.8334939 36.2278861 29.9165944 53.7002937 0"></polygon>
                </g>
                <g transform="translate(213.786653, 151.697204)">
                    <mask id="mask-8" fill="white">
                        <use xlink:href="#path-7"></use>
                    </mask>
                    <g id="Clip-6"></g>
                    <polygon id="Fill-5" fill="url(#linearGradient-9)" mask="url(#mask-8)" points="20.1105138 64.851082 55.9627813 64.851082 18.5939976 0 0 30.36933"></polygon>
                </g>
                <g transform="translate(195.937750, 222.430332)">
                    <mask id="mask-11" fill="white">
                        <use xlink:href="#path-10"></use>
                    </mask>
                    <g id="Clip-8"></g>
                    <path d="M0,0 L16.7518869,30.4774591 L94.7629527,30.4774591 L77.3581213,0.270762278 L14.9361045,0.270762278 C14.4902768,0.270762278 14.0699,0.171424169 13.6863828,0 L13.6863828,0 L0,0 Z" id="Fill-7" fill="url(#linearGradient-12)" mask="url(#mask-11)"></path>
                </g>
                <g transform="translate(20.927572, 151.211062)">
                    <mask id="mask-14" fill="white">
                        <use xlink:href="#path-13"></use>
                    </mask>
                    <g id="Clip-10"></g>
                    <polygon id="Fill-9" fill="url(#linearGradient-15)" mask="url(#mask-14)" points="0 68.1644035 18.7063322 98.7622991 57.8557937 31.0365657 39.3557007 0"></polygon>
                </g>
                <g transform="translate(195.745552, 259.062359)">
                    <mask id="mask-17" fill="white">
                        <use xlink:href="#path-16"></use>
                    </mask>
                    <g id="Clip-12"></g>
                    <polygon id="Fill-11" fill="url(#linearGradient-18)" mask="url(#mask-17)" points="16.9730455 0 0 31.9376414 77.672307 31.9376414 95.0964458 0"></polygon>
                </g>
                <g transform="translate(23.016292, 259.062359)">
                    <mask id="mask-20" fill="white">
                        <use xlink:href="#path-19"></use>
                    </mask>
                    <g id="Clip-14"></g>
                    <polygon id="Fill-13" fill="url(#linearGradient-21)" mask="url(#mask-20)" points="18.4623556 0 0 31.9376414 38.2902779 31.9376414 56.0268471 0"></polygon>
                </g>
                <g transform="translate(85.869217, 39.005592)">
                    <mask id="mask-23" fill="white">
                        <use xlink:href="#path-22"></use>
                    </mask>
                    <g id="Clip-16"></g>
                    <polygon id="Fill-15" fill="url(#linearGradient-24)" mask="url(#mask-23)" points="0 67.8892457 18.4053107 99.1429486 57.4950945 31.5209488 39.1986079 0"></polygon>
                </g>
                <g transform="translate(172.334334, 225.781455)">
                    <mask id="mask-26" fill="white">
                        <use xlink:href="#path-25"></use>
                    </mask>
                    <g id="Clip-18"></g>
                    <polygon id="Fill-17" fill="url(#linearGradient-27)" mask="url(#mask-26)" points="0 30.2040596 18.2824448 61.7733588 35.0466183 30.2286743 18.4333944 0"></polygon>
                </g>
                <g transform="translate(128.610751, 2.270711)">
                    <mask id="mask-29" fill="white">
                        <use xlink:href="#path-28"></use>
                    </mask>
                    <g id="Clip-20"></g>
                    <polygon id="Fill-19" fill="url(#linearGradient-30)" mask="url(#mask-29)" points="0 30.5970165 18.2991195 62.1214817 35.9093124 31.6598464 17.6654825 0"></polygon>
                </g>
                <g transform="translate(109.201450, 76.654735)">
                    <mask id="mask-32" fill="white">
                        <use xlink:href="#path-31"></use>
                    </mask>
                    <g id="Clip-22"></g>
                    <polygon id="Fill-21" fill="url(#linearGradient-33)" mask="url(#mask-32)" points="0 65.2510717 36.0523634 66.3842294 56.5964183 32.5178463 37.7198291 0"></polygon>
                </g>
                <g transform="translate(0.000000, 225.435090)">
                    <mask id="mask-35" fill="white">
                        <use xlink:href="#path-34"></use>
                    </mask>
                    <g id="Clip-24"></g>
                    <polygon id="Fill-23" fill="url(#linearGradient-36)" mask="url(#mask-35)" points="0 30.1855985 17.9208681 62.0995043 36.1322262 30.5952583 17.4285269 0"></polygon>
                </g>
                <g transform="translate(152.062339, 0.000000)">
                    <mask id="mask-38" fill="white">
                        <use xlink:href="#path-37"></use>
                    </mask>
                    <g id="Clip-26"></g>
                    <polygon id="Fill-25" fill="url(#linearGradient-39)" mask="url(#mask-38)" points="0 0 17.7786947 30.8554714 53.7046817 30.8554714 35.7469539 0"></polygon>
                </g>
                <g transform="translate(280.418582, 259.062359)">
                    <mask id="mask-41" fill="white">
                        <use xlink:href="#path-40"></use>
                    </mask>
                    <g id="Clip-28"></g>
                    <polygon id="Fill-27" fill="url(#linearGradient-42)" mask="url(#mask-41)" points="17.4241388 0 0 31.9376414 36.119062 31.9376414 53.4378872 0"></polygon>
                </g>
                <g transform="translate(280.388743, 222.701094)">
                    <mask id="mask-44" fill="white">
                        <use xlink:href="#path-43"></use>
                    </mask>
                    <g id="Clip-30"></g>
                    <polygon id="Fill-29" fill="url(#linearGradient-45)" mask="url(#mask-44)" points="0 0 17.4057089 30.2066969 54.6112565 30.2066969 37.0317801 0"></polygon>
                </g>
                <g transform="translate(68.336254, 259.062359)">
                    <mask id="mask-47" fill="white">
                        <use xlink:href="#path-46"></use>
                    </mask>
                    <g id="Clip-32"></g>
                    <polygon id="Fill-31" fill="url(#linearGradient-48)" mask="url(#mask-47)" points="17.7365692 0 0 31.9376414 74.9806663 31.9376414 92.9857853 0"></polygon>
                </g>
                <g transform="translate(45.035615, 185.987312)">
                    <mask id="mask-50" fill="white">
                        <use xlink:href="#path-49"></use>
                    </mask>
                    <g id="Clip-34"></g>
                    <polygon id="Fill-33" fill="url(#linearGradient-51)" mask="url(#mask-50)" points="0 66.9204794 37.4240733 66.9204794 74.4268922 0.286586047 38.685204 0"></polygon>
                </g>
                <g transform="translate(66.162406, 149.072216)">
                    <mask id="mask-53" fill="white">
                        <use xlink:href="#path-52"></use>
                    </mask>
                    <g id="Clip-36"></g>
                    <polygon id="Fill-35" fill="url(#linearGradient-54)" mask="url(#mask-53)" points="0 0 18.3394897 30.7675616 54.7253463 31.0594222 36.1111635 0"></polygon>
                </g>
                <g transform="translate(150.467716, 40.079850)">
                    <mask id="mask-56" fill="white">
                        <use xlink:href="#path-55"></use>
                    </mask>
                    <g id="Clip-38"></g>
                    <polygon id="Fill-37" fill="url(#linearGradient-57)" mask="url(#mask-56)" points="0 30.440537 35.4345235 91.4842442 39.1099689 97.5878237 57.1493148 68.6417538 17.5952735 0"></polygon>
                </g>
                <g transform="translate(89.489373, 222.400443)">
                    <mask id="mask-59" fill="white">
                        <use xlink:href="#path-58"></use>
                    </mask>
                    <g id="Clip-40"></g>
                    <polygon id="Fill-39" fill="url(#linearGradient-60)" mask="url(#mask-59)" points="16.9414514 0 0 30.5073485 72.1389537 30.5073485 53.4159469 0"></polygon>
                </g>
                <g transform="translate(237.754279, 148.712665)">
                    <mask id="mask-62" fill="white">
                        <use xlink:href="#path-61"></use>
                    </mask>
                    <g id="Clip-42"></g>
                    <polygon id="Fill-41" fill="url(#linearGradient-63)" mask="url(#mask-62)" points="0 0 39.0889062 67.8347416 76.0847041 67.8347416 36.6052599 0"></polygon>
                </g>
            </g>
            <g id="编组-42" transform="translate(384.000000, 47.000000)" fill="#000000" font-family="ZYLiberty-Regular, ZY Liberty" font-weight="normal">
                <text id="Powered-by" font-size="60">
                    <tspan x="0" y="57">Powered by</tspan>
                </text>
                <text id="MAP-PROTOCOL" font-size="80">
                    <tspan x="0" y="178">MAP PROTOCOL</tspan>
                </text>
            </g>
        </g>
    </g>
</svg>