<?xml version="1.0" encoding="UTF-8"?>
<svg width="1295px" height="291px" viewBox="0 0 1295 291" version="1.1" xmlns="http://www.w3.org/2000/svg" xmlns:xlink="http://www.w3.org/1999/xlink">
    <title>编组 46备份</title>
    <defs>
        <polygon id="path-1" points="39.0037777 67.6879322 75.3554073 67.6879322 35.9619692 0 0 0"></polygon>
        <linearGradient x1="50.0004101%" y1="-58.821432%" x2="50.0004101%" y2="368.326011%" id="linearGradient-3">
            <stop stop-color="#7B9AFF" offset="0%"></stop>
            <stop stop-color="#3F6DFF" offset="100%"></stop>
        </linearGradient>
        <polygon id="path-4" points="19.2144704 0 0 30.8334939 34.7069819 30.8334939 36.2278861 29.9165944 53.7002937 0"></polygon>
        <linearGradient x1="49.9999353%" y1="-368.614181%" x2="49.9999353%" y2="569.091004%" id="linearGradient-6">
            <stop stop-color="#7B9AFF" offset="0%"></stop>
            <stop stop-color="#3F6DFF" offset="100%"></stop>
        </linearGradient>
        <polygon id="path-7" points="20.1105138 64.851082 55.9627813 64.851082 18.5939976 0 0 30.36933"></polygon>
        <linearGradient x1="50.0004149%" y1="-238.242833%" x2="50.0004149%" y2="207.589777%" id="linearGradient-9">
            <stop stop-color="#7B9AFF" offset="0%"></stop>
            <stop stop-color="#3F6DFF" offset="100%"></stop>
        </linearGradient>
        <path d="M0,0 L16.7518869,30.4774591 L94.7629527,30.4774591 L77.3581213,0.270762278 L14.9361045,0.270762278 C14.4902768,0.270762278 14.0699,0.171424169 13.6863828,0 L13.6863828,0 L0,0 Z" id="path-10"></path>
        <linearGradient x1="50.0009109%" y1="-739.025464%" x2="50.0009109%" y2="209.633905%" id="linearGradient-12">
            <stop stop-color="#7B9AFF" offset="0%"></stop>
            <stop stop-color="#3F6DFF" offset="100%"></stop>
        </linearGradient>
        <polygon id="path-13" points="0 68.1644035 18.7063322 98.7622991 57.8557937 31.0365657 39.3557007 0"></polygon>
        <linearGradient x1="49.9994656%" y1="-155.947072%" x2="49.9994656%" y2="136.803577%" id="linearGradient-15">
            <stop stop-color="#7B9AFF" offset="0%"></stop>
            <stop stop-color="#3F6DFF" offset="100%"></stop>
        </linearGradient>
        <polygon id="path-16" points="16.9730455 0 0 31.9376414 77.672307 31.9376414 95.0964458 0"></polygon>
        <linearGradient x1="50.0002676%" y1="-819.93597%" x2="50.0002676%" y2="85.3508907%" id="linearGradient-18">
            <stop stop-color="#7B9AFF" offset="0%"></stop>
            <stop stop-color="#3F6DFF" offset="100%"></stop>
        </linearGradient>
        <polygon id="path-19" points="18.4623556 0 0 31.9376414 38.2902779 31.9376414 56.0268471 0"></polygon>
        <linearGradient x1="49.9997071%" y1="-819.93597%" x2="49.9997071%" y2="85.3508907%" id="linearGradient-21">
            <stop stop-color="#7B9AFF" offset="0%"></stop>
            <stop stop-color="#3F6DFF" offset="100%"></stop>
        </linearGradient>
        <polygon id="path-22" points="0 67.8892457 18.4053107 99.1429486 57.4950945 31.5209488 39.1986079 0"></polygon>
        <linearGradient x1="50.0007368%" y1="-42.1728866%" x2="50.0007368%" y2="249.453775%" id="linearGradient-24">
            <stop stop-color="#7B9AFF" offset="0%"></stop>
            <stop stop-color="#3F6DFF" offset="100%"></stop>
        </linearGradient>
        <polygon id="path-25" points="0 30.2040596 18.2824448 61.7733588 35.0466183 30.2286743 18.4333944 0"></polygon>
        <linearGradient x1="50.0003431%" y1="-370.041893%" x2="50.0003431%" y2="98.0033565%" id="linearGradient-27">
            <stop stop-color="#7B9AFF" offset="0%"></stop>
            <stop stop-color="#3F6DFF" offset="100%"></stop>
        </linearGradient>
        <polygon id="path-28" points="0 30.5970165 18.2991195 62.1214817 35.9093124 31.6598464 17.6654825 0"></polygon>
        <linearGradient x1="49.9998167%" y1="-8.17199179%" x2="49.9998167%" y2="457.250377%" id="linearGradient-30">
            <stop stop-color="#7B9AFF" offset="0%"></stop>
            <stop stop-color="#3F6DFF" offset="100%"></stop>
        </linearGradient>
        <polygon id="path-31" points="0 65.2510717 36.0523634 66.3842294 56.5964183 32.5178463 37.7198291 0"></polygon>
        <linearGradient x1="50.0003304%" y1="-119.697987%" x2="50.0003304%" y2="315.838094%" id="linearGradient-33">
            <stop stop-color="#7B9AFF" offset="0%"></stop>
            <stop stop-color="#3F6DFF" offset="100%"></stop>
        </linearGradient>
        <polygon id="path-34" points="0 30.1855985 17.9208681 62.0995043 36.1322262 30.5952583 17.4285269 0"></polygon>
        <linearGradient x1="50.0002473%" y1="-367.540682%" x2="50.0002473%" y2="98.0464023%" id="linearGradient-36">
            <stop stop-color="#7B9AFF" offset="0%"></stop>
            <stop stop-color="#3F6DFF" offset="100%"></stop>
        </linearGradient>
        <polygon id="path-37" points="0 0 17.7786947 30.8554714 53.7046817 30.8554714 35.7469539 0"></polygon>
        <linearGradient x1="49.9987373%" y1="-9.09352973%" x2="49.9987373%" y2="927.943755%" id="linearGradient-39">
            <stop stop-color="#7B9AFF" offset="0%"></stop>
            <stop stop-color="#3F6DFF" offset="100%"></stop>
        </linearGradient>
        <polygon id="path-40" points="17.4241388 0 0 31.9376414 36.119062 31.9376414 53.4378872 0"></polygon>
        <linearGradient x1="49.9997899%" y1="-819.93597%" x2="49.9997899%" y2="85.3508907%" id="linearGradient-42">
            <stop stop-color="#7B9AFF" offset="0%"></stop>
            <stop stop-color="#3F6DFF" offset="100%"></stop>
        </linearGradient>
        <polygon id="path-43" points="0 0 17.4057089 30.2066969 54.6112565 30.2066969 37.0317801 0"></polygon>
        <linearGradient x1="50.0007608%" y1="-746.546195%" x2="50.0007608%" y2="210.616625%" id="linearGradient-45">
            <stop stop-color="#7B9AFF" offset="0%"></stop>
            <stop stop-color="#3F6DFF" offset="100%"></stop>
        </linearGradient>
        <polygon id="path-46" points="17.7365692 0 0 31.9376414 74.9806663 31.9376414 92.9857853 0"></polygon>
        <linearGradient x1="50.0001717%" y1="-819.93597%" x2="50.0001717%" y2="85.3508907%" id="linearGradient-48">
            <stop stop-color="#7B9AFF" offset="0%"></stop>
            <stop stop-color="#3F6DFF" offset="100%"></stop>
        </linearGradient>
        <polygon id="path-49" points="0 66.9204794 37.4240733 66.9204794 74.4268922 0.286586047 38.685204 0"></polygon>
        <linearGradient x1="50.0003889%" y1="-282.115677%" x2="50.0003889%" y2="149.930349%" id="linearGradient-51">
            <stop stop-color="#7B9AFF" offset="0%"></stop>
            <stop stop-color="#3F6DFF" offset="100%"></stop>
        </linearGradient>
        <polygon id="path-52" points="0 0 18.3394897 30.7675616 54.7253463 31.0594222 36.1111635 0"></polygon>
        <linearGradient x1="49.9995673%" y1="-488.991928%" x2="49.9995673%" y2="441.892329%" id="linearGradient-54">
            <stop stop-color="#7B9AFF" offset="0%"></stop>
            <stop stop-color="#3F6DFF" offset="100%"></stop>
        </linearGradient>
        <polygon id="path-55" points="0 30.440537 35.4345235 91.4842442 39.1099689 97.5878237 57.1493148 68.6417538 17.5952735 0"></polygon>
        <linearGradient x1="49.9993877%" y1="-43.9457503%" x2="49.9993877%" y2="252.32817%" id="linearGradient-57">
            <stop stop-color="#7B9AFF" offset="0%"></stop>
            <stop stop-color="#3F6DFF" offset="100%"></stop>
        </linearGradient>
        <polygon id="path-58" points="16.9414514 0 0 30.5073485 72.1389537 30.5073485 53.4159469 0"></polygon>
        <linearGradient x1="49.9999032%" y1="-738.203435%" x2="49.9999032%" y2="209.526492%" id="linearGradient-60">
            <stop stop-color="#7B9AFF" offset="0%"></stop>
            <stop stop-color="#3F6DFF" offset="100%"></stop>
        </linearGradient>
        <polygon id="path-61" points="0 0 39.0889062 67.8347416 76.0847041 67.8347416 36.6052599 0"></polygon>
        <linearGradient x1="49.999762%" y1="-223.364183%" x2="49.999762%" y2="202.858818%" id="linearGradient-63">
            <stop stop-color="#7B9AFF" offset="0%"></stop>
            <stop stop-color="#3F6DFF" offset="100%"></stop>
        </linearGradient>
    </defs>
    <g id="页面-1" stroke="none" stroke-width="1" fill="none" fill-rule="evenodd">
        <g id="编组-46备份">
            <g id="编组">
                <g transform="translate(173.386593, 37.009160)">
                    <mask id="mask-2" fill="white">
                        <use xlink:href="#path-1"></use>
                    </mask>
                    <g id="Clip-2"></g>
                    <polygon id="Fill-1" fill="url(#linearGradient-3)" mask="url(#mask-2)" points="39.0037777 67.6879322 75.3554073 67.6879322 35.9619692 0 0 0"></polygon>
                </g>
                <g transform="translate(194.316798, 110.850780)">
                    <mask id="mask-5" fill="white">
                        <use xlink:href="#path-4"></use>
                    </mask>
                    <g id="Clip-4"></g>
                    <polygon id="Fill-3" fill="url(#linearGradient-6)" mask="url(#mask-5)" points="19.2144704 0 0 30.8334939 34.7069819 30.8334939 36.2278861 29.9165944 53.7002937 0"></polygon>
                </g>
                <g transform="translate(213.786653, 151.697204)">
                    <mask id="mask-8" fill="white">
                        <use xlink:href="#path-7"></use>
                    </mask>
                    <g id="Clip-6"></g>
                    <polygon id="Fill-5" fill="url(#linearGradient-9)" mask="url(#mask-8)" points="20.1105138 64.851082 55.9627813 64.851082 18.5939976 0 0 30.36933"></polygon>
                </g>
                <g transform="translate(195.937750, 222.430332)">
                    <mask id="mask-11" fill="white">
                        <use xlink:href="#path-10"></use>
                    </mask>
                    <g id="Clip-8"></g>
                    <path d="M0,0 L16.7518869,30.4774591 L94.7629527,30.4774591 L77.3581213,0.270762278 L14.9361045,0.270762278 C14.4902768,0.270762278 14.0699,0.171424169 13.6863828,0 L13.6863828,0 L0,0 Z" id="Fill-7" fill="url(#linearGradient-12)" mask="url(#mask-11)"></path>
                </g>
                <g transform="translate(20.927572, 151.211062)">
                    <mask id="mask-14" fill="white">
                        <use xlink:href="#path-13"></use>
                    </mask>
                    <g id="Clip-10"></g>
                    <polygon id="Fill-9" fill="url(#linearGradient-15)" mask="url(#mask-14)" points="0 68.1644035 18.7063322 98.7622991 57.8557937 31.0365657 39.3557007 0"></polygon>
                </g>
                <g transform="translate(195.745552, 259.062359)">
                    <mask id="mask-17" fill="white">
                        <use xlink:href="#path-16"></use>
                    </mask>
                    <g id="Clip-12"></g>
                    <polygon id="Fill-11" fill="url(#linearGradient-18)" mask="url(#mask-17)" points="16.9730455 0 0 31.9376414 77.672307 31.9376414 95.0964458 0"></polygon>
                </g>
                <g transform="translate(23.016292, 259.062359)">
                    <mask id="mask-20" fill="white">
                        <use xlink:href="#path-19"></use>
                    </mask>
                    <g id="Clip-14"></g>
                    <polygon id="Fill-13" fill="url(#linearGradient-21)" mask="url(#mask-20)" points="18.4623556 0 0 31.9376414 38.2902779 31.9376414 56.0268471 0"></polygon>
                </g>
                <g transform="translate(85.869217, 39.005592)">
                    <mask id="mask-23" fill="white">
                        <use xlink:href="#path-22"></use>
                    </mask>
                    <g id="Clip-16"></g>
                    <polygon id="Fill-15" fill="url(#linearGradient-24)" mask="url(#mask-23)" points="0 67.8892457 18.4053107 99.1429486 57.4950945 31.5209488 39.1986079 0"></polygon>
                </g>
                <g transform="translate(172.334334, 225.781455)">
                    <mask id="mask-26" fill="white">
                        <use xlink:href="#path-25"></use>
                    </mask>
                    <g id="Clip-18"></g>
                    <polygon id="Fill-17" fill="url(#linearGradient-27)" mask="url(#mask-26)" points="0 30.2040596 18.2824448 61.7733588 35.0466183 30.2286743 18.4333944 0"></polygon>
                </g>
                <g transform="translate(128.610751, 2.270711)">
                    <mask id="mask-29" fill="white">
                        <use xlink:href="#path-28"></use>
                    </mask>
                    <g id="Clip-20"></g>
                    <polygon id="Fill-19" fill="url(#linearGradient-30)" mask="url(#mask-29)" points="0 30.5970165 18.2991195 62.1214817 35.9093124 31.6598464 17.6654825 0"></polygon>
                </g>
                <g transform="translate(109.201450, 76.654735)">
                    <mask id="mask-32" fill="white">
                        <use xlink:href="#path-31"></use>
                    </mask>
                    <g id="Clip-22"></g>
                    <polygon id="Fill-21" fill="url(#linearGradient-33)" mask="url(#mask-32)" points="0 65.2510717 36.0523634 66.3842294 56.5964183 32.5178463 37.7198291 0"></polygon>
                </g>
                <g transform="translate(0.000000, 225.435090)">
                    <mask id="mask-35" fill="white">
                        <use xlink:href="#path-34"></use>
                    </mask>
                    <g id="Clip-24"></g>
                    <polygon id="Fill-23" fill="url(#linearGradient-36)" mask="url(#mask-35)" points="0 30.1855985 17.9208681 62.0995043 36.1322262 30.5952583 17.4285269 0"></polygon>
                </g>
                <g transform="translate(152.062339, 0.000000)">
                    <mask id="mask-38" fill="white">
                        <use xlink:href="#path-37"></use>
                    </mask>
                    <g id="Clip-26"></g>
                    <polygon id="Fill-25" fill="url(#linearGradient-39)" mask="url(#mask-38)" points="0 0 17.7786947 30.8554714 53.7046817 30.8554714 35.7469539 0"></polygon>
                </g>
                <g transform="translate(280.418582, 259.062359)">
                    <mask id="mask-41" fill="white">
                        <use xlink:href="#path-40"></use>
                    </mask>
                    <g id="Clip-28"></g>
                    <polygon id="Fill-27" fill="url(#linearGradient-42)" mask="url(#mask-41)" points="17.4241388 0 0 31.9376414 36.119062 31.9376414 53.4378872 0"></polygon>
                </g>
                <g transform="translate(280.388743, 222.701094)">
                    <mask id="mask-44" fill="white">
                        <use xlink:href="#path-43"></use>
                    </mask>
                    <g id="Clip-30"></g>
                    <polygon id="Fill-29" fill="url(#linearGradient-45)" mask="url(#mask-44)" points="0 0 17.4057089 30.2066969 54.6112565 30.2066969 37.0317801 0"></polygon>
                </g>
                <g transform="translate(68.336254, 259.062359)">
                    <mask id="mask-47" fill="white">
                        <use xlink:href="#path-46"></use>
                    </mask>
                    <g id="Clip-32"></g>
                    <polygon id="Fill-31" fill="url(#linearGradient-48)" mask="url(#mask-47)" points="17.7365692 0 0 31.9376414 74.9806663 31.9376414 92.9857853 0"></polygon>
                </g>
                <g transform="translate(45.035615, 185.987312)">
                    <mask id="mask-50" fill="white">
                        <use xlink:href="#path-49"></use>
                    </mask>
                    <g id="Clip-34"></g>
                    <polygon id="Fill-33" fill="url(#linearGradient-51)" mask="url(#mask-50)" points="0 66.9204794 37.4240733 66.9204794 74.4268922 0.286586047 38.685204 0"></polygon>
                </g>
                <g transform="translate(66.162406, 149.072216)">
                    <mask id="mask-53" fill="white">
                        <use xlink:href="#path-52"></use>
                    </mask>
                    <g id="Clip-36"></g>
                    <polygon id="Fill-35" fill="url(#linearGradient-54)" mask="url(#mask-53)" points="0 0 18.3394897 30.7675616 54.7253463 31.0594222 36.1111635 0"></polygon>
                </g>
                <g transform="translate(150.467716, 40.079850)">
                    <mask id="mask-56" fill="white">
                        <use xlink:href="#path-55"></use>
                    </mask>
                    <g id="Clip-38"></g>
                    <polygon id="Fill-37" fill="url(#linearGradient-57)" mask="url(#mask-56)" points="0 30.440537 35.4345235 91.4842442 39.1099689 97.5878237 57.1493148 68.6417538 17.5952735 0"></polygon>
                </g>
                <g transform="translate(89.489373, 222.400443)">
                    <mask id="mask-59" fill="white">
                        <use xlink:href="#path-58"></use>
                    </mask>
                    <g id="Clip-40"></g>
                    <polygon id="Fill-39" fill="url(#linearGradient-60)" mask="url(#mask-59)" points="16.9414514 0 0 30.5073485 72.1389537 30.5073485 53.4159469 0"></polygon>
                </g>
                <g transform="translate(237.754279, 148.712665)">
                    <mask id="mask-62" fill="white">
                        <use xlink:href="#path-61"></use>
                    </mask>
                    <g id="Clip-42"></g>
                    <polygon id="Fill-41" fill="url(#linearGradient-63)" mask="url(#mask-62)" points="0 0 39.0889062 67.8347416 76.0847041 67.8347416 36.6052599 0"></polygon>
                </g>
            </g>
            <g id="编组-42" transform="translate(384.000000, 47.000000)" fill="#FFFFFF" fill-rule="nonzero">
                <path d="M17.22,57 L17.22,46.2 L38.82,46.2 C43.9,46.2 47.76,44.78 50.4,41.94 C53.04,39.1 54.36,35.32 54.36,30.6 C54.36,25.88 53.04,22.1 50.4,19.26 C47.76,16.42 43.9,15 38.82,15 L38.82,15 L3.9,15 L3.9,57 L17.22,57 Z M35.04,35.64 L17.22,35.64 L17.22,25.56 L35.04,25.56 C36.92,25.56 38.37,25.99 39.39,26.85 C40.41,27.71 40.92,28.96 40.92,30.6 C40.92,32.2 40.41,33.44 39.39,34.32 C38.37,35.2 36.92,35.64 35.04,35.64 L35.04,35.64 Z M81.78,57.6 C89.98,57.6 95.92,56.35 99.6,53.85 C103.28,51.35 105.12,47.4 105.12,42 C105.12,36.6 103.28,32.65 99.6,30.15 C95.92,27.65 89.98,26.4 81.78,26.4 C73.58,26.4 67.64,27.65 63.96,30.15 C60.28,32.65 58.44,36.6 58.44,42 C58.44,47.4 60.28,51.35 63.96,53.85 C67.64,56.35 73.58,57.6 81.78,57.6 Z M81.78,49.56 C78.1,49.56 75.34,48.9 73.5,47.58 C71.66,46.26 70.74,44.4 70.74,42 C70.74,39.6 71.66,37.74 73.5,36.42 C75.34,35.1 78.1,34.44 81.78,34.44 C85.46,34.44 88.22,35.1 90.06,36.42 C91.9,37.74 92.82,39.6 92.82,42 C92.82,44.4 91.9,46.26 90.06,47.58 C88.22,48.9 85.46,49.56 81.78,49.56 Z M133.86,57 L141.06,39.84 L148.26,57 L162.06,57 L175.26,27 L162.66,27 L155.04,46.02 L147.06,27 L135.66,27 L127.68,46.02 L120.06,27 L106.86,27 L120.06,57 L133.86,57 Z M201.6,57.6 C209.08,57.6 214.8,56.68 218.76,54.84 C222.72,53 224.7,50.2 224.7,46.44 L224.7,46.44 L212.16,46.44 C211.52,48.6 208.04,49.68 201.72,49.68 C198.2,49.68 195.59,49.25 193.89,48.39 C192.19,47.53 191.14,46.16 190.74,44.28 L190.74,44.28 L224.76,44.28 C224.84,43.32 224.88,42.56 224.88,42 C224.88,36.84 223.04,32.95 219.36,30.33 C215.68,27.71 209.8,26.4 201.72,26.4 C193.48,26.4 187.5,27.66 183.78,30.18 C180.06,32.7 178.2,36.64 178.2,42 C178.2,45.6 178.93,48.53 180.39,50.79 C181.85,53.05 184.29,54.75 187.71,55.89 C191.13,57.03 195.76,57.6 201.6,57.6 Z M212.34,38.88 L191.04,38.88 C191.64,37.32 192.82,36.17 194.58,35.43 C196.34,34.69 198.72,34.32 201.72,34.32 C207.52,34.32 211.06,35.84 212.34,38.88 L212.34,38.88 Z M243.36,57 L243.36,42.84 C243.36,40.72 244.03,39.07 245.37,37.89 C246.71,36.71 248.44,36.12 250.56,36.12 C252.44,36.12 253.97,36.62 255.15,37.62 C256.33,38.62 256.92,39.92 256.92,41.52 L256.92,41.52 L269.04,41.52 C269.04,36.32 267.81,32.5 265.35,30.06 C262.89,27.62 259.52,26.4 255.24,26.4 C253.08,26.4 250.98,26.83 248.94,27.69 C246.9,28.55 245.04,29.86 243.36,31.62 L243.36,31.62 L243.36,27 L230.64,27 L230.64,57 L243.36,57 Z M296.22,57.6 C303.7,57.6 309.42,56.68 313.38,54.84 C317.34,53 319.32,50.2 319.32,46.44 L319.32,46.44 L306.78,46.44 C306.14,48.6 302.66,49.68 296.34,49.68 C292.82,49.68 290.21,49.25 288.51,48.39 C286.81,47.53 285.76,46.16 285.36,44.28 L285.36,44.28 L319.38,44.28 C319.46,43.32 319.5,42.56 319.5,42 C319.5,36.84 317.66,32.95 313.98,30.33 C310.3,27.71 304.42,26.4 296.34,26.4 C288.1,26.4 282.12,27.66 278.4,30.18 C274.68,32.7 272.82,36.64 272.82,42 C272.82,45.6 273.55,48.53 275.01,50.79 C276.47,53.05 278.91,54.75 282.33,55.89 C285.75,57.03 290.38,57.6 296.22,57.6 Z M306.96,38.88 L285.66,38.88 C286.26,37.32 287.44,36.17 289.2,35.43 C290.96,34.69 293.34,34.32 296.34,34.32 C302.14,34.32 305.68,35.84 306.96,38.88 L306.96,38.88 Z M342.48,57.6 C348.48,57.6 353.06,56.24 356.22,53.52 L356.22,53.52 L356.22,57 L368.94,57 L368.94,15 L356.22,15 L356.22,30.48 C353.06,27.76 348.48,26.4 342.48,26.4 C336.6,26.4 332.02,27.64 328.74,30.12 C325.46,32.6 323.82,36.56 323.82,42 C323.82,47.44 325.46,51.4 328.74,53.88 C332.02,56.36 336.6,57.6 342.48,57.6 Z M346.08,48.84 C339.44,48.84 336.12,46.56 336.12,42 C336.12,37.44 339.44,35.16 346.08,35.16 C348.84,35.16 351.22,35.7 353.22,36.78 C355.22,37.86 356.22,39.6 356.22,42 C356.22,44.4 355.22,46.14 353.22,47.22 C351.22,48.3 348.84,48.84 346.08,48.84 Z M426.84,57.6 C432.72,57.6 437.3,56.36 440.58,53.88 C443.86,51.4 445.5,47.44 445.5,42 C445.5,36.56 443.86,32.6 440.58,30.12 C437.3,27.64 432.72,26.4 426.84,26.4 C420.84,26.4 416.26,27.76 413.1,30.48 L413.1,30.48 L413.1,15 L400.38,15 L400.38,57 L413.1,57 L413.1,53.52 C416.26,56.24 420.84,57.6 426.84,57.6 Z M423.24,48.84 C420.48,48.84 418.1,48.3 416.1,47.22 C414.1,46.14 413.1,44.4 413.1,42 C413.1,39.6 414.1,37.86 416.1,36.78 C418.1,35.7 420.48,35.16 423.24,35.16 C429.88,35.16 433.2,37.44 433.2,42 C433.2,46.56 429.88,48.84 423.24,48.84 Z M462.12,70.2 C464.84,70.2 467,69.66 468.6,68.58 C470.2,67.5 471.72,65.58 473.16,62.82 L473.16,62.82 L491.7,27 L479.52,27 L470.46,44.34 L460.2,27 L447.42,27 L464.46,55.68 L463.14,58.26 C462.78,58.94 462.33,59.44 461.79,59.76 C461.25,60.08 460.58,60.24 459.78,60.24 L459.78,60.24 L454.98,60.24 L454.98,70.2 L462.12,70.2 Z" id="Poweredby"></path>
                <path d="M22.96,178 L22.96,146.24 L42.88,178 L58.8,178 L78.64,144.16 L78.64,178 L96.4,178 L96.4,122 L74,122 L50.64,162 L25.6,122 L5.2,122 L5.2,178 L22.96,178 Z M119.52,178 L123.68,170.08 L158.32,170.08 L162.4,178 L181.28,178 L152.24,122 L131.92,122 L102.4,178 L119.52,178 Z M150.96,156 L131.12,156 L141.12,136.96 L150.96,156 Z M205.04,178 L205.04,163.6 L233.84,163.6 C240.613333,163.6 245.76,161.706667 249.28,157.92 C252.8,154.133333 254.56,149.093333 254.56,142.8 C254.56,136.506667 252.8,131.466667 249.28,127.68 C245.76,123.893333 240.613333,122 233.84,122 L233.84,122 L187.28,122 L187.28,178 L205.04,178 Z M228.8,149.52 L205.04,149.52 L205.04,136.08 L228.8,136.08 C231.306667,136.08 233.24,136.653333 234.6,137.8 C235.96,138.946667 236.64,140.613333 236.64,142.8 C236.64,144.933333 235.96,146.586667 234.6,147.76 C233.24,148.933333 231.306667,149.52 228.8,149.52 L228.8,149.52 Z M312.08,178 L312.08,163.6 L340.88,163.6 C347.653333,163.6 352.8,161.706667 356.32,157.92 C359.84,154.133333 361.6,149.093333 361.6,142.8 C361.6,136.506667 359.84,131.466667 356.32,127.68 C352.8,123.893333 347.653333,122 340.88,122 L340.88,122 L294.32,122 L294.32,178 L312.08,178 Z M335.84,149.52 L312.08,149.52 L312.08,136.08 L335.84,136.08 C338.346667,136.08 340.28,136.653333 341.64,137.8 C343,138.946667 343.68,140.613333 343.68,142.8 C343.68,144.933333 343,146.586667 341.64,147.76 C340.28,148.933333 338.346667,149.52 335.84,149.52 L335.84,149.52 Z M387.12,178 L387.12,161.04 L406.24,161.04 C410.346667,161.04 413.453333,161.866667 415.56,163.52 C417.666667,165.173333 418.72,167.813333 418.72,171.44 L418.72,171.44 L418.72,178 L436.64,178 L436.64,167.68 C436.64,164.373333 435.693333,161.493333 433.8,159.04 C431.906667,156.586667 429.28,154.693333 425.92,153.36 C429.653333,152.186667 432.373333,150.36 434.08,147.88 C435.786667,145.4 436.64,142.266667 436.64,138.48 C436.64,133.04 434.826667,128.933333 431.2,126.16 C427.573333,123.386667 421.733333,122 413.68,122 L413.68,122 L369.36,122 L369.36,178 L387.12,178 Z M411.6,148.24 L387.12,148.24 L387.12,136.08 L411.6,136.08 C413.84,136.08 415.586667,136.6 416.84,137.64 C418.093333,138.68 418.72,140.186667 418.72,142.16 C418.72,144.133333 418.093333,145.64 416.84,146.68 C415.586667,147.72 413.84,148.24 411.6,148.24 L411.6,148.24 Z M484.08,178.8 C497.68,178.8 507.733333,176.506667 514.24,171.92 C520.746667,167.333333 524,160.026667 524,150 C524,139.973333 520.746667,132.666667 514.24,128.08 C507.733333,123.493333 497.68,121.2 484.08,121.2 C470.48,121.2 460.426667,123.493333 453.92,128.08 C447.413333,132.666667 444.16,139.973333 444.16,150 C444.16,160.026667 447.413333,167.333333 453.92,171.92 C460.426667,176.506667 470.48,178.8 484.08,178.8 Z M484.08,165.84 C476.613333,165.84 471.08,164.52 467.48,161.88 C463.88,159.24 462.08,155.28 462.08,150 C462.08,144.666667 463.88,140.693333 467.48,138.08 C471.08,135.466667 476.613333,134.16 484.08,134.16 C491.546667,134.16 497.08,135.466667 500.68,138.08 C504.28,140.693333 506.08,144.666667 506.08,150 C506.08,155.28 504.28,159.24 500.68,161.88 C497.08,164.52 491.546667,165.84 484.08,165.84 Z M570.08,178 L570.08,136.08 L594.08,136.08 L594.08,122 L528.32,122 L528.32,136.08 L552.32,136.08 L552.32,178 L570.08,178 Z M638.32,178.8 C651.92,178.8 661.973333,176.506667 668.48,171.92 C674.986667,167.333333 678.24,160.026667 678.24,150 C678.24,139.973333 674.986667,132.666667 668.48,128.08 C661.973333,123.493333 651.92,121.2 638.32,121.2 C624.72,121.2 614.666667,123.493333 608.16,128.08 C601.653333,132.666667 598.4,139.973333 598.4,150 C598.4,160.026667 601.653333,167.333333 608.16,171.92 C614.666667,176.506667 624.72,178.8 638.32,178.8 Z M638.32,165.84 C630.853333,165.84 625.32,164.52 621.72,161.88 C618.12,159.24 616.32,155.28 616.32,150 C616.32,144.666667 618.12,140.693333 621.72,138.08 C625.32,135.466667 630.853333,134.16 638.32,134.16 C645.786667,134.16 651.32,135.466667 654.92,138.08 C658.52,140.693333 660.32,144.666667 660.32,150 C660.32,155.28 658.52,159.24 654.92,161.88 C651.32,164.52 645.786667,165.84 638.32,165.84 Z M722.8,178.8 C747.386667,178.8 760.026667,171.333333 760.72,156.4 L760.72,156.4 L742.8,156.4 C742.48,159.12 740.64,161.373333 737.28,163.16 C733.92,164.946667 729.093333,165.84 722.8,165.84 C715.813333,165.84 710.666667,164.533333 707.36,161.92 C704.053333,159.306667 702.4,155.333333 702.4,150 C702.4,144.666667 704.053333,140.693333 707.36,138.08 C710.666667,135.466667 715.813333,134.16 722.8,134.16 C729.093333,134.16 733.92,135.053333 737.28,136.84 C740.64,138.626667 742.48,140.88 742.8,143.6 L742.8,143.6 L760.72,143.6 C760.026667,128.666667 747.386667,121.2 722.8,121.2 C713.786667,121.2 706.48,122.186667 700.88,124.16 C695.28,126.133333 691.146667,129.226667 688.48,133.44 C685.813333,137.653333 684.48,143.173333 684.48,150 C684.48,156.826667 685.813333,162.346667 688.48,166.56 C691.146667,170.773333 695.28,173.866667 700.88,175.84 C706.48,177.813333 713.786667,178.8 722.8,178.8 Z M806.88,178.8 C820.48,178.8 830.533333,176.506667 837.04,171.92 C843.546667,167.333333 846.8,160.026667 846.8,150 C846.8,139.973333 843.546667,132.666667 837.04,128.08 C830.533333,123.493333 820.48,121.2 806.88,121.2 C793.28,121.2 783.226667,123.493333 776.72,128.08 C770.213333,132.666667 766.96,139.973333 766.96,150 C766.96,160.026667 770.213333,167.333333 776.72,171.92 C783.226667,176.506667 793.28,178.8 806.88,178.8 Z M806.88,165.84 C799.413333,165.84 793.88,164.52 790.28,161.88 C786.68,159.24 784.88,155.28 784.88,150 C784.88,144.666667 786.68,140.693333 790.28,138.08 C793.88,135.466667 799.413333,134.16 806.88,134.16 C814.346667,134.16 819.88,135.466667 823.48,138.08 C827.08,140.693333 828.88,144.666667 828.88,150 C828.88,155.28 827.08,159.24 823.48,161.88 C819.88,164.52 814.346667,165.84 806.88,165.84 Z M910.16,178 L910.16,163.92 L872.88,163.92 L872.88,122 L855.12,122 L855.12,178 L910.16,178 Z" id="MAPPROTOCOL"></path>
            </g>
        </g>
    </g>
</svg>