<?xml version="1.0" encoding="UTF-8"?>
<svg width="1549px" height="332px" viewBox="0 0 1549 332" version="1.1" xmlns="http://www.w3.org/2000/svg" xmlns:xlink="http://www.w3.org/1999/xlink">
    <title>编组 38备份 2</title>
    <defs>
        <polygon id="path-1" points="44.443 76.997 85.864 76.997 40.977 0 2.84217094e-14 0"></polygon>
        <linearGradient x1="50.0004101%" y1="-58.821432%" x2="50.0004101%" y2="368.326011%" id="linearGradient-3">
            <stop stop-color="#7B9AFF" offset="0%"></stop>
            <stop stop-color="#3F6DFF" offset="100%"></stop>
        </linearGradient>
        <linearGradient x1="50.0004101%" y1="-58.821432%" x2="50.0004101%" y2="368.326011%" id="linearGradient-4">
            <stop stop-color="#000000" offset="0%"></stop>
            <stop stop-color="#000000" offset="100%"></stop>
        </linearGradient>
        <polygon id="path-5" points="21.894 0 -2.84217094e-14 35.074 39.547 35.074 41.28 34.031 61.189 0"></polygon>
        <linearGradient x1="49.9999353%" y1="-368.614181%" x2="49.9999353%" y2="569.091004%" id="linearGradient-7">
            <stop stop-color="#7B9AFF" offset="0%"></stop>
            <stop stop-color="#3F6DFF" offset="100%"></stop>
        </linearGradient>
        <linearGradient x1="49.9999353%" y1="-368.614181%" x2="49.9999353%" y2="569.091004%" id="linearGradient-8">
            <stop stop-color="#000000" offset="0%"></stop>
            <stop stop-color="#000000" offset="100%"></stop>
        </linearGradient>
        <polygon id="path-9" points="22.915 73.77 63.767 73.77 21.187 0 -2.84217094e-14 34.546"></polygon>
        <linearGradient x1="50.0004149%" y1="-238.242833%" x2="50.0004149%" y2="207.589777%" id="linearGradient-11">
            <stop stop-color="#7B9AFF" offset="0%"></stop>
            <stop stop-color="#3F6DFF" offset="100%"></stop>
        </linearGradient>
        <linearGradient x1="50.0004149%" y1="-238.242833%" x2="50.0004149%" y2="207.589777%" id="linearGradient-12">
            <stop stop-color="#000000" offset="0%"></stop>
            <stop stop-color="#000000" offset="100%"></stop>
        </linearGradient>
        <path d="M2.84217094e-14,0 L19.088,34.669 L107.978,34.669 L88.146,0.308 L17.019,0.308 C16.511,0.308 16.032,0.195 15.595,0 L15.595,0 L2.84217094e-14,0 Z" id="path-13"></path>
        <linearGradient x1="50.0009109%" y1="-739.025464%" x2="50.0009109%" y2="209.633905%" id="linearGradient-15">
            <stop stop-color="#7B9AFF" offset="0%"></stop>
            <stop stop-color="#3F6DFF" offset="100%"></stop>
        </linearGradient>
        <linearGradient x1="50.0009109%" y1="-739.025464%" x2="50.0009109%" y2="209.633905%" id="linearGradient-16">
            <stop stop-color="#000000" offset="0%"></stop>
            <stop stop-color="#000000" offset="100%"></stop>
        </linearGradient>
        <polygon id="path-17" points="-3.55271368e-15 77.539 21.315 112.345 65.924 35.305 44.844 0"></polygon>
        <linearGradient x1="49.9994656%" y1="-155.947072%" x2="49.9994656%" y2="136.803577%" id="linearGradient-19">
            <stop stop-color="#7B9AFF" offset="0%"></stop>
            <stop stop-color="#3F6DFF" offset="100%"></stop>
        </linearGradient>
        <linearGradient x1="49.9994656%" y1="-155.947072%" x2="49.9994656%" y2="136.803577%" id="linearGradient-20">
            <stop stop-color="#000000" offset="0%"></stop>
            <stop stop-color="#000000" offset="100%"></stop>
        </linearGradient>
        <polygon id="path-21" points="19.34 0 2.84217094e-14 36.33 88.504 36.33 108.358 0"></polygon>
        <linearGradient x1="50.0002676%" y1="-819.93597%" x2="50.0002676%" y2="85.3508907%" id="linearGradient-23">
            <stop stop-color="#7B9AFF" offset="0%"></stop>
            <stop stop-color="#3F6DFF" offset="100%"></stop>
        </linearGradient>
        <linearGradient x1="50.0002676%" y1="-819.93597%" x2="50.0002676%" y2="85.3508907%" id="linearGradient-24">
            <stop stop-color="#000000" offset="0%"></stop>
            <stop stop-color="#000000" offset="100%"></stop>
        </linearGradient>
        <polygon id="path-25" points="21.037 0 0 36.33 43.63 36.33 63.84 0"></polygon>
        <linearGradient x1="49.9997071%" y1="-819.93597%" x2="49.9997071%" y2="85.3508907%" id="linearGradient-27">
            <stop stop-color="#7B9AFF" offset="0%"></stop>
            <stop stop-color="#3F6DFF" offset="100%"></stop>
        </linearGradient>
        <linearGradient x1="49.9997071%" y1="-819.93597%" x2="49.9997071%" y2="85.3508907%" id="linearGradient-28">
            <stop stop-color="#000000" offset="0%"></stop>
            <stop stop-color="#000000" offset="100%"></stop>
        </linearGradient>
        <polygon id="path-29" points="-1.42108547e-14 77.226 20.972 112.778 65.513 35.856 44.665 0"></polygon>
        <linearGradient x1="50.0007368%" y1="-42.1728866%" x2="50.0007368%" y2="249.453775%" id="linearGradient-31">
            <stop stop-color="#7B9AFF" offset="0%"></stop>
            <stop stop-color="#3F6DFF" offset="100%"></stop>
        </linearGradient>
        <linearGradient x1="50.0007368%" y1="-42.1728866%" x2="50.0007368%" y2="249.453775%" id="linearGradient-32">
            <stop stop-color="#000000" offset="0%"></stop>
            <stop stop-color="#000000" offset="100%"></stop>
        </linearGradient>
        <polygon id="path-33" points="0 34.358 20.832 70.269 39.934 34.386 21.004 0"></polygon>
        <linearGradient x1="50.0003431%" y1="-370.041893%" x2="50.0003431%" y2="98.0033565%" id="linearGradient-35">
            <stop stop-color="#7B9AFF" offset="0%"></stop>
            <stop stop-color="#3F6DFF" offset="100%"></stop>
        </linearGradient>
        <linearGradient x1="50.0003431%" y1="-370.041893%" x2="50.0003431%" y2="98.0033565%" id="linearGradient-36">
            <stop stop-color="#000000" offset="0%"></stop>
            <stop stop-color="#000000" offset="100%"></stop>
        </linearGradient>
        <polygon id="path-37" points="0 34.805 20.851 70.665 40.917 36.014 20.129 0"></polygon>
        <linearGradient x1="49.9998167%" y1="-8.17199179%" x2="49.9998167%" y2="457.250377%" id="linearGradient-39">
            <stop stop-color="#7B9AFF" offset="0%"></stop>
            <stop stop-color="#3F6DFF" offset="100%"></stop>
        </linearGradient>
        <linearGradient x1="49.9998167%" y1="-8.17199179%" x2="49.9998167%" y2="457.250377%" id="linearGradient-40">
            <stop stop-color="#000000" offset="0%"></stop>
            <stop stop-color="#000000" offset="100%"></stop>
        </linearGradient>
        <polygon id="path-41" points="-1.42108547e-14 74.225 41.08 75.514 64.489 36.99 42.98 0"></polygon>
        <linearGradient x1="50.0003304%" y1="-119.697987%" x2="50.0003304%" y2="315.838094%" id="linearGradient-43">
            <stop stop-color="#7B9AFF" offset="0%"></stop>
            <stop stop-color="#3F6DFF" offset="100%"></stop>
        </linearGradient>
        <linearGradient x1="50.0003304%" y1="-119.697987%" x2="50.0003304%" y2="315.838094%" id="linearGradient-44">
            <stop stop-color="#000000" offset="0%"></stop>
            <stop stop-color="#000000" offset="100%"></stop>
        </linearGradient>
        <polygon id="path-45" points="0 34.337 20.42 70.64 41.171 34.803 19.859 0"></polygon>
        <linearGradient x1="50.0002473%" y1="-367.540682%" x2="50.0002473%" y2="98.0464023%" id="linearGradient-47">
            <stop stop-color="#7B9AFF" offset="0%"></stop>
            <stop stop-color="#3F6DFF" offset="100%"></stop>
        </linearGradient>
        <linearGradient x1="50.0002473%" y1="-367.540682%" x2="50.0002473%" y2="98.0464023%" id="linearGradient-48">
            <stop stop-color="#000000" offset="0%"></stop>
            <stop stop-color="#000000" offset="100%"></stop>
        </linearGradient>
        <polygon id="path-49" points="0 -5.68434189e-14 20.258 35.099 61.194 35.099 40.732 -5.68434189e-14"></polygon>
        <linearGradient x1="49.9987373%" y1="-9.09352973%" x2="49.9987373%" y2="927.943755%" id="linearGradient-51">
            <stop stop-color="#7B9AFF" offset="0%"></stop>
            <stop stop-color="#3F6DFF" offset="100%"></stop>
        </linearGradient>
        <linearGradient x1="49.9987373%" y1="-9.09352973%" x2="49.9987373%" y2="927.943755%" id="linearGradient-52">
            <stop stop-color="#000000" offset="0%"></stop>
            <stop stop-color="#000000" offset="100%"></stop>
        </linearGradient>
        <polygon id="path-53" points="19.854 0 0 36.33 41.156 36.33 60.89 0"></polygon>
        <linearGradient x1="49.9997899%" y1="-819.93597%" x2="49.9997899%" y2="85.3508907%" id="linearGradient-55">
            <stop stop-color="#7B9AFF" offset="0%"></stop>
            <stop stop-color="#3F6DFF" offset="100%"></stop>
        </linearGradient>
        <linearGradient x1="49.9997899%" y1="-819.93597%" x2="49.9997899%" y2="85.3508907%" id="linearGradient-56">
            <stop stop-color="#000000" offset="0%"></stop>
            <stop stop-color="#000000" offset="100%"></stop>
        </linearGradient>
        <polygon id="path-57" points="0 0 19.833 34.361 62.227 34.361 42.196 0"></polygon>
        <linearGradient x1="50.0007608%" y1="-746.546195%" x2="50.0007608%" y2="210.616625%" id="linearGradient-59">
            <stop stop-color="#7B9AFF" offset="0%"></stop>
            <stop stop-color="#3F6DFF" offset="100%"></stop>
        </linearGradient>
        <linearGradient x1="50.0007608%" y1="-746.546195%" x2="50.0007608%" y2="210.616625%" id="linearGradient-60">
            <stop stop-color="#000000" offset="0%"></stop>
            <stop stop-color="#000000" offset="100%"></stop>
        </linearGradient>
        <polygon id="path-61" points="20.21 0 1.42108547e-14 36.33 85.437 36.33 105.953 0"></polygon>
        <linearGradient x1="50.0001717%" y1="-819.93597%" x2="50.0001717%" y2="85.3508907%" id="linearGradient-63">
            <stop stop-color="#7B9AFF" offset="0%"></stop>
            <stop stop-color="#3F6DFF" offset="100%"></stop>
        </linearGradient>
        <linearGradient x1="50.0001717%" y1="-819.93597%" x2="50.0001717%" y2="85.3508907%" id="linearGradient-64">
            <stop stop-color="#000000" offset="0%"></stop>
            <stop stop-color="#000000" offset="100%"></stop>
        </linearGradient>
        <polygon id="path-65" points="0 76.124 42.643 76.124 84.806 0.326 44.08 0"></polygon>
        <linearGradient x1="50.0003889%" y1="-282.115677%" x2="50.0003889%" y2="149.930349%" id="linearGradient-67">
            <stop stop-color="#7B9AFF" offset="0%"></stop>
            <stop stop-color="#3F6DFF" offset="100%"></stop>
        </linearGradient>
        <linearGradient x1="50.0003889%" y1="-282.115677%" x2="50.0003889%" y2="149.930349%" id="linearGradient-68">
            <stop stop-color="#000000" offset="0%"></stop>
            <stop stop-color="#000000" offset="100%"></stop>
        </linearGradient>
        <polygon id="path-69" points="1.42108547e-14 0 20.897 34.999 62.357 35.331 41.147 0"></polygon>
        <linearGradient x1="49.9995673%" y1="-488.991928%" x2="49.9995673%" y2="441.892329%" id="linearGradient-71">
            <stop stop-color="#7B9AFF" offset="0%"></stop>
            <stop stop-color="#3F6DFF" offset="100%"></stop>
        </linearGradient>
        <linearGradient x1="49.9995673%" y1="-488.991928%" x2="49.9995673%" y2="441.892329%" id="linearGradient-72">
            <stop stop-color="#000000" offset="0%"></stop>
            <stop stop-color="#000000" offset="100%"></stop>
        </linearGradient>
        <polygon id="path-73" points="2.84217094e-14 34.627 40.376 104.066 44.564 111.009 65.119 78.082 20.049 0"></polygon>
        <linearGradient x1="49.9993877%" y1="-43.9457503%" x2="49.9993877%" y2="252.32817%" id="linearGradient-75">
            <stop stop-color="#7B9AFF" offset="0%"></stop>
            <stop stop-color="#3F6DFF" offset="100%"></stop>
        </linearGradient>
        <linearGradient x1="49.9993877%" y1="-43.9457503%" x2="49.9993877%" y2="252.32817%" id="linearGradient-76">
            <stop stop-color="#000000" offset="0%"></stop>
            <stop stop-color="#000000" offset="100%"></stop>
        </linearGradient>
        <polygon id="path-77" points="19.304 0 1.42108547e-14 34.703 82.199 34.703 60.865 0"></polygon>
        <linearGradient x1="49.9999032%" y1="-738.203435%" x2="49.9999032%" y2="209.526492%" id="linearGradient-79">
            <stop stop-color="#7B9AFF" offset="0%"></stop>
            <stop stop-color="#3F6DFF" offset="100%"></stop>
        </linearGradient>
        <linearGradient x1="49.9999032%" y1="-738.203435%" x2="49.9999032%" y2="209.526492%" id="linearGradient-80">
            <stop stop-color="#000000" offset="0%"></stop>
            <stop stop-color="#000000" offset="100%"></stop>
        </linearGradient>
        <polygon id="path-81" points="-5.68434189e-14 0 44.54 77.164 86.695 77.164 41.71 0"></polygon>
        <linearGradient x1="49.999762%" y1="-223.364183%" x2="49.999762%" y2="202.858818%" id="linearGradient-83">
            <stop stop-color="#7B9AFF" offset="0%"></stop>
            <stop stop-color="#3F6DFF" offset="100%"></stop>
        </linearGradient>
        <linearGradient x1="49.999762%" y1="-223.364183%" x2="49.999762%" y2="202.858818%" id="linearGradient-84">
            <stop stop-color="#000000" offset="0%"></stop>
            <stop stop-color="#000000" offset="100%"></stop>
        </linearGradient>
    </defs>
    <g id="页面-1" stroke="none" stroke-width="1" fill="none" fill-rule="evenodd">
        <g id="编组-38备份-2">
            <g id="编组">
                <g transform="translate(197.566000, 42.099000)">
                    <mask id="mask-2" fill="white">
                        <use xlink:href="#path-1"></use>
                    </mask>
                    <g id="Clip-2"></g>
                    <polygon id="Fill-1" fill="url(#linearGradient-4)" mask="url(#mask-2)" points="44.443 76.997 85.864 76.997 40.977 0 2.84217094e-14 0"></polygon>
                </g>
                <g transform="translate(221.415000, 126.096000)">
                    <mask id="mask-6" fill="white">
                        <use xlink:href="#path-5"></use>
                    </mask>
                    <g id="Clip-4"></g>
                    <polygon id="Fill-3" fill="url(#linearGradient-8)" mask="url(#mask-6)" points="21.894 0 -2.84217094e-14 35.074 39.547 35.074 41.28 34.031 61.189 0"></polygon>
                </g>
                <g transform="translate(243.600000, 172.560000)">
                    <mask id="mask-10" fill="white">
                        <use xlink:href="#path-9"></use>
                    </mask>
                    <g id="Clip-6"></g>
                    <polygon id="Fill-5" fill="url(#linearGradient-12)" mask="url(#mask-10)" points="22.915 73.77 63.767 73.77 21.187 0 -2.84217094e-14 34.546"></polygon>
                </g>
                <g transform="translate(223.262000, 253.021000)">
                    <mask id="mask-14" fill="white">
                        <use xlink:href="#path-13"></use>
                    </mask>
                    <g id="Clip-8"></g>
                    <path d="M2.84217094e-14,0 L19.088,34.669 L107.978,34.669 L88.146,0.308 L17.019,0.308 C16.511,0.308 16.032,0.195 15.595,0 L15.595,0 L2.84217094e-14,0 Z" id="Fill-7" fill="url(#linearGradient-16)" mask="url(#mask-14)"></path>
                </g>
                <g transform="translate(23.846000, 172.007000)">
                    <mask id="mask-18" fill="white">
                        <use xlink:href="#path-17"></use>
                    </mask>
                    <g id="Clip-10"></g>
                    <polygon id="Fill-9" fill="url(#linearGradient-20)" mask="url(#mask-18)" points="-3.55271368e-15 77.539 21.315 112.345 65.924 35.305 44.844 0"></polygon>
                </g>
                <g transform="translate(223.043000, 294.691000)">
                    <mask id="mask-22" fill="white">
                        <use xlink:href="#path-21"></use>
                    </mask>
                    <g id="Clip-12"></g>
                    <polygon id="Fill-11" fill="url(#linearGradient-24)" mask="url(#mask-22)" points="19.34 0 2.84217094e-14 36.33 88.504 36.33 108.358 0"></polygon>
                </g>
                <g transform="translate(26.226000, 294.691000)">
                    <mask id="mask-26" fill="white">
                        <use xlink:href="#path-25"></use>
                    </mask>
                    <g id="Clip-14"></g>
                    <polygon id="Fill-13" fill="url(#linearGradient-28)" mask="url(#mask-26)" points="21.037 0 0 36.33 43.63 36.33 63.84 0"></polygon>
                </g>
                <g transform="translate(97.844000, 44.370000)">
                    <mask id="mask-30" fill="white">
                        <use xlink:href="#path-29"></use>
                    </mask>
                    <g id="Clip-16"></g>
                    <polygon id="Fill-15" fill="url(#linearGradient-32)" mask="url(#mask-30)" points="-1.42108547e-14 77.226 20.972 112.778 65.513 35.856 44.665 0"></polygon>
                </g>
                <g transform="translate(196.367000, 256.833000)">
                    <mask id="mask-34" fill="white">
                        <use xlink:href="#path-33"></use>
                    </mask>
                    <g id="Clip-18"></g>
                    <polygon id="Fill-17" fill="url(#linearGradient-36)" mask="url(#mask-34)" points="0 34.358 20.832 70.269 39.934 34.386 21.004 0"></polygon>
                </g>
                <g transform="translate(146.546000, 2.583000)">
                    <mask id="mask-38" fill="white">
                        <use xlink:href="#path-37"></use>
                    </mask>
                    <g id="Clip-20"></g>
                    <polygon id="Fill-19" fill="url(#linearGradient-40)" mask="url(#mask-38)" points="0 34.805 20.851 70.665 40.917 36.014 20.129 0"></polygon>
                </g>
                <g transform="translate(124.430000, 87.197000)">
                    <mask id="mask-42" fill="white">
                        <use xlink:href="#path-41"></use>
                    </mask>
                    <g id="Clip-22"></g>
                    <polygon id="Fill-21" fill="url(#linearGradient-44)" mask="url(#mask-42)" points="-1.42108547e-14 74.225 41.08 75.514 64.489 36.99 42.98 0"></polygon>
                </g>
                <g transform="translate(0.000000, 256.439000)">
                    <mask id="mask-46" fill="white">
                        <use xlink:href="#path-45"></use>
                    </mask>
                    <g id="Clip-24"></g>
                    <polygon id="Fill-23" fill="url(#linearGradient-48)" mask="url(#mask-46)" points="0 34.337 20.42 70.64 41.171 34.803 19.859 0"></polygon>
                </g>
                <g transform="translate(173.268000, 0.000000)">
                    <mask id="mask-50" fill="white">
                        <use xlink:href="#path-49"></use>
                    </mask>
                    <g id="Clip-26"></g>
                    <polygon id="Fill-25" fill="url(#linearGradient-52)" mask="url(#mask-50)" points="0 -5.68434189e-14 20.258 35.099 61.194 35.099 40.732 -5.68434189e-14"></polygon>
                </g>
                <g transform="translate(319.524000, 294.691000)">
                    <mask id="mask-54" fill="white">
                        <use xlink:href="#path-53"></use>
                    </mask>
                    <g id="Clip-28"></g>
                    <polygon id="Fill-27" fill="url(#linearGradient-56)" mask="url(#mask-54)" points="19.854 0 0 36.33 41.156 36.33 60.89 0"></polygon>
                </g>
                <g transform="translate(319.490000, 253.329000)">
                    <mask id="mask-58" fill="white">
                        <use xlink:href="#path-57"></use>
                    </mask>
                    <g id="Clip-30"></g>
                    <polygon id="Fill-29" fill="url(#linearGradient-60)" mask="url(#mask-58)" points="0 0 19.833 34.361 62.227 34.361 42.196 0"></polygon>
                </g>
                <g transform="translate(77.866000, 294.691000)">
                    <mask id="mask-62" fill="white">
                        <use xlink:href="#path-61"></use>
                    </mask>
                    <g id="Clip-32"></g>
                    <polygon id="Fill-31" fill="url(#linearGradient-64)" mask="url(#mask-62)" points="20.21 0 1.42108547e-14 36.33 85.437 36.33 105.953 0"></polygon>
                </g>
                <g transform="translate(51.316000, 211.566000)">
                    <mask id="mask-66" fill="white">
                        <use xlink:href="#path-65"></use>
                    </mask>
                    <g id="Clip-34"></g>
                    <polygon id="Fill-33" fill="url(#linearGradient-68)" mask="url(#mask-66)" points="0 76.124 42.643 76.124 84.806 0.326 44.08 0"></polygon>
                </g>
                <g transform="translate(75.389000, 169.574000)">
                    <mask id="mask-70" fill="white">
                        <use xlink:href="#path-69"></use>
                    </mask>
                    <g id="Clip-36"></g>
                    <polygon id="Fill-35" fill="url(#linearGradient-72)" mask="url(#mask-70)" points="1.42108547e-14 0 20.897 34.999 62.357 35.331 41.147 0"></polygon>
                </g>
                <g transform="translate(171.451000, 45.592000)">
                    <mask id="mask-74" fill="white">
                        <use xlink:href="#path-73"></use>
                    </mask>
                    <g id="Clip-38"></g>
                    <polygon id="Fill-37" fill="url(#linearGradient-76)" mask="url(#mask-74)" points="2.84217094e-14 34.627 40.376 104.066 44.564 111.009 65.119 78.082 20.049 0"></polygon>
                </g>
                <g transform="translate(101.969000, 252.987000)">
                    <mask id="mask-78" fill="white">
                        <use xlink:href="#path-77"></use>
                    </mask>
                    <g id="Clip-40"></g>
                    <polygon id="Fill-39" fill="url(#linearGradient-80)" mask="url(#mask-78)" points="19.304 0 1.42108547e-14 34.703 82.199 34.703 60.865 0"></polygon>
                </g>
                <g transform="translate(270.910000, 169.165000)">
                    <mask id="mask-82" fill="white">
                        <use xlink:href="#path-81"></use>
                    </mask>
                    <g id="Clip-42"></g>
                    <polygon id="Fill-41" fill="url(#linearGradient-84)" mask="url(#mask-82)" points="-5.68434189e-14 0 44.54 77.164 86.695 77.164 41.71 0"></polygon>
                </g>
            </g>
            <path d="M502.18,140 L502.18,84.42 L537.04,140 L564.9,140 L599.62,80.78 L599.62,140 L630.7,140 L630.7,42 L591.5,42 L550.62,112 L506.8,42 L471.1,42 L471.1,140 L502.18,140 Z M671.16,140 L678.44,126.14 L739.06,126.14 L746.2,140 L779.24,140 L728.42,42 L692.86,42 L641.2,140 L671.16,140 Z M726.18,101.5 L691.46,101.5 L708.96,68.18 L726.18,101.5 Z M820.82,140 L820.82,114.8 L871.22,114.8 C883.073333,114.8 892.08,111.486667 898.24,104.86 C904.4,98.2333333 907.48,89.4133333 907.48,78.4 C907.48,67.3866667 904.4,58.5666667 898.24,51.94 C892.08,45.3133333 883.073333,42 871.22,42 L871.22,42 L789.74,42 L789.74,140 L820.82,140 Z M862.4,90.16 L820.82,90.16 L820.82,66.64 L862.4,66.64 C866.786667,66.64 870.17,67.6433333 872.55,69.65 C874.93,71.6566667 876.12,74.5733333 876.12,78.4 C876.12,82.1333333 874.93,85.0266667 872.55,87.08 C870.17,89.1333333 866.786667,90.16 862.4,90.16 L862.4,90.16 Z M502.18,290 L502.18,264.8 L552.58,264.8 C564.433333,264.8 573.44,261.486667 579.6,254.86 C585.76,248.233333 588.84,239.413333 588.84,228.4 C588.84,217.386667 585.76,208.566667 579.6,201.94 C573.44,195.313333 564.433333,192 552.58,192 L552.58,192 L471.1,192 L471.1,290 L502.18,290 Z M543.76,240.16 L502.18,240.16 L502.18,216.64 L543.76,216.64 C548.146667,216.64 551.53,217.643333 553.91,219.65 C556.29,221.656667 557.48,224.573333 557.48,228.4 C557.48,232.133333 556.29,235.026667 553.91,237.08 C551.53,239.133333 548.146667,240.16 543.76,240.16 L543.76,240.16 Z M633.5,290 L633.5,260.32 L666.96,260.32 C674.146667,260.32 679.583333,261.766667 683.27,264.66 C686.956667,267.553333 688.8,272.173333 688.8,278.52 L688.8,278.52 L688.8,290 L720.16,290 L720.16,271.94 C720.16,266.153333 718.503333,261.113333 715.19,256.82 C711.876667,252.526667 707.28,249.213333 701.4,246.88 C707.933333,244.826667 712.693333,241.63 715.68,237.29 C718.666667,232.95 720.16,227.466667 720.16,220.84 C720.16,211.32 716.986667,204.133333 710.64,199.28 C704.293333,194.426667 694.073333,192 679.98,192 L679.98,192 L602.42,192 L602.42,290 L633.5,290 Z M676.34,237.92 L633.5,237.92 L633.5,216.64 L676.34,216.64 C680.26,216.64 683.316667,217.55 685.51,219.37 C687.703333,221.19 688.8,223.826667 688.8,227.28 C688.8,230.733333 687.703333,233.37 685.51,235.19 C683.316667,237.01 680.26,237.92 676.34,237.92 L676.34,237.92 Z M803.18,291.4 C826.98,291.4 844.573333,287.386667 855.96,279.36 C867.346667,271.333333 873.04,258.546667 873.04,241 C873.04,223.453333 867.346667,210.666667 855.96,202.64 C844.573333,194.613333 826.98,190.6 803.18,190.6 C779.38,190.6 761.786667,194.613333 750.4,202.64 C739.013333,210.666667 733.32,223.453333 733.32,241 C733.32,258.546667 739.013333,271.333333 750.4,279.36 C761.786667,287.386667 779.38,291.4 803.18,291.4 Z M803.18,268.72 C790.113333,268.72 780.43,266.41 774.13,261.79 C767.83,257.17 764.68,250.24 764.68,241 C764.68,231.666667 767.83,224.713333 774.13,220.14 C780.43,215.566667 790.113333,213.28 803.18,213.28 C816.246667,213.28 825.93,215.566667 832.23,220.14 C838.53,224.713333 841.68,231.666667 841.68,241 C841.68,250.24 838.53,257.17 832.23,261.79 C825.93,266.41 816.246667,268.72 803.18,268.72 Z M953.68,290 L953.68,216.64 L995.68,216.64 L995.68,192 L880.6,192 L880.6,216.64 L922.6,216.64 L922.6,290 L953.68,290 Z M1073.1,291.4 C1096.9,291.4 1114.49333,287.386667 1125.88,279.36 C1137.26667,271.333333 1142.96,258.546667 1142.96,241 C1142.96,223.453333 1137.26667,210.666667 1125.88,202.64 C1114.49333,194.613333 1096.9,190.6 1073.1,190.6 C1049.3,190.6 1031.70667,194.613333 1020.32,202.64 C1008.93333,210.666667 1003.24,223.453333 1003.24,241 C1003.24,258.546667 1008.93333,271.333333 1020.32,279.36 C1031.70667,287.386667 1049.3,291.4 1073.1,291.4 Z M1073.1,268.72 C1060.03333,268.72 1050.35,266.41 1044.05,261.79 C1037.75,257.17 1034.6,250.24 1034.6,241 C1034.6,231.666667 1037.75,224.713333 1044.05,220.14 C1050.35,215.566667 1060.03333,213.28 1073.1,213.28 C1086.16667,213.28 1095.85,215.566667 1102.15,220.14 C1108.45,224.713333 1111.6,231.666667 1111.6,241 C1111.6,250.24 1108.45,257.17 1102.15,261.79 C1095.85,266.41 1086.16667,268.72 1073.1,268.72 Z M1220.94,291.4 C1263.96667,291.4 1286.08667,278.333333 1287.3,252.2 L1287.3,252.2 L1255.94,252.2 C1255.38,256.96 1252.16,260.903333 1246.28,264.03 C1240.4,267.156667 1231.95333,268.72 1220.94,268.72 C1208.71333,268.72 1199.70667,266.433333 1193.92,261.86 C1188.13333,257.286667 1185.24,250.333333 1185.24,241 C1185.24,231.666667 1188.13333,224.713333 1193.92,220.14 C1199.70667,215.566667 1208.71333,213.28 1220.94,213.28 C1231.95333,213.28 1240.4,214.843333 1246.28,217.97 C1252.16,221.096667 1255.38,225.04 1255.94,229.8 L1255.94,229.8 L1287.3,229.8 C1286.08667,203.666667 1263.96667,190.6 1220.94,190.6 C1205.16667,190.6 1192.38,192.326667 1182.58,195.78 C1172.78,199.233333 1165.54667,204.646667 1160.88,212.02 C1156.21333,219.393333 1153.88,229.053333 1153.88,241 C1153.88,252.946667 1156.21333,262.606667 1160.88,269.98 C1165.54667,277.353333 1172.78,282.766667 1182.58,286.22 C1192.38,289.673333 1205.16667,291.4 1220.94,291.4 Z M1368.08,291.4 C1391.88,291.4 1409.47333,287.386667 1420.86,279.36 C1432.24667,271.333333 1437.94,258.546667 1437.94,241 C1437.94,223.453333 1432.24667,210.666667 1420.86,202.64 C1409.47333,194.613333 1391.88,190.6 1368.08,190.6 C1344.28,190.6 1326.68667,194.613333 1315.3,202.64 C1303.91333,210.666667 1298.22,223.453333 1298.22,241 C1298.22,258.546667 1303.91333,271.333333 1315.3,279.36 C1326.68667,287.386667 1344.28,291.4 1368.08,291.4 Z M1368.08,268.72 C1355.01333,268.72 1345.33,266.41 1339.03,261.79 C1332.73,257.17 1329.58,250.24 1329.58,241 C1329.58,231.666667 1332.73,224.713333 1339.03,220.14 C1345.33,215.566667 1355.01333,213.28 1368.08,213.28 C1381.14667,213.28 1390.83,215.566667 1397.13,220.14 C1403.43,224.713333 1406.58,231.666667 1406.58,241 C1406.58,250.24 1403.43,257.17 1397.13,261.79 C1390.83,266.41 1381.14667,268.72 1368.08,268.72 Z M1548.82,290 L1548.82,265.36 L1483.58,265.36 L1483.58,192 L1452.5,192 L1452.5,290 L1548.82,290 Z" id="MAPPROTOCOL" fill="#000000" fill-rule="nonzero"></path>
        </g>
    </g>
</svg>