<?xml version="1.0" encoding="UTF-8"?>
<svg width="1551px" height="332px" viewBox="0 0 1551 332" version="1.1" xmlns="http://www.w3.org/2000/svg" xmlns:xlink="http://www.w3.org/1999/xlink">
    <title>编组 38备份 2</title>
    <defs>
        <polygon id="path-1" points="44.443 76.997 85.864 76.997 40.977 0 2.84217094e-14 0"></polygon>
        <linearGradient x1="50.0004101%" y1="-58.821432%" x2="50.0004101%" y2="368.326011%" id="linearGradient-3">
            <stop stop-color="#7B9AFF" offset="0%"></stop>
            <stop stop-color="#3F6DFF" offset="100%"></stop>
        </linearGradient>
        <linearGradient x1="50.0004101%" y1="-58.821432%" x2="50.0004101%" y2="368.326011%" id="linearGradient-4">
            <stop stop-color="#000000" offset="0%"></stop>
            <stop stop-color="#000000" offset="100%"></stop>
        </linearGradient>
        <polygon id="path-5" points="21.894 0 -2.84217094e-14 35.074 39.547 35.074 41.28 34.031 61.189 0"></polygon>
        <linearGradient x1="49.9999353%" y1="-368.614181%" x2="49.9999353%" y2="569.091004%" id="linearGradient-7">
            <stop stop-color="#7B9AFF" offset="0%"></stop>
            <stop stop-color="#3F6DFF" offset="100%"></stop>
        </linearGradient>
        <linearGradient x1="49.9999353%" y1="-368.614181%" x2="49.9999353%" y2="569.091004%" id="linearGradient-8">
            <stop stop-color="#000000" offset="0%"></stop>
            <stop stop-color="#000000" offset="100%"></stop>
        </linearGradient>
        <polygon id="path-9" points="22.915 73.77 63.767 73.77 21.187 0 -2.84217094e-14 34.546"></polygon>
        <linearGradient x1="50.0004149%" y1="-238.242833%" x2="50.0004149%" y2="207.589777%" id="linearGradient-11">
            <stop stop-color="#7B9AFF" offset="0%"></stop>
            <stop stop-color="#3F6DFF" offset="100%"></stop>
        </linearGradient>
        <linearGradient x1="50.0004149%" y1="-238.242833%" x2="50.0004149%" y2="207.589777%" id="linearGradient-12">
            <stop stop-color="#000000" offset="0%"></stop>
            <stop stop-color="#000000" offset="100%"></stop>
        </linearGradient>
        <path d="M2.84217094e-14,0 L19.088,34.669 L107.978,34.669 L88.146,0.308 L17.019,0.308 C16.511,0.308 16.032,0.195 15.595,0 L15.595,0 L2.84217094e-14,0 Z" id="path-13"></path>
        <linearGradient x1="50.0009109%" y1="-739.025464%" x2="50.0009109%" y2="209.633905%" id="linearGradient-15">
            <stop stop-color="#7B9AFF" offset="0%"></stop>
            <stop stop-color="#3F6DFF" offset="100%"></stop>
        </linearGradient>
        <linearGradient x1="50.0009109%" y1="-739.025464%" x2="50.0009109%" y2="209.633905%" id="linearGradient-16">
            <stop stop-color="#000000" offset="0%"></stop>
            <stop stop-color="#000000" offset="100%"></stop>
        </linearGradient>
        <polygon id="path-17" points="-3.55271368e-15 77.539 21.315 112.345 65.924 35.305 44.844 0"></polygon>
        <linearGradient x1="49.9994656%" y1="-155.947072%" x2="49.9994656%" y2="136.803577%" id="linearGradient-19">
            <stop stop-color="#7B9AFF" offset="0%"></stop>
            <stop stop-color="#3F6DFF" offset="100%"></stop>
        </linearGradient>
        <linearGradient x1="49.9994656%" y1="-155.947072%" x2="49.9994656%" y2="136.803577%" id="linearGradient-20">
            <stop stop-color="#000000" offset="0%"></stop>
            <stop stop-color="#000000" offset="100%"></stop>
        </linearGradient>
        <polygon id="path-21" points="19.34 0 2.84217094e-14 36.33 88.504 36.33 108.358 0"></polygon>
        <linearGradient x1="50.0002676%" y1="-819.93597%" x2="50.0002676%" y2="85.3508907%" id="linearGradient-23">
            <stop stop-color="#7B9AFF" offset="0%"></stop>
            <stop stop-color="#3F6DFF" offset="100%"></stop>
        </linearGradient>
        <linearGradient x1="50.0002676%" y1="-819.93597%" x2="50.0002676%" y2="85.3508907%" id="linearGradient-24">
            <stop stop-color="#000000" offset="0%"></stop>
            <stop stop-color="#000000" offset="100%"></stop>
        </linearGradient>
        <polygon id="path-25" points="21.037 0 0 36.33 43.63 36.33 63.84 0"></polygon>
        <linearGradient x1="49.9997071%" y1="-819.93597%" x2="49.9997071%" y2="85.3508907%" id="linearGradient-27">
            <stop stop-color="#7B9AFF" offset="0%"></stop>
            <stop stop-color="#3F6DFF" offset="100%"></stop>
        </linearGradient>
        <linearGradient x1="49.9997071%" y1="-819.93597%" x2="49.9997071%" y2="85.3508907%" id="linearGradient-28">
            <stop stop-color="#000000" offset="0%"></stop>
            <stop stop-color="#000000" offset="100%"></stop>
        </linearGradient>
        <polygon id="path-29" points="-1.42108547e-14 77.226 20.972 112.778 65.513 35.856 44.665 0"></polygon>
        <linearGradient x1="50.0007368%" y1="-42.1728866%" x2="50.0007368%" y2="249.453775%" id="linearGradient-31">
            <stop stop-color="#7B9AFF" offset="0%"></stop>
            <stop stop-color="#3F6DFF" offset="100%"></stop>
        </linearGradient>
        <linearGradient x1="50.0007368%" y1="-42.1728866%" x2="50.0007368%" y2="249.453775%" id="linearGradient-32">
            <stop stop-color="#000000" offset="0%"></stop>
            <stop stop-color="#000000" offset="100%"></stop>
        </linearGradient>
        <polygon id="path-33" points="0 34.358 20.832 70.269 39.934 34.386 21.004 0"></polygon>
        <linearGradient x1="50.0003431%" y1="-370.041893%" x2="50.0003431%" y2="98.0033565%" id="linearGradient-35">
            <stop stop-color="#7B9AFF" offset="0%"></stop>
            <stop stop-color="#3F6DFF" offset="100%"></stop>
        </linearGradient>
        <linearGradient x1="50.0003431%" y1="-370.041893%" x2="50.0003431%" y2="98.0033565%" id="linearGradient-36">
            <stop stop-color="#000000" offset="0%"></stop>
            <stop stop-color="#000000" offset="100%"></stop>
        </linearGradient>
        <polygon id="path-37" points="0 34.805 20.851 70.665 40.917 36.014 20.129 0"></polygon>
        <linearGradient x1="49.9998167%" y1="-8.17199179%" x2="49.9998167%" y2="457.250377%" id="linearGradient-39">
            <stop stop-color="#7B9AFF" offset="0%"></stop>
            <stop stop-color="#3F6DFF" offset="100%"></stop>
        </linearGradient>
        <linearGradient x1="49.9998167%" y1="-8.17199179%" x2="49.9998167%" y2="457.250377%" id="linearGradient-40">
            <stop stop-color="#000000" offset="0%"></stop>
            <stop stop-color="#000000" offset="100%"></stop>
        </linearGradient>
        <polygon id="path-41" points="-1.42108547e-14 74.225 41.08 75.514 64.489 36.99 42.98 0"></polygon>
        <linearGradient x1="50.0003304%" y1="-119.697987%" x2="50.0003304%" y2="315.838094%" id="linearGradient-43">
            <stop stop-color="#7B9AFF" offset="0%"></stop>
            <stop stop-color="#3F6DFF" offset="100%"></stop>
        </linearGradient>
        <linearGradient x1="50.0003304%" y1="-119.697987%" x2="50.0003304%" y2="315.838094%" id="linearGradient-44">
            <stop stop-color="#000000" offset="0%"></stop>
            <stop stop-color="#000000" offset="100%"></stop>
        </linearGradient>
        <polygon id="path-45" points="0 34.337 20.42 70.64 41.171 34.803 19.859 0"></polygon>
        <linearGradient x1="50.0002473%" y1="-367.540682%" x2="50.0002473%" y2="98.0464023%" id="linearGradient-47">
            <stop stop-color="#7B9AFF" offset="0%"></stop>
            <stop stop-color="#3F6DFF" offset="100%"></stop>
        </linearGradient>
        <linearGradient x1="50.0002473%" y1="-367.540682%" x2="50.0002473%" y2="98.0464023%" id="linearGradient-48">
            <stop stop-color="#000000" offset="0%"></stop>
            <stop stop-color="#000000" offset="100%"></stop>
        </linearGradient>
        <polygon id="path-49" points="0 -5.68434189e-14 20.258 35.099 61.194 35.099 40.732 -5.68434189e-14"></polygon>
        <linearGradient x1="49.9987373%" y1="-9.09352973%" x2="49.9987373%" y2="927.943755%" id="linearGradient-51">
            <stop stop-color="#7B9AFF" offset="0%"></stop>
            <stop stop-color="#3F6DFF" offset="100%"></stop>
        </linearGradient>
        <linearGradient x1="49.9987373%" y1="-9.09352973%" x2="49.9987373%" y2="927.943755%" id="linearGradient-52">
            <stop stop-color="#000000" offset="0%"></stop>
            <stop stop-color="#000000" offset="100%"></stop>
        </linearGradient>
        <polygon id="path-53" points="19.854 0 0 36.33 41.156 36.33 60.89 0"></polygon>
        <linearGradient x1="49.9997899%" y1="-819.93597%" x2="49.9997899%" y2="85.3508907%" id="linearGradient-55">
            <stop stop-color="#7B9AFF" offset="0%"></stop>
            <stop stop-color="#3F6DFF" offset="100%"></stop>
        </linearGradient>
        <linearGradient x1="49.9997899%" y1="-819.93597%" x2="49.9997899%" y2="85.3508907%" id="linearGradient-56">
            <stop stop-color="#000000" offset="0%"></stop>
            <stop stop-color="#000000" offset="100%"></stop>
        </linearGradient>
        <polygon id="path-57" points="0 0 19.833 34.361 62.227 34.361 42.196 0"></polygon>
        <linearGradient x1="50.0007608%" y1="-746.546195%" x2="50.0007608%" y2="210.616625%" id="linearGradient-59">
            <stop stop-color="#7B9AFF" offset="0%"></stop>
            <stop stop-color="#3F6DFF" offset="100%"></stop>
        </linearGradient>
        <linearGradient x1="50.0007608%" y1="-746.546195%" x2="50.0007608%" y2="210.616625%" id="linearGradient-60">
            <stop stop-color="#000000" offset="0%"></stop>
            <stop stop-color="#000000" offset="100%"></stop>
        </linearGradient>
        <polygon id="path-61" points="20.21 0 1.42108547e-14 36.33 85.437 36.33 105.953 0"></polygon>
        <linearGradient x1="50.0001717%" y1="-819.93597%" x2="50.0001717%" y2="85.3508907%" id="linearGradient-63">
            <stop stop-color="#7B9AFF" offset="0%"></stop>
            <stop stop-color="#3F6DFF" offset="100%"></stop>
        </linearGradient>
        <linearGradient x1="50.0001717%" y1="-819.93597%" x2="50.0001717%" y2="85.3508907%" id="linearGradient-64">
            <stop stop-color="#000000" offset="0%"></stop>
            <stop stop-color="#000000" offset="100%"></stop>
        </linearGradient>
        <polygon id="path-65" points="0 76.124 42.643 76.124 84.806 0.326 44.08 0"></polygon>
        <linearGradient x1="50.0003889%" y1="-282.115677%" x2="50.0003889%" y2="149.930349%" id="linearGradient-67">
            <stop stop-color="#7B9AFF" offset="0%"></stop>
            <stop stop-color="#3F6DFF" offset="100%"></stop>
        </linearGradient>
        <linearGradient x1="50.0003889%" y1="-282.115677%" x2="50.0003889%" y2="149.930349%" id="linearGradient-68">
            <stop stop-color="#000000" offset="0%"></stop>
            <stop stop-color="#000000" offset="100%"></stop>
        </linearGradient>
        <polygon id="path-69" points="1.42108547e-14 0 20.897 34.999 62.357 35.331 41.147 0"></polygon>
        <linearGradient x1="49.9995673%" y1="-488.991928%" x2="49.9995673%" y2="441.892329%" id="linearGradient-71">
            <stop stop-color="#7B9AFF" offset="0%"></stop>
            <stop stop-color="#3F6DFF" offset="100%"></stop>
        </linearGradient>
        <linearGradient x1="49.9995673%" y1="-488.991928%" x2="49.9995673%" y2="441.892329%" id="linearGradient-72">
            <stop stop-color="#000000" offset="0%"></stop>
            <stop stop-color="#000000" offset="100%"></stop>
        </linearGradient>
        <polygon id="path-73" points="2.84217094e-14 34.627 40.376 104.066 44.564 111.009 65.119 78.082 20.049 0"></polygon>
        <linearGradient x1="49.9993877%" y1="-43.9457503%" x2="49.9993877%" y2="252.32817%" id="linearGradient-75">
            <stop stop-color="#7B9AFF" offset="0%"></stop>
            <stop stop-color="#3F6DFF" offset="100%"></stop>
        </linearGradient>
        <linearGradient x1="49.9993877%" y1="-43.9457503%" x2="49.9993877%" y2="252.32817%" id="linearGradient-76">
            <stop stop-color="#000000" offset="0%"></stop>
            <stop stop-color="#000000" offset="100%"></stop>
        </linearGradient>
        <polygon id="path-77" points="19.304 0 1.42108547e-14 34.703 82.199 34.703 60.865 0"></polygon>
        <linearGradient x1="49.9999032%" y1="-738.203435%" x2="49.9999032%" y2="209.526492%" id="linearGradient-79">
            <stop stop-color="#7B9AFF" offset="0%"></stop>
            <stop stop-color="#3F6DFF" offset="100%"></stop>
        </linearGradient>
        <linearGradient x1="49.9999032%" y1="-738.203435%" x2="49.9999032%" y2="209.526492%" id="linearGradient-80">
            <stop stop-color="#000000" offset="0%"></stop>
            <stop stop-color="#000000" offset="100%"></stop>
        </linearGradient>
        <polygon id="path-81" points="-5.68434189e-14 0 44.54 77.164 86.695 77.164 41.71 0"></polygon>
        <linearGradient x1="49.999762%" y1="-223.364183%" x2="49.999762%" y2="202.858818%" id="linearGradient-83">
            <stop stop-color="#7B9AFF" offset="0%"></stop>
            <stop stop-color="#3F6DFF" offset="100%"></stop>
        </linearGradient>
        <linearGradient x1="49.999762%" y1="-223.364183%" x2="49.999762%" y2="202.858818%" id="linearGradient-84">
            <stop stop-color="#000000" offset="0%"></stop>
            <stop stop-color="#000000" offset="100%"></stop>
        </linearGradient>
    </defs>
    <g id="页面-1" stroke="none" stroke-width="1" fill="none" fill-rule="evenodd">
        <g id="编组-38备份-2">
            <g id="编组">
                <g transform="translate(197.566000, 42.099000)">
                    <mask id="mask-2" fill="white">
                        <use xlink:href="#path-1"></use>
                    </mask>
                    <g id="Clip-2"></g>
                    <polygon id="Fill-1" fill="url(#linearGradient-4)" mask="url(#mask-2)" points="44.443 76.997 85.864 76.997 40.977 0 2.84217094e-14 0"></polygon>
                </g>
                <g transform="translate(221.415000, 126.096000)">
                    <mask id="mask-6" fill="white">
                        <use xlink:href="#path-5"></use>
                    </mask>
                    <g id="Clip-4"></g>
                    <polygon id="Fill-3" fill="url(#linearGradient-8)" mask="url(#mask-6)" points="21.894 0 -2.84217094e-14 35.074 39.547 35.074 41.28 34.031 61.189 0"></polygon>
                </g>
                <g transform="translate(243.600000, 172.560000)">
                    <mask id="mask-10" fill="white">
                        <use xlink:href="#path-9"></use>
                    </mask>
                    <g id="Clip-6"></g>
                    <polygon id="Fill-5" fill="url(#linearGradient-12)" mask="url(#mask-10)" points="22.915 73.77 63.767 73.77 21.187 0 -2.84217094e-14 34.546"></polygon>
                </g>
                <g transform="translate(223.262000, 253.021000)">
                    <mask id="mask-14" fill="white">
                        <use xlink:href="#path-13"></use>
                    </mask>
                    <g id="Clip-8"></g>
                    <path d="M2.84217094e-14,0 L19.088,34.669 L107.978,34.669 L88.146,0.308 L17.019,0.308 C16.511,0.308 16.032,0.195 15.595,0 L15.595,0 L2.84217094e-14,0 Z" id="Fill-7" fill="url(#linearGradient-16)" mask="url(#mask-14)"></path>
                </g>
                <g transform="translate(23.846000, 172.007000)">
                    <mask id="mask-18" fill="white">
                        <use xlink:href="#path-17"></use>
                    </mask>
                    <g id="Clip-10"></g>
                    <polygon id="Fill-9" fill="url(#linearGradient-20)" mask="url(#mask-18)" points="-3.55271368e-15 77.539 21.315 112.345 65.924 35.305 44.844 0"></polygon>
                </g>
                <g transform="translate(223.043000, 294.691000)">
                    <mask id="mask-22" fill="white">
                        <use xlink:href="#path-21"></use>
                    </mask>
                    <g id="Clip-12"></g>
                    <polygon id="Fill-11" fill="url(#linearGradient-24)" mask="url(#mask-22)" points="19.34 0 2.84217094e-14 36.33 88.504 36.33 108.358 0"></polygon>
                </g>
                <g transform="translate(26.226000, 294.691000)">
                    <mask id="mask-26" fill="white">
                        <use xlink:href="#path-25"></use>
                    </mask>
                    <g id="Clip-14"></g>
                    <polygon id="Fill-13" fill="url(#linearGradient-28)" mask="url(#mask-26)" points="21.037 0 0 36.33 43.63 36.33 63.84 0"></polygon>
                </g>
                <g transform="translate(97.844000, 44.370000)">
                    <mask id="mask-30" fill="white">
                        <use xlink:href="#path-29"></use>
                    </mask>
                    <g id="Clip-16"></g>
                    <polygon id="Fill-15" fill="url(#linearGradient-32)" mask="url(#mask-30)" points="-1.42108547e-14 77.226 20.972 112.778 65.513 35.856 44.665 0"></polygon>
                </g>
                <g transform="translate(196.367000, 256.833000)">
                    <mask id="mask-34" fill="white">
                        <use xlink:href="#path-33"></use>
                    </mask>
                    <g id="Clip-18"></g>
                    <polygon id="Fill-17" fill="url(#linearGradient-36)" mask="url(#mask-34)" points="0 34.358 20.832 70.269 39.934 34.386 21.004 0"></polygon>
                </g>
                <g transform="translate(146.546000, 2.583000)">
                    <mask id="mask-38" fill="white">
                        <use xlink:href="#path-37"></use>
                    </mask>
                    <g id="Clip-20"></g>
                    <polygon id="Fill-19" fill="url(#linearGradient-40)" mask="url(#mask-38)" points="0 34.805 20.851 70.665 40.917 36.014 20.129 0"></polygon>
                </g>
                <g transform="translate(124.430000, 87.197000)">
                    <mask id="mask-42" fill="white">
                        <use xlink:href="#path-41"></use>
                    </mask>
                    <g id="Clip-22"></g>
                    <polygon id="Fill-21" fill="url(#linearGradient-44)" mask="url(#mask-42)" points="-1.42108547e-14 74.225 41.08 75.514 64.489 36.99 42.98 0"></polygon>
                </g>
                <g transform="translate(0.000000, 256.439000)">
                    <mask id="mask-46" fill="white">
                        <use xlink:href="#path-45"></use>
                    </mask>
                    <g id="Clip-24"></g>
                    <polygon id="Fill-23" fill="url(#linearGradient-48)" mask="url(#mask-46)" points="0 34.337 20.42 70.64 41.171 34.803 19.859 0"></polygon>
                </g>
                <g transform="translate(173.268000, 0.000000)">
                    <mask id="mask-50" fill="white">
                        <use xlink:href="#path-49"></use>
                    </mask>
                    <g id="Clip-26"></g>
                    <polygon id="Fill-25" fill="url(#linearGradient-52)" mask="url(#mask-50)" points="0 -5.68434189e-14 20.258 35.099 61.194 35.099 40.732 -5.68434189e-14"></polygon>
                </g>
                <g transform="translate(319.524000, 294.691000)">
                    <mask id="mask-54" fill="white">
                        <use xlink:href="#path-53"></use>
                    </mask>
                    <g id="Clip-28"></g>
                    <polygon id="Fill-27" fill="url(#linearGradient-56)" mask="url(#mask-54)" points="19.854 0 0 36.33 41.156 36.33 60.89 0"></polygon>
                </g>
                <g transform="translate(319.490000, 253.329000)">
                    <mask id="mask-58" fill="white">
                        <use xlink:href="#path-57"></use>
                    </mask>
                    <g id="Clip-30"></g>
                    <polygon id="Fill-29" fill="url(#linearGradient-60)" mask="url(#mask-58)" points="0 0 19.833 34.361 62.227 34.361 42.196 0"></polygon>
                </g>
                <g transform="translate(77.866000, 294.691000)">
                    <mask id="mask-62" fill="white">
                        <use xlink:href="#path-61"></use>
                    </mask>
                    <g id="Clip-32"></g>
                    <polygon id="Fill-31" fill="url(#linearGradient-64)" mask="url(#mask-62)" points="20.21 0 1.42108547e-14 36.33 85.437 36.33 105.953 0"></polygon>
                </g>
                <g transform="translate(51.316000, 211.566000)">
                    <mask id="mask-66" fill="white">
                        <use xlink:href="#path-65"></use>
                    </mask>
                    <g id="Clip-34"></g>
                    <polygon id="Fill-33" fill="url(#linearGradient-68)" mask="url(#mask-66)" points="0 76.124 42.643 76.124 84.806 0.326 44.08 0"></polygon>
                </g>
                <g transform="translate(75.389000, 169.574000)">
                    <mask id="mask-70" fill="white">
                        <use xlink:href="#path-69"></use>
                    </mask>
                    <g id="Clip-36"></g>
                    <polygon id="Fill-35" fill="url(#linearGradient-72)" mask="url(#mask-70)" points="1.42108547e-14 0 20.897 34.999 62.357 35.331 41.147 0"></polygon>
                </g>
                <g transform="translate(171.451000, 45.592000)">
                    <mask id="mask-74" fill="white">
                        <use xlink:href="#path-73"></use>
                    </mask>
                    <g id="Clip-38"></g>
                    <polygon id="Fill-37" fill="url(#linearGradient-76)" mask="url(#mask-74)" points="2.84217094e-14 34.627 40.376 104.066 44.564 111.009 65.119 78.082 20.049 0"></polygon>
                </g>
                <g transform="translate(101.969000, 252.987000)">
                    <mask id="mask-78" fill="white">
                        <use xlink:href="#path-77"></use>
                    </mask>
                    <g id="Clip-40"></g>
                    <polygon id="Fill-39" fill="url(#linearGradient-80)" mask="url(#mask-78)" points="19.304 0 1.42108547e-14 34.703 82.199 34.703 60.865 0"></polygon>
                </g>
                <g transform="translate(270.910000, 169.165000)">
                    <mask id="mask-82" fill="white">
                        <use xlink:href="#path-81"></use>
                    </mask>
                    <g id="Clip-42"></g>
                    <polygon id="Fill-41" fill="url(#linearGradient-84)" mask="url(#mask-82)" points="-5.68434189e-14 0 44.54 77.164 86.695 77.164 41.71 0"></polygon>
                </g>
            </g>
            <text id="MAP-PROTOCOL" font-family="ZYLiberty-Regular, ZY Liberty" font-size="140" font-weight="normal" line-spacing="150" fill="#000000">
                <tspan x="462" y="149">MAP </tspan>
                <tspan x="462" y="299">PROTOCOL</tspan>
            </text>
        </g>
    </g>
</svg>