<svg width="40" height="40" viewBox="0 0 40 40" fill="none" xmlns="http://www.w3.org/2000/svg">
<g id="&#231;&#188;&#150;&#231;&#187;&#132; 14">
<circle id="&#230;&#164;&#173;&#229;&#156;&#134;&#229;&#189;&#162;" cx="20" cy="20" r="20" fill="#C6D4FF"/>
<path id="Fill 1" fill-rule="evenodd" clip-rule="evenodd" d="M26.4254 14.4965C26.3271 11.4358 24.2073 8.9345 21.381 10.4609C20.3796 11.0014 19.8356 12.0443 18.8455 12.5996C17.935 13.1098 16.7974 13.1779 15.7319 13.174C13.5782 13.1664 11.073 12.3805 10.4231 14.8404C9.98099 16.5143 12.5278 17.5837 11.9042 19.197C11.7116 19.6996 11.107 20.0737 10.6119 20.3873C9.38016 21.1695 8.46566 21.8383 7.55515 22.9492C5.85103 25.0275 5.7301 25.9948 6.32323 27.3021C6.96938 28.7191 9.38769 30.0492 11.3942 29.3841C13.8011 28.5869 13.5744 26.8866 16.2534 26.0024C18.513 25.2579 19.2007 26.8525 20.0509 28.1599C21.6491 30.6198 24.7552 30.5291 26.8713 28.3904C27.559 27.6952 28.7341 26.1723 28.5035 25.1785C28.3146 24.3736 27.0488 23.8901 26.4367 23.346C24.2792 21.4303 27.9028 20.7426 29.8034 20.0397C31.6209 19.3672 34.5494 17.9841 33.5821 15.4903C33.2494 14.6364 30.9332 13.8693 30.0036 14.1678C28.6849 14.5871 26.4632 15.6791 26.4254 14.4965Z" fill="black"/>
</g>
</svg>
