<svg width="40" height="40" viewBox="0 0 40 40" fill="none" xmlns="http://www.w3.org/2000/svg">
<g id="&#231;&#188;&#150;&#231;&#187;&#132; 14">
<circle id="&#230;&#164;&#173;&#229;&#156;&#134;&#229;&#189;&#162;" cx="20" cy="20" r="20" fill="#B8F3C9"/>
<g id="jifenduihuan2">
<mask id="mask0_4953_37" style="mask-type:luminance" maskUnits="userSpaceOnUse" x="8" y="8" width="25" height="24">
<path id="Clip 2" fill-rule="evenodd" clip-rule="evenodd" d="M8 8H33V32H8V8Z" fill="white"/>
</mask>
<g mask="url(#mask0_4953_37)">
<path id="Fill 1" fill-rule="evenodd" clip-rule="evenodd" d="M8 22.9868C9.9612 24.4132 13.3918 25.3217 17.4604 25.3217C17.9109 25.3217 18.3513 25.3087 18.7867 25.2865C18.7968 26.198 18.9641 27.2239 19.3722 28.3673C18.7545 28.4144 18.1154 28.4385 17.4604 28.4385C12.2358 28.4385 8 26.8616 8 24.9151V22.9868ZM8 18.5792C9.9612 20.0056 13.3918 20.913 17.4604 20.913C18.4612 20.913 19.4246 20.8588 20.3358 20.7544C19.6144 21.6448 19.1262 22.6996 18.9147 23.824C18.444 23.8531 17.9583 23.8692 17.4604 23.8692C12.637 23.8692 9.04104 22.4749 8 20.9732V18.5792ZM26.9209 12.9749V16.5664C25.8817 18.0682 22.2839 19.4625 17.4604 19.4625C12.637 19.4625 9.0391 18.0671 8 16.5655V12.9749C8 14.9202 12.2358 16.4982 17.4604 16.4982C22.6849 16.4982 26.9209 14.9202 26.9209 12.9749ZM17.4604 8C22.686 8 26.9209 9.57703 26.9209 11.5233C26.9209 12.7821 25.1179 13.9456 22.1911 14.5749C19.2634 15.2043 15.6575 15.2043 12.7307 14.5749C9.80296 13.9456 8 12.7821 8 11.5233C8 9.57703 12.2358 8 17.4604 8ZM26.4864 19.0248C22.8891 19.0248 19.9729 21.9294 19.9729 25.5125C19.9729 29.0954 22.8891 32 26.4864 32C30.0838 32 33 29.0954 33 25.5125C33 21.9294 30.0838 19.0248 26.4864 19.0248ZM26.4028 28.7256C26.4028 28.7256 24.3135 26.2131 22.9701 25.5335C25.0997 24.359 26.3695 22.2179 26.3695 22.2179C26.7162 23.018 28.492 24.8338 29.6086 25.4722C27.5406 26.8515 26.4028 28.7256 26.4028 28.7256Z" fill="#3D4258"/>
</g>
</g>
</g>
</svg>
