<svg width="40" height="40" viewBox="0 0 40 40" fill="none" xmlns="http://www.w3.org/2000/svg">
<g id="&#231;&#188;&#150;&#231;&#187;&#132; 14">
<circle id="&#230;&#164;&#173;&#229;&#156;&#134;&#229;&#189;&#162;" cx="20" cy="20" r="20" fill="#DAD4FF"/>
<g id="yonghu">
<mask id="mask0_4953_25" style="mask-type:luminance" maskUnits="userSpaceOnUse" x="8" y="9" width="25" height="22">
<path id="Clip 2" fill-rule="evenodd" clip-rule="evenodd" d="M8 9H33V31H8V9Z" fill="white"/>
</mask>
<g mask="url(#mask0_4953_25)">
<path id="Fill 1" fill-rule="evenodd" clip-rule="evenodd" d="M21.8871 19.5949C22.5111 19.8618 23.1794 20.0001 23.8539 19.9985C26.7409 19.9985 29.08 17.5355 29.08 14.5C29.08 11.4615 26.7394 9 23.8539 9C23.232 8.99991 22.6153 9.11534 22.035 9.34074C23.3626 10.7095 24.0965 12.5695 24.0691 14.5C24.0401 16.4306 23.2543 18.269 21.8871 19.5949ZM26.2495 21.8324H24.3696C26.9788 23.545 28.5505 26.5097 28.5352 29.6895V30.2848C28.5384 30.5335 28.4712 30.7744 28.34 30.9817C31.0439 30.9187 33 30.6363 33 29.3934V28.9344C33 25.009 29.9788 21.8324 26.2495 21.8324ZM16.7097 19.9985C19.5983 19.9985 21.9374 17.5355 21.9374 14.5C21.9374 11.4615 19.5967 9 16.7097 9C13.8258 9 11.4835 11.4615 11.4835 14.5C11.4835 17.5355 13.8258 19.9985 16.7097 19.9985ZM19.1054 21.8324H14.7505C11.0212 21.8324 8 25.0121 8 28.9344V29.3934C8 30.997 11.0212 31 14.7505 31H19.1054C22.8316 31 25.8559 30.9386 25.8559 29.3934V28.9344C25.8559 25.009 22.8347 21.8324 19.1054 21.8324Z" fill="black"/>
</g>
</g>
</g>
</svg>
