<svg width="24" height="24" viewBox="0 0 24 24" fill="none" xmlns="http://www.w3.org/2000/svg">
<g id="github (1) 3&#229;&#164;&#135;&#228;&#187;&#189; 4">
<g id="github (1) 2">
<g id="github (1)">
<circle id="&#232;&#146;&#153;&#231;&#137;&#136;" cx="12" cy="12" r="12" fill="#F7F7F7"/>
<mask id="mask0_16_117" style="mask-type:luminance" maskUnits="userSpaceOnUse" x="0" y="0" width="24" height="24">
<circle id="&#232;&#146;&#153;&#231;&#137;&#136;_2" cx="12" cy="12" r="12" fill="white"/>
</mask>
<g mask="url(#mask0_16_117)">
<g id="&#231;&#188;&#150;&#231;&#187;&#132;">
<path id="Fill 1" fill-rule="evenodd" clip-rule="evenodd" d="M16.6917 15.8884C16.1142 15.1183 16.6917 13.3332 15.9928 12.3193C15.2319 11.2342 14.2593 12.3543 13.3156 10.6398C12.4344 8.99493 13.5594 7.62992 14.7154 7.17583C15.0191 7.03506 15.3538 7 15.688 7C15.768 7.00383 15.8437 7.04163 15.9013 7.10517C17.1787 8.36501 18 10.2548 18 12.3543C18 13.6136 17.6953 14.8033 17.2087 15.8178C17.0878 16.0281 16.844 16.0626 16.6917 15.8884ZM12.5001 15.4055C12.0106 15.8876 11.8473 16.8202 11.6518 17.4634C11.6145 17.6018 11.5201 17.7186 11.3915 17.7845L11.0648 17.9461C10.8688 18.0447 10.631 18.0055 10.4778 17.849C10.1522 17.5601 9.89085 17.1096 9.89085 16.6592C9.89085 15.8876 8.58724 16.1453 8.58724 14.6017C8.58724 13.348 6.95644 12.6077 5.78299 13.1548C5.68498 13.187 5.58698 13.2514 5.48898 13.2514C5.39813 13.2806 5.2986 13.2695 5.21693 13.2197C5.13526 13.1704 5.08014 13.0873 5.06584 12.9937C5.03318 12.7048 5 12.4154 5 12.0943C5 10.5507 5.55483 9.13599 6.46746 8.04284C6.46746 8.01113 6.50064 8.01113 6.53279 8.01113C7.32037 7.09313 8.34581 6.40412 9.49987 6.0176C9.79336 5.92096 10.0547 6.24206 9.89085 6.49975C9.76069 6.69251 9.69536 6.88527 9.69536 7.04683C9.72854 7.72174 9.07622 8.13897 8.78273 8.04284C8.52139 7.94671 7.80425 8.39665 8.45708 8.71825L8.81488 8.87931C8.84806 8.87931 8.88073 8.91102 8.88073 8.91102L8.97822 8.97594C10.1522 9.65085 9.92454 10.1964 9.43504 11.0329C8.88073 11.9333 8.65257 11.0329 7.8701 10.7757C7.08762 10.519 6.30515 11.0329 6.56546 11.5473C6.82628 12.0621 7.60876 11.5473 8.13041 12.0621C8.65257 12.5765 8.65257 13.348 10.218 12.8342C11.783 12.3188 12.0433 12.5765 12.5655 13.0903C13.0213 13.6057 13.2826 14.6339 12.5001 15.4055ZM11.9998 4.00003C9.87655 3.99429 7.83839 4.83543 6.33717 6.33717C4.83595 7.83839 3.99429 9.87655 4.00003 12.0003C4.00003 16.433 7.56706 20 11.9998 20C16.433 20 20 16.433 20 12.0003C20 7.56706 16.433 4.00003 11.9998 4.00003Z" fill="black"/>
</g>
</g>
</g>
</g>
</g>
</svg>
